<svg width="175" height="164" viewBox="0 0 175 164" fill="none" xmlns="http://www.w3.org/2000/svg">
    <g id="Brand_var2">
        <g id="name">
            <path id="Health &#38; Care" d="M34.5765 147.396L34.8524 143.494V139.355L34.5765 135.473H36.7836L36.5077 139.375V140.439H42.5773V139.355L42.3014 135.473H44.5085L44.2326 139.375V143.513L44.5085 147.396H42.3014L42.5773 143.494V141.819H36.5077V143.513L36.7836 147.396H34.5765ZM51.0916 147.691C49.9092 147.691 48.9436 147.297 48.1948 146.509C47.4459 145.72 47.0715 144.637 47.0715 143.257C47.0715 141.865 47.4525 140.715 48.2145 139.809C48.9765 138.902 49.9027 138.449 50.9931 138.449C52.0966 138.449 52.9243 138.718 53.4761 139.257C54.0278 139.795 54.3037 140.551 54.3037 141.523C54.3037 141.878 54.2709 142.305 54.2052 142.804L48.8845 142.981C48.8845 144.098 49.075 144.965 49.456 145.583C49.8501 146.187 50.4019 146.489 51.1113 146.489C52.0441 146.489 52.9046 146.154 53.6928 145.484L54.2249 146.942C53.3316 147.441 52.2871 147.691 51.0916 147.691ZM48.9239 141.957L52.5105 141.799C52.4973 140.998 52.3659 140.439 52.1163 140.124C51.8667 139.809 51.4595 139.651 50.8945 139.651C50.3296 139.651 49.8895 139.71 49.5742 139.828C49.2458 140.183 49.029 140.892 48.9239 141.957ZM58.6942 147.691C57.8534 147.691 57.2031 147.468 56.7433 147.021C56.2966 146.561 56.0733 145.937 56.0733 145.149C56.0733 144.361 56.3952 143.776 57.0389 143.395C57.6826 143.014 59.0358 142.633 61.0984 142.252C61.0984 141.254 60.9867 140.564 60.7634 140.183C60.5401 139.802 60.1394 139.612 59.5613 139.612C59.246 139.612 58.9964 139.625 58.8125 139.651L57.1571 141.109L56.2704 139.631C57.2819 138.83 58.4118 138.429 59.6598 138.429C61.7224 138.429 62.7537 139.467 62.7537 141.543V145.188L63.1084 147.415L61.2758 147.691L61.1969 146.706C60.3824 147.363 59.5482 147.691 58.6942 147.691ZM57.7483 145.07C57.7483 145.504 57.8797 145.845 58.1425 146.095C58.4183 146.345 58.8387 146.469 59.4037 146.469C59.9817 146.469 60.5466 146.266 61.0984 145.858V143.375C59.8372 143.559 58.7665 143.842 57.8863 144.223C57.7943 144.578 57.7483 144.86 57.7483 145.07ZM65.5343 147.396L65.8102 143.494V136.222L65.5146 134.192L67.6429 133.995L67.4261 137.858V143.513L67.6429 147.396H65.5343ZM69.5581 139.789L69.499 139.02L71.2725 138.449L71.9228 136.202H72.7702L72.8885 138.449H75.3714L75.3123 139.493L72.8293 139.671V144.578C72.8293 145.274 72.895 145.76 73.0264 146.036C73.1709 146.299 73.4468 146.43 73.8541 146.43C74.2745 146.43 74.7211 146.364 75.1941 146.233L75.0167 147.356C74.5701 147.579 73.9854 147.691 73.2629 147.691C72.5403 147.691 72.0017 147.494 71.647 147.1C71.3054 146.706 71.1346 146.029 71.1346 145.07C71.1346 144.742 71.174 142.981 71.2528 139.789H69.5581ZM77.1579 147.396L77.4338 143.494V136.222L77.1382 134.192L79.2665 133.995L79.0497 137.858V139.493C80.1139 138.797 81.1846 138.449 82.2619 138.449C83.6413 138.449 84.331 139.355 84.331 141.168V147.396L82.3998 147.494L82.6757 143.257V141.149C82.6757 140.663 82.5969 140.321 82.4392 140.124C82.2816 139.914 82.0188 139.809 81.651 139.809C80.8496 139.809 79.9825 140.052 79.0497 140.538V143.513L79.2665 147.396H77.1579ZM97.8066 141.168L99.6787 141.089C99.6787 142.758 99.4028 144.124 98.851 145.188L99.6196 145.937L101.334 147.139V147.336L98.9496 147.829L97.8263 146.528C96.9855 147.304 95.9214 147.691 94.6339 147.691C93.3464 147.691 92.348 147.428 91.6385 146.903C90.9422 146.364 90.5941 145.556 90.5941 144.479C90.5941 143.783 90.778 143.205 91.1459 142.745C91.5137 142.272 92.0261 141.832 92.683 141.425C92.0392 140.728 91.632 140.17 91.4612 139.749C91.3035 139.329 91.2247 138.738 91.2247 137.976C91.2247 137.201 91.5531 136.544 92.21 136.005C92.8669 135.453 93.6748 135.178 94.6339 135.178C95.6061 135.178 96.368 135.414 96.9198 135.887C97.4716 136.347 97.7475 136.991 97.7475 137.818C97.7475 138.633 97.511 139.303 97.0381 139.828C96.5651 140.354 95.8951 140.886 95.028 141.425L97.8854 144.243C97.9774 143.783 98.0234 143.389 98.0234 143.06L97.8066 141.168ZM97.0578 145.74L93.5895 142.351C92.7355 142.968 92.3085 143.579 92.3085 144.183C92.3085 145.72 93.1362 146.489 94.7915 146.489C95.7637 146.489 96.5191 146.239 97.0578 145.74ZM94.1609 140.577C94.8047 140.196 95.2973 139.809 95.6389 139.414C95.9805 139.02 96.1513 138.528 96.1513 137.936C96.1513 136.833 95.6192 136.281 94.5551 136.281C94.1609 136.281 93.7537 136.34 93.3333 136.459C93.018 136.853 92.8603 137.326 92.8603 137.877C92.8603 138.429 92.9654 138.909 93.1756 139.316C93.399 139.71 93.7274 140.13 94.1609 140.577ZM112.389 147.691C110.602 147.691 109.197 147.152 108.172 146.075C107.16 144.998 106.655 143.5 106.655 141.582C106.655 139.664 107.239 138.12 108.408 136.951C109.578 135.769 111.134 135.178 113.079 135.178C114.077 135.178 115.109 135.375 116.173 135.769L115.542 137.838L113.138 136.537C111.456 136.537 110.287 136.892 109.63 137.601C108.973 138.311 108.645 139.506 108.645 141.188C108.645 142.856 108.986 144.144 109.67 145.05C110.366 145.944 111.266 146.39 112.369 146.39C113.473 146.39 114.563 145.944 115.641 145.05L116.271 146.765C115.089 147.382 113.795 147.691 112.389 147.691ZM120.661 147.691C119.82 147.691 119.17 147.468 118.71 147.021C118.264 146.561 118.04 145.937 118.04 145.149C118.04 144.361 118.362 143.776 119.006 143.395C119.65 143.014 121.003 142.633 123.065 142.252C123.065 141.254 122.954 140.564 122.73 140.183C122.507 139.802 122.106 139.612 121.528 139.612C121.213 139.612 120.963 139.625 120.78 139.651L119.124 141.109L118.237 139.631C119.249 138.83 120.379 138.429 121.627 138.429C123.689 138.429 124.721 139.467 124.721 141.543V145.188L125.075 147.415L123.243 147.691L123.164 146.706C122.349 147.363 121.515 147.691 120.661 147.691ZM119.715 145.07C119.715 145.504 119.847 145.845 120.109 146.095C120.385 146.345 120.806 146.469 121.371 146.469C121.949 146.469 122.514 146.266 123.065 145.858V143.375C121.804 143.559 120.734 143.842 119.853 144.223C119.761 144.578 119.715 144.86 119.715 145.07ZM127.501 147.396L127.777 143.494V140.735L127.482 138.705L129.472 138.508L129.393 139.986C129.853 139.434 130.26 139.04 130.615 138.804C130.97 138.567 131.338 138.449 131.719 138.449C132.113 138.449 132.5 138.534 132.881 138.705L132.349 140.4L130.576 139.868C130.089 140.301 129.662 140.853 129.295 141.523V143.513L129.511 147.396H127.501ZM137.788 147.691C136.605 147.691 135.64 147.297 134.891 146.509C134.142 145.72 133.768 144.637 133.768 143.257C133.768 141.865 134.149 140.715 134.911 139.809C135.673 138.902 136.599 138.449 137.689 138.449C138.793 138.449 139.62 138.718 140.172 139.257C140.724 139.795 141 140.551 141 141.523C141 141.878 140.967 142.305 140.901 142.804L135.581 142.981C135.581 144.098 135.771 144.965 136.152 145.583C136.546 146.187 137.098 146.489 137.807 146.489C138.74 146.489 139.601 146.154 140.389 145.484L140.921 146.942C140.028 147.441 138.983 147.691 137.788 147.691ZM135.62 141.957L139.207 141.799C139.193 140.998 139.062 140.439 138.812 140.124C138.563 139.809 138.156 139.651 137.591 139.651C137.026 139.651 136.586 139.71 136.27 139.828C135.942 140.183 135.725 140.892 135.62 141.957Z" fill="#00B295"/>
            <path id="furfect" d="M30.3043 116.709C30.3043 120.546 29.319 123.685 27.3484 126.129C25.404 128.599 22.7503 129.834 19.3871 129.834C16.0501 129.834 13.8299 129.006 12.7263 127.351C12.0432 126.3 11.7016 125.012 11.7016 123.488C11.7016 121.991 11.833 120.493 12.0957 118.995L17.1405 90.4606H23.8407L22.6583 97.0425H32.472L31.4867 102.6H23.7619C25.6274 104.097 27.1776 106.042 28.4125 108.433C29.6737 110.824 30.3043 113.583 30.3043 116.709ZM20.4118 124.198C21.2263 124.198 21.9226 123.541 22.5007 122.227C23.0787 120.913 23.3677 119.179 23.3677 117.025C23.3677 114.896 23.1444 112.742 22.6977 110.561C22.2773 108.38 21.765 106.672 21.1606 105.437L18.7959 118.956C18.6382 119.876 18.5594 120.677 18.5594 121.36C18.5594 123.252 19.1769 124.198 20.4118 124.198ZM52.5943 109.93C52.5943 110.614 52.9359 110.955 53.619 110.955C54.3285 110.955 54.9197 110.824 55.3926 110.561L55.1955 115.015C53.9343 116.039 52.5155 116.552 50.939 116.552C47.9699 116.552 46.354 115.409 46.0912 113.123C44.5147 115.409 42.3865 116.552 39.7064 116.552C37.0526 116.552 35.3316 115.947 34.5434 114.739C34.0178 113.977 33.7551 113.11 33.7551 112.138C33.7551 111.165 33.8339 110.272 33.9916 109.458L36.1987 97.0425H42.8988L41.0464 107.526C40.9676 107.999 40.9282 108.472 40.9282 108.945C40.9282 110.206 41.6376 110.837 43.0565 110.837C44.2388 110.837 45.1847 110.43 45.8942 109.615L48.1407 97.0425H54.8408L52.6337 109.458C52.6074 109.615 52.5943 109.773 52.5943 109.93ZM76.9605 101.063C76.9605 101.956 76.8029 102.823 76.4876 103.664C76.1985 104.505 75.9095 105.122 75.6205 105.516L75.187 106.068H69.2357C69.8925 105.464 70.221 104.715 70.221 103.822C70.221 103.349 70.0633 102.968 69.748 102.679C69.459 102.363 69.0517 102.206 68.5262 102.206C67.6329 102.206 66.8578 102.652 66.2009 103.546L63.9938 116H57.2936L60.6437 97.0425H66.8709L66.398 99.6832C67.8956 97.5549 69.7086 96.4908 71.8369 96.4908C73.5448 96.4908 74.8191 96.898 75.6599 97.7126C76.527 98.5271 76.9605 99.6438 76.9605 101.063ZM95.235 116.709C95.235 120.546 94.2497 123.685 92.2791 126.129C90.3347 128.599 87.6809 129.834 84.3177 129.834C80.9808 129.834 78.7606 129.006 77.657 127.351C76.9739 126.3 76.6323 125.012 76.6323 123.488C76.6323 121.991 76.7637 120.493 77.0264 118.995L82.0712 90.4606H88.7714L87.589 97.0425H97.4027L96.4174 102.6H88.6925C90.5581 104.097 92.1083 106.042 93.3432 108.433C94.6044 110.824 95.235 113.583 95.235 116.709ZM85.3425 124.198C86.157 124.198 86.8533 123.541 87.4313 122.227C88.0094 120.913 88.2984 119.179 88.2984 117.025C88.2984 114.896 88.0751 112.742 87.6284 110.561C87.208 108.38 86.6956 106.672 86.0913 105.437L83.7265 118.956C83.5689 119.876 83.4901 120.677 83.4901 121.36C83.4901 123.252 84.1075 124.198 85.3425 124.198ZM106.489 116.552C101.024 116.552 98.2917 114.66 98.2917 110.876C98.2917 110.351 98.3442 109.786 98.4493 109.182L99.277 104.294C99.7236 101.772 100.88 99.8408 102.745 98.5008C104.637 97.1345 107.133 96.4514 110.234 96.4514C115.515 96.4514 118.156 98.4483 118.156 102.442C118.156 103.02 118.103 103.651 117.998 104.334L117.525 107.132H105.504L105.347 108.039C105.294 108.354 105.268 108.643 105.268 108.906C105.268 110.351 106.122 111.073 107.83 111.073C108.46 111.073 108.999 110.876 109.445 110.482C109.892 110.088 110.155 109.628 110.234 109.103L116.776 109.182C115.909 114.095 112.48 116.552 106.489 116.552ZM111.219 104.728C111.324 104.281 111.377 103.874 111.377 103.506C111.377 103.112 111.206 102.718 110.864 102.324C110.523 101.93 109.971 101.733 109.209 101.733C108.473 101.733 107.79 101.982 107.159 102.481C106.555 102.981 106.135 103.73 105.898 104.728H111.219ZM128.236 116.552C122.77 116.552 120.038 114.66 120.038 110.876C120.038 110.351 120.09 109.786 120.196 109.182L121.023 104.294C121.444 101.772 122.587 99.8408 124.452 98.5008C126.344 97.1608 128.735 96.4776 131.625 96.4514C137.222 96.4514 140.02 98.3957 140.02 102.284C140.02 103.125 139.915 103.887 139.705 104.57C139.521 105.227 139.324 105.674 139.114 105.91L138.798 106.305H132.098C132.755 105.726 133.083 105.043 133.083 104.255C133.083 102.836 132.374 102.127 130.955 102.127C130.114 102.127 129.392 102.376 128.787 102.876C128.183 103.375 127.789 104.137 127.605 105.162L127.093 108.039C127.04 108.301 127.014 108.551 127.014 108.787C127.014 110.18 127.881 110.876 129.615 110.876C130.193 110.876 130.706 110.692 131.152 110.325C131.625 109.957 131.901 109.549 131.98 109.103L138.522 109.182C137.655 114.095 134.226 116.552 128.236 116.552ZM150.378 116.552C147.33 116.552 145.136 115.869 143.796 114.502C142.797 113.504 142.298 112.164 142.298 110.482C142.298 109.93 142.351 109.339 142.456 108.709L145.136 93.456L152.348 90.4606L151.206 97.0425H162.083L161.098 102.6H150.22L149.432 107.053C149.327 107.553 149.274 107.999 149.274 108.393C149.274 110.049 150.063 110.876 151.639 110.876C152.48 110.876 153.176 110.522 153.728 109.812C154.306 109.103 154.7 108.157 154.91 106.975H161.453C160.349 113.359 156.658 116.552 150.378 116.552Z" fill="#474350"/>
        </g>
        <g id="logo">
            <g id="CatDog">
                <path d="M83.2322 34.0334L79.7673 28.2819L80.3739 26.6713L84.158 13.1389H87.4793L89.63 25.2723H91.9713L100.22 12.1978L103.732 13.1389L105.202 29.5202L112.008 32.3183C112.964 38.0739 118.343 38.7948 123.092 39.4313C125.374 39.7372 127.511 40.0235 128.941 40.8396V54.3974C126.346 57.7298 125.039 59.7816 122.925 63.7073C120.987 64.237 118.56 64.2384 116.053 64.2398C111.288 64.2425 106.234 64.2454 103.705 67.8789C103.705 67.8789 101.528 73.1438 98.3689 73.8084C96.6135 74.1777 93.7953 73.2862 93.7953 73.2862C93.7953 73.2862 90.8222 65.7451 90.4142 61.2989C90.4064 61.2146 90.399 61.128 90.3918 61.0393C95.6923 56.1491 105.094 46.0386 100.531 39.397C100.323 39.0949 100.121 38.7931 99.9206 38.4947C98.1245 35.8185 96.5127 33.4169 93.0916 33.4638C89.7713 33.5094 88.2387 38.1319 87.572 41.3691L83.2322 34.0334Z" fill="#CC7F3B"/>
                <path d="M80.8674 36.03L78.3319 31.7441L72.7122 22.4158L70.1239 21.6094L70.4037 30.5453L63.9446 21.6094L62.1958 22.4158L58.6048 30.5453C59.3265 33.5162 59.6774 34.1851 59.6774 34.1851L53.8479 36.5825C51.0064 40 49.2753 41.7294 45.5 43.8839V48.2211C47.7234 51.0764 48.8428 52.8344 50.6533 56.198C55.4688 57.5148 57.6541 59.424 60.9599 64.175L67.7221 73.8084C72.8252 75.7019 75.7044 76.201 80.8969 75.3123C84.6203 74.4257 86.3357 73.4328 88.895 70.9968C88.895 70.9968 87.4406 67.308 86.4267 63.5691C82.8169 61.8427 66.1027 53.3132 68.491 44.4627C69.7606 39.7577 71.429 35.2712 76.5232 34.6113C78.062 34.4119 79.5351 35.025 80.8674 36.03Z" fill="#CC7F3B"/>
            </g>
            <path id="heart" d="M78.1642 37.8145C82.819 37.2118 87.5176 46.7709 87.5176 46.7709C87.5176 46.7709 89.5583 36.6941 93.6989 36.6374C96.7776 36.5951 98.6291 38.6581 99.3923 41.2947C101.577 48.8437 86.9431 61.0756 86.9431 61.0756C86.9431 61.0756 69.707 53.3802 71.8728 45.3589C72.9008 41.5517 74.0397 38.3485 78.1642 37.8145Z" fill="#9590A8"/>
        </g>
    </g>
</svg>
