<svg width="84" height="64" viewBox="0 0 84 64" fill="none" xmlns="http://www.w3.org/2000/svg">
<g id="FurfectLogo">
<g id="CatDog">
<path d="M37.7322 22.0334L34.2673 16.2819L34.8739 14.6713L38.658 1.13892H41.9793L44.13 13.2723H46.4713L54.7201 0.197754L58.232 1.13892L59.7021 17.5202L66.5081 20.3183C67.4643 26.0739 72.8432 26.7948 77.5923 27.4313C79.8743 27.7372 82.0108 28.0235 83.4414 28.8396V42.3974C80.8455 45.7298 79.5387 47.7816 77.4249 51.7073C75.487 52.237 73.06 52.2384 70.5533 52.2398C65.7877 52.2425 60.734 52.2454 58.2048 55.8789C58.2048 55.8789 56.0277 61.1438 52.8689 61.8084C51.1135 62.1777 48.2953 61.2862 48.2953 61.2862C48.2953 61.2862 45.3222 53.7451 44.9142 49.2989C44.9064 49.2146 44.899 49.128 44.8918 49.0393C50.1923 44.1491 59.5937 34.0386 55.031 27.397C54.8234 27.0949 54.6209 26.7931 54.4206 26.4947C52.6245 23.8185 51.0127 21.4169 47.5916 21.4638C44.2713 21.5094 42.7387 26.1319 42.072 29.3691L37.7322 22.0334Z" fill="#CC7F3B"/>
<path d="M35.3674 24.03L32.8319 19.7441L27.2122 10.4158L24.6239 9.60937L24.9037 18.5453L18.4446 9.60937L16.6958 10.4158L13.1048 18.5453C13.8265 21.5162 14.1774 22.1851 14.1774 22.1851L8.34788 24.5825C5.50641 28 3.77531 29.7294 0 31.8839V36.2211C2.22342 39.0764 3.34279 40.8344 5.1533 44.198C9.96876 45.5148 12.1541 47.424 15.4599 52.175L22.2221 61.8084C27.3252 63.7019 30.2044 64.201 35.3969 63.3123C39.1203 62.4257 40.8357 61.4328 43.395 58.9968C43.395 58.9968 41.9406 55.308 40.9267 51.5691C37.3169 49.8427 20.6027 41.3132 22.991 32.4627C24.2606 27.7577 25.929 23.2712 31.0232 22.6113C32.562 22.4119 34.0351 23.025 35.3674 24.03Z" fill="#CC7F3B"/>
</g>
<path id="heart" d="M32.6642 25.8145C37.319 25.2118 42.0176 34.7709 42.0176 34.7709C42.0176 34.7709 44.0583 24.6941 48.1989 24.6374C51.2776 24.5951 53.1291 26.6581 53.8923 29.2947C56.0775 36.8437 41.4431 49.0756 41.4431 49.0756C41.4431 49.0756 24.207 41.3802 26.3728 33.3589C27.4008 29.5517 28.5397 26.3485 32.6642 25.8145Z" fill="#9590A8"/>
</g>
</svg>
