<svg width="133" height="65" viewBox="0 0 133 65" fill="none" xmlns="http://www.w3.org/2000/svg">
<g id="Frame 6">
<path id="furpet" d="M19.5035 28.7094C19.5035 32.5456 18.5182 35.6855 16.5476 38.129C14.6032 40.5989 11.9495 41.8338 8.58625 41.8338C5.24931 41.8338 3.02907 41.0062 1.92552 39.3508C1.24237 38.2998 0.900793 37.0123 0.900793 35.4884C0.900793 33.9907 1.03217 32.493 1.29492 30.9954L6.33973 2.46065H13.0399L11.8575 9.04255H21.6712L20.6859 14.5997H12.961C14.8266 16.0974 16.3768 18.0418 17.6117 20.4328C18.8729 22.8238 19.5035 25.5827 19.5035 28.7094ZM9.61097 36.1978C10.4255 36.1978 11.1218 35.5409 11.6998 34.2272C12.2779 32.9134 12.5669 31.1793 12.5669 29.0247C12.5669 26.8964 12.3436 24.7419 11.8969 22.5611C11.4765 20.3802 10.9641 18.6724 10.3598 17.4374L7.99506 30.9559C7.83741 31.8756 7.75858 32.677 7.75858 33.3601C7.75858 35.2519 8.37605 36.1978 9.61097 36.1978ZM41.7935 21.9305C41.7935 22.6136 42.1351 22.9552 42.8182 22.9552C43.5277 22.9552 44.1188 22.8238 44.5918 22.5611L44.3947 27.0147C43.1335 28.0394 41.7147 28.5518 40.1382 28.5518C37.1691 28.5518 35.5532 27.4088 35.2904 25.1229C33.7139 27.4088 31.5856 28.5518 28.9056 28.5518C26.2518 28.5518 24.5308 27.9474 23.7425 26.7388C23.217 25.9768 22.9543 25.1097 22.9543 24.1376C22.9543 23.1654 23.0331 22.272 23.1908 21.4575L25.3979 9.04255H32.098L30.2456 19.5263C30.1668 19.9992 30.1274 20.4722 30.1274 20.9451C30.1274 22.2064 30.8368 22.837 32.2557 22.837C33.438 22.837 34.3839 22.4297 35.0934 21.6152L37.3399 9.04255H44.04L41.8329 21.4575C41.8066 21.6152 41.7935 21.7728 41.7935 21.9305ZM66.1597 13.0626C66.1597 13.956 66.0021 14.8231 65.6868 15.6639C65.3977 16.5047 65.1087 17.1221 64.8197 17.5163L64.3861 18.068H58.4348C59.0917 17.4637 59.4202 16.7149 59.4202 15.8215C59.4202 15.3486 59.2625 14.9676 58.9472 14.6785C58.6582 14.3632 58.2509 14.2056 57.7254 14.2056C56.8321 14.2056 56.057 14.6523 55.4001 15.5456L53.193 28H46.4928L49.8429 9.04255H56.0701L55.5971 11.6832C57.0948 9.55491 58.9078 8.49077 61.0361 8.49077C62.744 8.49077 64.0183 8.89804 64.8591 9.71256C65.7262 10.5271 66.1597 11.6438 66.1597 13.0626ZM80.9659 8.53019C83.646 8.53019 85.4983 9.23961 86.5231 10.6585C87.2588 11.6306 87.6266 12.8656 87.6266 14.3632C87.6266 14.9676 87.5609 15.6113 87.4296 16.2945L86.6413 20.9057C86.1946 23.4019 85.2356 25.3068 83.7642 26.6206C82.2928 27.908 80.4535 28.5518 78.2464 28.5518C76.0393 28.5518 74.5022 27.9606 73.6352 26.7782L71.5069 38.9567H64.8067L70.088 9.04255H76.1576L75.9605 10.1067C77.1954 9.05569 78.8639 8.53019 80.9659 8.53019ZM76.867 22.8764C77.6027 22.8764 78.2858 22.6399 78.9164 22.1669C79.5471 21.694 79.9412 20.9846 80.0988 20.0387L80.6112 17.0827C80.6637 16.82 80.69 16.4915 80.69 16.0974C80.69 15.7033 80.5192 15.2829 80.1777 14.8362C79.8361 14.3895 79.2449 14.1662 78.4041 14.1662C77.0378 14.1662 76.1444 14.4946 75.724 15.1515L74.5417 21.7728C74.9095 22.5085 75.6846 22.8764 76.867 22.8764ZM97.9595 28.5518C92.4943 28.5518 89.7617 26.66 89.7617 22.8764C89.7617 22.3509 89.8142 21.7859 89.9193 21.1816L90.747 16.2945C91.1937 13.7721 92.3498 11.8408 94.2153 10.5008C96.1071 9.13451 98.6032 8.45136 101.704 8.45136C106.985 8.45136 109.626 10.4483 109.626 14.4421C109.626 15.0201 109.573 15.6507 109.468 16.3339L108.995 19.1322H96.9742L96.8165 20.0387C96.764 20.354 96.7377 20.643 96.7377 20.9057C96.7377 22.3509 97.5916 23.0734 99.2995 23.0734C99.9301 23.0734 100.469 22.8764 100.915 22.4822C101.362 22.0881 101.625 21.6283 101.704 21.1028L108.246 21.1816C107.379 26.0951 103.95 28.5518 97.9595 28.5518ZM102.689 16.728C102.794 16.2813 102.847 15.8741 102.847 15.5062C102.847 15.1121 102.676 14.718 102.334 14.3238C101.993 13.9297 101.441 13.7326 100.679 13.7326C99.9433 13.7326 99.2601 13.9823 98.6295 14.4815C98.0252 14.9807 97.6048 15.7296 97.3683 16.728H102.689ZM120.179 28.5518C117.131 28.5518 114.937 27.8686 113.597 26.5023C112.598 25.5039 112.099 24.1638 112.099 22.4822C112.099 21.9305 112.152 21.3393 112.257 20.7087L114.937 5.456L122.149 2.46065L121.006 9.04255H131.884L130.899 14.5997H120.021L119.233 19.0533C119.128 19.5526 119.075 19.9992 119.075 20.3934C119.075 22.0487 119.863 22.8764 121.44 22.8764C122.281 22.8764 122.977 22.5217 123.529 21.8122C124.107 21.1028 124.501 20.1569 124.711 18.9745H131.254C130.15 25.3594 126.458 28.5518 120.179 28.5518Z" fill="#474350"/>
<path id="Health &#38; Care" d="M2.5765 59.3955L2.85239 55.4937V51.3553L2.5765 47.4732H4.78361L4.50772 51.375V52.4392H10.5773V51.3553L10.3014 47.4732H12.5085L12.2326 51.375V55.5134L12.5085 59.3955H10.3014L10.5773 55.4937V53.8186H4.50772V55.5134L4.78361 59.3955H2.5765ZM19.0916 59.6911C17.9092 59.6911 16.9436 59.297 16.1948 58.5087C15.4459 57.7205 15.0715 56.6366 15.0715 55.2572C15.0715 53.8646 15.4525 52.7151 16.2145 51.8086C16.9765 50.9021 17.9027 50.4489 18.9931 50.4489C20.0966 50.4489 20.9243 50.7182 21.4761 51.2568C22.0278 51.7954 22.3037 52.5509 22.3037 53.523C22.3037 53.8777 22.2709 54.3047 22.2052 54.8039L16.8845 54.9813C16.8845 56.098 17.075 56.9651 17.456 57.5825C17.8501 58.1869 18.4019 58.489 19.1113 58.489C20.0441 58.489 20.9046 58.154 21.6928 57.484L22.2249 58.9423C21.3316 59.4415 20.2871 59.6911 19.0916 59.6911ZM16.9239 53.9566L20.5105 53.7989C20.4973 52.9975 20.3659 52.4392 20.1163 52.1239C19.8667 51.8086 19.4595 51.6509 18.8945 51.6509C18.3296 51.6509 17.8895 51.7101 17.5742 51.8283C17.2458 52.183 17.029 52.8924 16.9239 53.9566ZM26.6942 59.6911C25.8534 59.6911 25.2031 59.4678 24.7433 59.0211C24.2966 58.5613 24.0733 57.9372 24.0733 57.149C24.0733 56.3607 24.3952 55.7761 25.0389 55.3951C25.6826 55.0141 27.0358 54.6332 29.0984 54.2522C29.0984 53.2537 28.9867 52.564 28.7634 52.183C28.5401 51.802 28.1394 51.6115 27.5613 51.6115C27.246 51.6115 26.9964 51.6247 26.8125 51.6509L25.1571 53.1092L24.2704 51.6312C25.2819 50.8298 26.4118 50.4291 27.6598 50.4291C29.7224 50.4291 30.7537 51.467 30.7537 53.5427V57.1884L31.1084 59.4152L29.2758 59.6911L29.1969 58.7058C28.3824 59.3627 27.5482 59.6911 26.6942 59.6911ZM25.7483 57.0702C25.7483 57.5037 25.8797 57.8453 26.1425 58.0949C26.4183 58.3445 26.8387 58.4693 27.4037 58.4693C27.9817 58.4693 28.5466 58.2657 29.0984 57.8584V55.3754C27.8372 55.5593 26.7665 55.8418 25.8863 56.2228C25.7943 56.5775 25.7483 56.86 25.7483 57.0702ZM33.5343 59.3955L33.8102 55.4937V48.222L33.5146 46.1923L35.6429 45.9952L35.4261 49.8577V55.5134L35.6429 59.3955H33.5343ZM37.5581 51.7889L37.499 51.0203L39.2725 50.4489L39.9228 48.2023H40.7702L40.8885 50.4489H43.3714L43.3123 51.4933L40.8293 51.6706V56.5775C40.8293 57.2738 40.895 57.7599 41.0264 58.0358C41.1709 58.2985 41.4468 58.4299 41.8541 58.4299C42.2745 58.4299 42.7211 58.3642 43.1941 58.2328L43.0167 59.3561C42.5701 59.5794 41.9854 59.6911 41.2629 59.6911C40.5403 59.6911 40.0017 59.494 39.647 59.0999C39.3054 58.7058 39.1346 58.0292 39.1346 57.0702C39.1346 56.7417 39.174 54.9813 39.2528 51.7889H37.5581ZM45.1579 59.3955L45.4338 55.4937V48.222L45.1382 46.1923L47.2665 45.9952L47.0497 49.8577V51.4933C48.1139 50.797 49.1846 50.4489 50.2619 50.4489C51.6413 50.4489 52.331 51.3553 52.331 53.1683V59.3955L50.3998 59.494L50.6757 55.2572V53.1486C50.6757 52.6625 50.5969 52.3209 50.4392 52.1239C50.2816 51.9137 50.0188 51.8086 49.651 51.8086C48.8496 51.8086 47.9825 52.0516 47.0497 52.5377V55.5134L47.2665 59.3955H45.1579ZM65.8066 53.1683L67.6787 53.0895C67.6787 54.758 67.4028 56.1243 66.851 57.1884L67.6196 57.9372L69.334 59.1393V59.3364L66.9496 59.829L65.8263 58.5284C64.9855 59.3035 63.9214 59.6911 62.6339 59.6911C61.3464 59.6911 60.348 59.4284 59.6385 58.9029C58.9422 58.3642 58.5941 57.5563 58.5941 56.479C58.5941 55.7827 58.778 55.2046 59.1459 54.7448C59.5137 54.2719 60.0261 53.8318 60.683 53.4245C60.0392 52.7282 59.632 52.1699 59.4612 51.7495C59.3035 51.3291 59.2247 50.7379 59.2247 49.9759C59.2247 49.2008 59.5531 48.5439 60.21 48.0053C60.8669 47.4535 61.6748 47.1776 62.6339 47.1776C63.6061 47.1776 64.368 47.4141 64.9198 47.887C65.4716 48.3468 65.7475 48.9906 65.7475 49.8183C65.7475 50.6328 65.511 51.3028 65.0381 51.8283C64.5651 52.3538 63.8951 52.8859 63.028 53.4245L65.8854 56.2425C65.9774 55.7827 66.0234 55.3886 66.0234 55.0601L65.8066 53.1683ZM65.0578 57.7402L61.5895 54.3507C60.7355 54.9682 60.3085 55.5791 60.3085 56.1834C60.3085 57.7205 61.1362 58.489 62.7915 58.489C63.7637 58.489 64.5191 58.2394 65.0578 57.7402ZM62.1609 52.5771C62.8047 52.1961 63.2973 51.8086 63.6389 51.4145C63.9805 51.0203 64.1513 50.5277 64.1513 49.9365C64.1513 48.8329 63.6192 48.2812 62.5551 48.2812C62.1609 48.2812 61.7537 48.3403 61.3333 48.4585C61.018 48.8526 60.8603 49.3256 60.8603 49.8774C60.8603 50.4291 60.9654 50.9087 61.1756 51.3159C61.399 51.7101 61.7274 52.1305 62.1609 52.5771ZM80.3891 59.6911C78.6024 59.6911 77.1967 59.1525 76.1719 58.0752C75.1604 56.9979 74.6546 55.5002 74.6546 53.5822C74.6546 51.6641 75.2392 50.1204 76.4084 48.9512C77.5777 47.7688 79.1345 47.1776 81.0788 47.1776C82.0773 47.1776 83.1086 47.3747 84.1727 47.7688L83.5421 49.838L81.1379 48.5373C79.4563 48.5373 78.2871 48.8921 77.6302 49.6015C76.9733 50.3109 76.6449 51.5064 76.6449 53.188C76.6449 54.8565 76.9865 56.144 77.6696 57.0505C78.3659 57.9438 79.2658 58.3905 80.3694 58.3905C81.4729 58.3905 82.5634 57.9438 83.6406 57.0505L84.2712 58.7649C83.0889 59.3824 81.7948 59.6911 80.3891 59.6911ZM88.6613 59.6911C87.8205 59.6911 87.1702 59.4678 86.7103 59.0211C86.2637 58.5613 86.0403 57.9372 86.0403 57.149C86.0403 56.3607 86.3622 55.7761 87.0059 55.3951C87.6497 55.0141 89.0028 54.6332 91.0654 54.2522C91.0654 53.2537 90.9538 52.564 90.7304 52.183C90.5071 51.802 90.1064 51.6115 89.5283 51.6115C89.213 51.6115 88.9634 51.6247 88.7795 51.6509L87.1242 53.1092L86.2374 51.6312C87.249 50.8298 88.3788 50.4291 89.6269 50.4291C91.6895 50.4291 92.7208 51.467 92.7208 53.5427V57.1884L93.0755 59.4152L91.2428 59.6911L91.164 58.7058C90.3494 59.3627 89.5152 59.6911 88.6613 59.6911ZM87.7154 57.0702C87.7154 57.5037 87.8467 57.8453 88.1095 58.0949C88.3854 58.3445 88.8058 58.4693 89.3707 58.4693C89.9487 58.4693 90.5137 58.2657 91.0654 57.8584V55.3754C89.8042 55.5593 88.7335 55.8418 87.8533 56.2228C87.7614 56.5775 87.7154 56.86 87.7154 57.0702ZM95.5014 59.3955L95.7772 55.4937V52.7348L95.4817 50.705L97.472 50.508L97.3932 51.9859C97.853 51.4342 98.2602 51.04 98.615 50.8036C98.9697 50.5671 99.3375 50.4489 99.7185 50.4489C100.113 50.4489 100.5 50.5342 100.881 50.705L100.349 52.3998L98.5755 51.8677C98.0895 52.3012 97.6625 52.853 97.2946 53.523V55.5134L97.5114 59.3955H95.5014ZM105.788 59.6911C104.605 59.6911 103.64 59.297 102.891 58.5087C102.142 57.7205 101.768 56.6366 101.768 55.2572C101.768 53.8646 102.149 52.7151 102.911 51.8086C103.673 50.9021 104.599 50.4489 105.689 50.4489C106.793 50.4489 107.62 50.7182 108.172 51.2568C108.724 51.7954 109 52.5509 109 53.523C109 53.8777 108.967 54.3047 108.901 54.8039L103.581 54.9813C103.581 56.098 103.771 56.9651 104.152 57.5825C104.546 58.1869 105.098 58.489 105.807 58.489C106.74 58.489 107.601 58.154 108.389 57.484L108.921 58.9423C108.028 59.4415 106.983 59.6911 105.788 59.6911ZM103.62 53.9566L107.207 53.7989C107.193 52.9975 107.062 52.4392 106.812 52.1239C106.563 51.8086 106.156 51.6509 105.591 51.6509C105.026 51.6509 104.586 51.7101 104.27 51.8283C103.942 52.183 103.725 52.8924 103.62 53.9566Z" fill="#00B295"/>
</g>
</svg>
