<svg width="133" height="65" viewBox="0 0 133 65" fill="none" xmlns="http://www.w3.org/2000/svg">
<g id="Frame 6">
<path id="furpet" d="M19.5035 28.7094C19.5035 32.5456 18.5182 35.6855 16.5476 38.129C14.6032 40.5989 11.9495 41.8338 8.58625 41.8338C5.24931 41.8338 3.02907 41.0062 1.92552 39.3508C1.24237 38.2998 0.900793 37.0123 0.900793 35.4884C0.900793 33.9907 1.03217 32.493 1.29492 30.9954L6.33973 2.46065H13.0399L11.8575 9.04255H21.6712L20.6859 14.5997H12.961C14.8266 16.0974 16.3768 18.0418 17.6117 20.4328C18.8729 22.8238 19.5035 25.5827 19.5035 28.7094ZM9.61097 36.1978C10.4255 36.1978 11.1218 35.5409 11.6998 34.2272C12.2779 32.9134 12.5669 31.1793 12.5669 29.0247C12.5669 26.8964 12.3436 24.7419 11.8969 22.5611C11.4765 20.3802 10.9641 18.6724 10.3598 17.4374L7.99506 30.9559C7.83741 31.8756 7.75858 32.677 7.75858 33.3601C7.75858 35.2519 8.37605 36.1978 9.61097 36.1978ZM41.7935 21.9305C41.7935 22.6136 42.1351 22.9552 42.8182 22.9552C43.5277 22.9552 44.1188 22.8238 44.5918 22.5611L44.3947 27.0147C43.1335 28.0394 41.7147 28.5518 40.1382 28.5518C37.1691 28.5518 35.5532 27.4088 35.2904 25.1229C33.7139 27.4088 31.5856 28.5518 28.9056 28.5518C26.2518 28.5518 24.5308 27.9474 23.7425 26.7388C23.217 25.9768 22.9543 25.1097 22.9543 24.1376C22.9543 23.1654 23.0331 22.272 23.1908 21.4575L25.3979 9.04255H32.098L30.2456 19.5263C30.1668 19.9992 30.1274 20.4722 30.1274 20.9451C30.1274 22.2064 30.8368 22.837 32.2557 22.837C33.438 22.837 34.3839 22.4297 35.0934 21.6152L37.3399 9.04255H44.04L41.8329 21.4575C41.8066 21.6152 41.7935 21.7728 41.7935 21.9305ZM66.1597 13.0626C66.1597 13.956 66.0021 14.8231 65.6868 15.6639C65.3977 16.5047 65.1087 17.1221 64.8197 17.5163L64.3861 18.068H58.4348C59.0917 17.4637 59.4202 16.7149 59.4202 15.8215C59.4202 15.3486 59.2625 14.9676 58.9472 14.6785C58.6582 14.3632 58.2509 14.2056 57.7254 14.2056C56.8321 14.2056 56.057 14.6523 55.4001 15.5456L53.193 28H46.4928L49.8429 9.04255H56.0701L55.5971 11.6832C57.0948 9.55491 58.9078 8.49077 61.0361 8.49077C62.744 8.49077 64.0183 8.89804 64.8591 9.71256C65.7262 10.5271 66.1597 11.6438 66.1597 13.0626ZM80.9659 8.53019C83.646 8.53019 85.4983 9.23961 86.5231 10.6585C87.2588 11.6306 87.6266 12.8656 87.6266 14.3632C87.6266 14.9676 87.5609 15.6113 87.4296 16.2945L86.6413 20.9057C86.1946 23.4019 85.2356 25.3068 83.7642 26.6206C82.2928 27.908 80.4535 28.5518 78.2464 28.5518C76.0393 28.5518 74.5022 27.9606 73.6352 26.7782L71.5069 38.9567H64.8067L70.088 9.04255H76.1576L75.9605 10.1067C77.1954 9.05569 78.8639 8.53019 80.9659 8.53019ZM76.867 22.8764C77.6027 22.8764 78.2858 22.6399 78.9164 22.1669C79.5471 21.694 79.9412 20.9846 80.0988 20.0387L80.6112 17.0827C80.6637 16.82 80.69 16.4915 80.69 16.0974C80.69 15.7033 80.5192 15.2829 80.1777 14.8362C79.8361 14.3895 79.2449 14.1662 78.4041 14.1662C77.0378 14.1662 76.1444 14.4946 75.724 15.1515L74.5417 21.7728C74.9095 22.5085 75.6846 22.8764 76.867 22.8764ZM97.9595 28.5518C92.4943 28.5518 89.7617 26.66 89.7617 22.8764C89.7617 22.3509 89.8142 21.7859 89.9193 21.1816L90.747 16.2945C91.1937 13.7721 92.3498 11.8408 94.2153 10.5008C96.1071 9.13451 98.6032 8.45136 101.704 8.45136C106.985 8.45136 109.626 10.4483 109.626 14.4421C109.626 15.0201 109.573 15.6507 109.468 16.3339L108.995 19.1322H96.9742L96.8165 20.0387C96.764 20.354 96.7377 20.643 96.7377 20.9057C96.7377 22.3509 97.5916 23.0734 99.2995 23.0734C99.9301 23.0734 100.469 22.8764 100.915 22.4822C101.362 22.0881 101.625 21.6283 101.704 21.1028L108.246 21.1816C107.379 26.0951 103.95 28.5518 97.9595 28.5518ZM102.689 16.728C102.794 16.2813 102.847 15.8741 102.847 15.5062C102.847 15.1121 102.676 14.718 102.334 14.3238C101.993 13.9297 101.441 13.7326 100.679 13.7326C99.9433 13.7326 99.2601 13.9823 98.6295 14.4815C98.0252 14.9807 97.6048 15.7296 97.3683 16.728H102.689ZM120.179 28.5518C117.131 28.5518 114.937 27.8686 113.597 26.5023C112.598 25.5039 112.099 24.1638 112.099 22.4822C112.099 21.9305 112.152 21.3393 112.257 20.7087L114.937 5.456L122.149 2.46065L121.006 9.04255H131.884L130.899 14.5997H120.021L119.233 19.0533C119.128 19.5526 119.075 19.9992 119.075 20.3934C119.075 22.0487 119.863 22.8764 121.44 22.8764C122.281 22.8764 122.977 22.5217 123.529 21.8122C124.107 21.1028 124.501 20.1569 124.711 18.9745H131.254C130.15 25.3594 126.458 28.5518 120.179 28.5518Z" fill="#474350"/>
<path id="Health &#38; Care" d="M14.0765 59.3955L14.3524 55.4937V51.3553L14.0765 47.4732H16.2836L16.0077 51.375V52.4392H22.0773V51.3553L21.8014 47.4732H24.0085L23.7326 51.375V55.5134L24.0085 59.3955H21.8014L22.0773 55.4937V53.8186H16.0077V55.5134L16.2836 59.3955H14.0765ZM30.5916 59.6911C29.4092 59.6911 28.4436 59.297 27.6948 58.5087C26.9459 57.7205 26.5715 56.6366 26.5715 55.2572C26.5715 53.8646 26.9525 52.7151 27.7145 51.8086C28.4765 50.9021 29.4027 50.4489 30.4931 50.4489C31.5966 50.4489 32.4243 50.7182 32.9761 51.2568C33.5278 51.7954 33.8037 52.5509 33.8037 53.523C33.8037 53.8777 33.7709 54.3047 33.7052 54.8039L28.3845 54.9813C28.3845 56.098 28.575 56.9651 28.956 57.5825C29.3501 58.1869 29.9019 58.489 30.6113 58.489C31.5441 58.489 32.4046 58.154 33.1928 57.484L33.7249 58.9423C32.8316 59.4415 31.7871 59.6911 30.5916 59.6911ZM28.4239 53.9566L32.0105 53.7989C31.9973 52.9975 31.8659 52.4392 31.6163 52.1239C31.3667 51.8086 30.9595 51.6509 30.3945 51.6509C29.8296 51.6509 29.3895 51.7101 29.0742 51.8283C28.7458 52.183 28.529 52.8924 28.4239 53.9566ZM38.1942 59.6911C37.3534 59.6911 36.7031 59.4678 36.2433 59.0211C35.7966 58.5613 35.5733 57.9372 35.5733 57.149C35.5733 56.3607 35.8952 55.7761 36.5389 55.3951C37.1826 55.0141 38.5358 54.6332 40.5984 54.2522C40.5984 53.2537 40.4867 52.564 40.2634 52.183C40.0401 51.802 39.6394 51.6115 39.0613 51.6115C38.746 51.6115 38.4964 51.6247 38.3125 51.6509L36.6571 53.1092L35.7704 51.6312C36.7819 50.8298 37.9118 50.4291 39.1598 50.4291C41.2224 50.4291 42.2537 51.467 42.2537 53.5427V57.1884L42.6084 59.4152L40.7758 59.6911L40.6969 58.7058C39.8824 59.3627 39.0482 59.6911 38.1942 59.6911ZM37.2483 57.0702C37.2483 57.5037 37.3797 57.8453 37.6425 58.0949C37.9183 58.3445 38.3387 58.4693 38.9037 58.4693C39.4817 58.4693 40.0466 58.2657 40.5984 57.8584V55.3754C39.3372 55.5593 38.2665 55.8418 37.3863 56.2228C37.2943 56.5775 37.2483 56.86 37.2483 57.0702ZM45.0343 59.3955L45.3102 55.4937V48.222L45.0146 46.1923L47.1429 45.9952L46.9261 49.8577V55.5134L47.1429 59.3955H45.0343ZM49.0581 51.7889L48.999 51.0203L50.7725 50.4489L51.4228 48.2023H52.2702L52.3885 50.4489H54.8714L54.8123 51.4933L52.3293 51.6706V56.5775C52.3293 57.2738 52.395 57.7599 52.5264 58.0358C52.6709 58.2985 52.9468 58.4299 53.3541 58.4299C53.7745 58.4299 54.2211 58.3642 54.6941 58.2328L54.5167 59.3561C54.0701 59.5794 53.4854 59.6911 52.7629 59.6911C52.0403 59.6911 51.5017 59.494 51.147 59.0999C50.8054 58.7058 50.6346 58.0292 50.6346 57.0702C50.6346 56.7417 50.674 54.9813 50.7528 51.7889H49.0581ZM56.6579 59.3955L56.9338 55.4937V48.222L56.6382 46.1923L58.7665 45.9952L58.5497 49.8577V51.4933C59.6139 50.797 60.6846 50.4489 61.7619 50.4489C63.1413 50.4489 63.831 51.3553 63.831 53.1683V59.3955L61.8998 59.494L62.1757 55.2572V53.1486C62.1757 52.6625 62.0969 52.3209 61.9392 52.1239C61.7816 51.9137 61.5188 51.8086 61.151 51.8086C60.3496 51.8086 59.4825 52.0516 58.5497 52.5377V55.5134L58.7665 59.3955H56.6579ZM77.3066 53.1683L79.1787 53.0895C79.1787 54.758 78.9028 56.1243 78.351 57.1884L79.1196 57.9372L80.834 59.1393V59.3364L78.4496 59.829L77.3263 58.5284C76.4855 59.3035 75.4214 59.6911 74.1339 59.6911C72.8464 59.6911 71.848 59.4284 71.1385 58.9029C70.4422 58.3642 70.0941 57.5563 70.0941 56.479C70.0941 55.7827 70.278 55.2046 70.6459 54.7448C71.0137 54.2719 71.5261 53.8318 72.183 53.4245C71.5392 52.7282 71.132 52.1699 70.9612 51.7495C70.8035 51.3291 70.7247 50.7379 70.7247 49.9759C70.7247 49.2008 71.0531 48.5439 71.71 48.0053C72.3669 47.4535 73.1748 47.1776 74.1339 47.1776C75.1061 47.1776 75.868 47.4141 76.4198 47.887C76.9716 48.3468 77.2475 48.9906 77.2475 49.8183C77.2475 50.6328 77.011 51.3028 76.5381 51.8283C76.0651 52.3538 75.3951 52.8859 74.528 53.4245L77.3854 56.2425C77.4774 55.7827 77.5234 55.3886 77.5234 55.0601L77.3066 53.1683ZM76.5578 57.7402L73.0895 54.3507C72.2355 54.9682 71.8085 55.5791 71.8085 56.1834C71.8085 57.7205 72.6362 58.489 74.2915 58.489C75.2637 58.489 76.0191 58.2394 76.5578 57.7402ZM73.6609 52.5771C74.3047 52.1961 74.7973 51.8086 75.1389 51.4145C75.4805 51.0203 75.6513 50.5277 75.6513 49.9365C75.6513 48.8329 75.1192 48.2812 74.0551 48.2812C73.6609 48.2812 73.2537 48.3403 72.8333 48.4585C72.518 48.8526 72.3603 49.3256 72.3603 49.8774C72.3603 50.4291 72.4654 50.9087 72.6756 51.3159C72.899 51.7101 73.2274 52.1305 73.6609 52.5771ZM91.8891 59.6911C90.1024 59.6911 88.6967 59.1525 87.6719 58.0752C86.6604 56.9979 86.1546 55.5002 86.1546 53.5822C86.1546 51.6641 86.7392 50.1204 87.9084 48.9512C89.0777 47.7688 90.6345 47.1776 92.5788 47.1776C93.5773 47.1776 94.6086 47.3747 95.6727 47.7688L95.0421 49.838L92.6379 48.5373C90.9563 48.5373 89.7871 48.8921 89.1302 49.6015C88.4733 50.3109 88.1449 51.5064 88.1449 53.188C88.1449 54.8565 88.4865 56.144 89.1696 57.0505C89.8659 57.9438 90.7658 58.3905 91.8694 58.3905C92.9729 58.3905 94.0634 57.9438 95.1406 57.0505L95.7712 58.7649C94.5889 59.3824 93.2948 59.6911 91.8891 59.6911ZM100.161 59.6911C99.3205 59.6911 98.6702 59.4678 98.2103 59.0211C97.7637 58.5613 97.5403 57.9372 97.5403 57.149C97.5403 56.3607 97.8622 55.7761 98.5059 55.3951C99.1497 55.0141 100.503 54.6332 102.565 54.2522C102.565 53.2537 102.454 52.564 102.23 52.183C102.007 51.802 101.606 51.6115 101.028 51.6115C100.713 51.6115 100.463 51.6247 100.28 51.6509L98.6242 53.1092L97.7374 51.6312C98.749 50.8298 99.8788 50.4291 101.127 50.4291C103.189 50.4291 104.221 51.467 104.221 53.5427V57.1884L104.575 59.4152L102.743 59.6911L102.664 58.7058C101.849 59.3627 101.015 59.6911 100.161 59.6911ZM99.2154 57.0702C99.2154 57.5037 99.3467 57.8453 99.6095 58.0949C99.8854 58.3445 100.306 58.4693 100.871 58.4693C101.449 58.4693 102.014 58.2657 102.565 57.8584V55.3754C101.304 55.5593 100.234 55.8418 99.3533 56.2228C99.2614 56.5775 99.2154 56.86 99.2154 57.0702ZM107.001 59.3955L107.277 55.4937V52.7348L106.982 50.705L108.972 50.508L108.893 51.9859C109.353 51.4342 109.76 51.04 110.115 50.8036C110.47 50.5671 110.838 50.4489 111.219 50.4489C111.613 50.4489 112 50.5342 112.381 50.705L111.849 52.3998L110.076 51.8677C109.589 52.3012 109.162 52.853 108.795 53.523V55.5134L109.011 59.3955H107.001ZM117.288 59.6911C116.105 59.6911 115.14 59.297 114.391 58.5087C113.642 57.7205 113.268 56.6366 113.268 55.2572C113.268 53.8646 113.649 52.7151 114.411 51.8086C115.173 50.9021 116.099 50.4489 117.189 50.4489C118.293 50.4489 119.12 50.7182 119.672 51.2568C120.224 51.7954 120.5 52.5509 120.5 53.523C120.5 53.8777 120.467 54.3047 120.401 54.8039L115.081 54.9813C115.081 56.098 115.271 56.9651 115.652 57.5825C116.046 58.1869 116.598 58.489 117.307 58.489C118.24 58.489 119.101 58.154 119.889 57.484L120.421 58.9423C119.528 59.4415 118.483 59.6911 117.288 59.6911ZM115.12 53.9566L118.707 53.7989C118.693 52.9975 118.562 52.4392 118.312 52.1239C118.063 51.8086 117.656 51.6509 117.091 51.6509C116.526 51.6509 116.086 51.7101 115.77 51.8283C115.442 52.183 115.225 52.8924 115.12 53.9566Z" fill="#00B295"/>
</g>
</svg>
