<svg width="87" height="66" viewBox="0 0 87 66" fill="none" xmlns="http://www.w3.org/2000/svg">
<g id="logo__anim">
<g id="orange">
<path fill-rule="evenodd" clip-rule="evenodd" d="M39.4373 22.8356L35.9724 17.0841L36.5789 15.4735L40.3631 1.94116H43.6844L45.8351 14.0745H48.1763L56.4252 1L59.9371 1.94116L61.4072 18.3225L68.2132 21.1205C69.1694 26.8762 74.5483 27.5971 79.2974 28.2336C81.5794 28.5394 83.7159 28.8258 85.1465 29.6418V43.1997C82.5506 46.5321 81.2438 48.5838 79.13 52.5095C77.1921 53.0393 74.7651 53.0406 72.2584 53.042C67.4928 53.0448 62.439 53.0476 59.9099 56.6812C59.9099 56.6812 57.7328 61.9461 54.574 62.6107C52.8185 62.98 50.0004 62.0884 50.0004 62.0884C50.0004 62.0884 47.0273 54.5473 46.6192 50.1012C46.6115 50.0168 46.604 49.9303 46.5969 49.8415C51.8974 44.9514 61.2988 34.8408 56.7361 28.1993C56.5285 27.8971 56.326 27.5953 56.1257 27.2969C54.3296 24.6208 52.7178 22.2191 49.2967 22.2661C45.9764 22.3116 44.4438 26.9341 43.7771 30.1714L39.4373 22.8356ZM37.0725 24.8322L34.537 20.5463L28.9173 11.218L26.329 10.4116L26.6088 19.3476L20.1497 10.4116L18.4008 11.218L14.8098 19.3476C15.5316 22.3184 15.8825 22.9873 15.8825 22.9873L10.053 25.3848C7.21149 28.8023 5.48039 30.5317 1.70508 32.6861V37.0233C3.9285 39.8786 5.04787 41.6366 6.85838 45.0003C11.6738 46.317 13.8592 48.2263 17.165 52.9773L23.9272 62.6107C29.0303 64.5042 31.9095 65.0033 37.1019 64.1145C40.8254 63.228 42.5408 62.2351 45.1 59.7991C45.1 59.7991 43.6457 56.1102 42.6318 52.3714C39.022 50.6449 22.3078 42.1155 24.6961 33.2649C25.9657 28.56 27.6341 24.0735 32.7283 23.4135C34.2671 23.2142 35.7402 23.8273 37.0725 24.8322Z" fill="#CC7F3B"/>
<path d="M35.9724 17.0841L35.297 16.8298L35.1738 17.157L35.3542 17.4566L35.9724 17.0841ZM39.4373 22.8356L40.0584 22.4681L40.0554 22.4632L39.4373 22.8356ZM36.5789 15.4735L37.2543 15.7279L37.2655 15.6983L37.274 15.6679L36.5789 15.4735ZM40.3631 1.94116V1.21947H39.8155L39.668 1.74681L40.3631 1.94116ZM43.6844 1.94116L44.395 1.8152L44.2894 1.21947H43.6844V1.94116ZM45.8351 14.0745L45.1245 14.2005L45.2301 14.7962H45.8351V14.0745ZM48.1763 14.0745V14.7962H48.5743L48.7867 14.4596L48.1763 14.0745ZM56.4252 1L56.612 0.302906L56.0985 0.165289L55.8148 0.614913L56.4252 1ZM59.9371 1.94116L60.6559 1.87666L60.6108 1.37456L60.1239 1.24407L59.9371 1.94116ZM61.4072 18.3225L60.6884 18.387L60.7275 18.8234L61.1328 18.99L61.4072 18.3225ZM68.2132 21.1205L68.9251 21.0022L68.8593 20.6058L68.4876 20.453L68.2132 21.1205ZM79.2974 28.2336L79.3932 27.5183L79.3932 27.5183L79.2974 28.2336ZM85.1465 29.6418H85.8682V29.2227L85.5041 29.015L85.1465 29.6418ZM85.1465 43.1997L85.7158 43.6432L85.8682 43.4476V43.1997H85.1465ZM79.13 52.5095L79.3203 53.2057L79.6187 53.1241L79.7654 52.8517L79.13 52.5095ZM72.2584 53.042L72.2579 52.3204L72.2584 53.042ZM59.9099 56.6812L59.3175 56.2689L59.2728 56.3331L59.2429 56.4054L59.9099 56.6812ZM54.574 62.6107L54.7226 63.3169L54.574 62.6107ZM50.0004 62.0884L49.329 62.3531L49.455 62.6728L49.7827 62.7765L50.0004 62.0884ZM46.6192 50.1012L47.3379 50.0352H47.3379L46.6192 50.1012ZM46.5969 49.8415L46.1075 49.3111L45.8493 49.5494L45.8775 49.8996L46.5969 49.8415ZM56.7361 28.1993L57.331 27.7906L57.331 27.7906L56.7361 28.1993ZM56.1257 27.2969L56.725 26.8948V26.8948L56.1257 27.2969ZM49.2967 22.2661L49.3066 22.9877L49.2967 22.2661ZM43.7771 30.1714L43.156 30.5388L44.1072 32.1466L44.484 30.3169L43.7771 30.1714ZM37.0725 24.8322L36.6379 25.4084L37.6937 24.4647L37.0725 24.8322ZM34.537 20.5463L35.1581 20.1788L35.1551 20.1739L34.537 20.5463ZM28.9173 11.218L29.5355 10.8456L29.3939 10.6106L29.132 10.529L28.9173 11.218ZM26.329 10.4116L26.5437 9.7226L25.5759 9.42109L25.6076 10.4342L26.329 10.4116ZM26.6088 19.3476L26.0239 19.7703L27.4039 21.6795L27.3301 19.325L26.6088 19.3476ZM20.1497 10.4116L20.7346 9.98884L20.3867 9.5076L19.8475 9.75625L20.1497 10.4116ZM18.4008 11.218L18.0986 10.5627L17.8509 10.6769L17.7407 10.9264L18.4008 11.218ZM14.8098 19.3476L14.1497 19.056L14.0507 19.28L14.1086 19.5179L14.8098 19.3476ZM15.8825 22.9873L16.157 23.6548L16.8895 23.3535L16.5216 22.6521L15.8825 22.9873ZM10.053 25.3848L9.77846 24.7173L9.61265 24.7855L9.49802 24.9234L10.053 25.3848ZM1.70508 32.6861L1.34738 32.0593L0.983386 32.267V32.6861H1.70508ZM1.70508 37.0233H0.983386V37.2712L1.13566 37.4667L1.70508 37.0233ZM6.85838 45.0003L6.22289 45.3423L6.36955 45.6148L6.66803 45.6964L6.85838 45.0003ZM17.165 52.9773L16.5726 53.3895L16.5743 53.3919L17.165 52.9773ZM23.9272 62.6107L23.3365 63.0253L23.4656 63.2091L23.6762 63.2873L23.9272 62.6107ZM37.1019 64.1145L37.2237 64.8259L37.2466 64.8219L37.2691 64.8166L37.1019 64.1145ZM45.1 59.7991L45.5976 60.3218L45.9498 59.9867L45.7714 59.5344L45.1 59.7991ZM42.6318 52.3714L43.3283 52.1825L43.2417 51.8631L42.9432 51.7203L42.6318 52.3714ZM24.6961 33.2649L23.9993 33.0769L24.6961 33.2649ZM32.7283 23.4135L32.821 24.1292L32.7283 23.4135ZM35.3542 17.4566L38.8191 23.208L40.0554 22.4632L36.5906 16.7117L35.3542 17.4566ZM35.9036 15.2192L35.297 16.8298L36.6478 17.3385L37.2543 15.7279L35.9036 15.2192ZM39.668 1.74681L35.8839 15.2792L37.274 15.6679L41.0581 2.13552L39.668 1.74681ZM43.6844 1.21947H40.3631V2.66285H43.6844V1.21947ZM46.5457 13.9486L44.395 1.8152L42.9738 2.06712L45.1245 14.2005L46.5457 13.9486ZM48.1763 13.3528H45.8351V14.7962H48.1763V13.3528ZM55.8148 0.614913L47.566 13.6894L48.7867 14.4596L57.0356 1.38509L55.8148 0.614913ZM60.1239 1.24407L56.612 0.302906L56.2384 1.69709L59.7503 2.63826L60.1239 1.24407ZM62.126 18.258L60.6559 1.87666L59.2183 2.00567L60.6884 18.387L62.126 18.258ZM68.4876 20.453L61.6816 17.655L61.1328 18.99L67.9388 21.788L68.4876 20.453ZM79.3932 27.5183C76.991 27.1963 74.5794 26.8665 72.643 25.9451C70.7665 25.0521 69.3591 23.6146 68.9251 21.0022L67.5012 21.2388C68.0234 24.3821 69.7836 26.1829 72.0228 27.2484C74.2022 28.2854 76.8547 28.6343 79.2015 28.9489L79.3932 27.5183ZM85.5041 29.015C84.6942 28.5529 83.7184 28.2584 82.691 28.0404C81.6609 27.8218 80.5277 27.6703 79.3932 27.5183L79.2015 28.9489C80.349 29.1027 81.4251 29.2473 82.3914 29.4523C83.3604 29.658 84.1682 29.9147 84.7889 30.2687L85.5041 29.015ZM85.8682 43.1997V29.6418H84.4248V43.1997H85.8682ZM79.7654 52.8517C81.8625 48.9569 83.1478 46.9398 85.7158 43.6432L84.5771 42.7562C81.9534 46.1244 80.625 48.2108 78.4945 52.1674L79.7654 52.8517ZM72.2588 53.7637C74.7345 53.7623 77.2694 53.7663 79.3203 53.2057L78.9397 51.8134C77.1147 52.3122 74.7957 52.3189 72.2579 52.3204L72.2588 53.7637ZM60.5022 57.0935C61.624 55.4819 63.3214 54.64 65.3933 54.2064C67.4819 53.7693 69.8582 53.7651 72.2588 53.7637L72.2579 52.3204C69.8929 52.3217 67.3596 52.3203 65.0976 52.7937C62.8189 53.2705 60.7249 54.2469 59.3175 56.2689L60.5022 57.0935ZM54.7226 63.3169C55.681 63.1152 56.5213 62.5757 57.2248 61.9388C57.9312 61.2991 58.5366 60.5277 59.0257 59.7989C59.5166 59.0675 59.9023 58.3609 60.1651 57.8385C60.2968 57.5766 60.3984 57.3593 60.4677 57.2061C60.5024 57.1295 60.529 57.0688 60.5472 57.0265C60.5564 57.0053 60.5634 56.9888 60.5684 56.9771C60.5708 56.9712 60.5728 56.9666 60.5742 56.9632C60.5749 56.9616 60.5755 56.9602 60.5759 56.9591C60.5761 56.9586 60.5763 56.9582 60.5764 56.9578C60.5765 56.9576 60.5766 56.9574 60.5766 56.9573C60.5767 56.9571 60.5768 56.957 59.9099 56.6812C59.2429 56.4054 59.243 56.4053 59.243 56.4052C59.2431 56.4051 59.2431 56.4051 59.2431 56.405C59.2431 56.405 59.2431 56.405 59.2431 56.4051C59.243 56.4054 59.2427 56.4059 59.2424 56.4068C59.2417 56.4085 59.2404 56.4114 59.2387 56.4155C59.2352 56.4238 59.2296 56.4369 59.2221 56.4544C59.2069 56.4896 59.1836 56.5427 59.1526 56.6113C59.0905 56.7487 58.9973 56.9479 58.8756 57.1899C58.6315 57.6754 58.2755 58.3266 57.8272 58.9945C57.3773 59.665 56.8461 60.3344 56.2559 60.8688C55.6628 61.4059 55.0463 61.7738 54.4254 61.9044L54.7226 63.3169ZM50.0004 62.0884C49.7827 62.7765 49.7828 62.7765 49.7829 62.7766C49.783 62.7766 49.7831 62.7766 49.7832 62.7767C49.7834 62.7767 49.7837 62.7768 49.784 62.7769C49.7846 62.7771 49.7854 62.7773 49.7863 62.7776C49.7882 62.7782 49.7908 62.7791 49.7941 62.7801C49.8006 62.7821 49.8098 62.7849 49.8215 62.7885C49.8449 62.7957 49.8785 62.8058 49.9214 62.8184C50.007 62.8436 50.1298 62.8786 50.2821 62.9192C50.586 63.0003 51.0104 63.1045 51.4933 63.1969C52.4307 63.3762 53.6951 63.5331 54.7226 63.3169L54.4254 61.9044C53.6974 62.0576 52.675 61.9534 51.7645 61.7792C51.3234 61.6948 50.9335 61.5992 50.6542 61.5247C50.5148 61.4875 50.4037 61.4557 50.3284 61.4336C50.2908 61.4225 50.2621 61.4139 50.2434 61.4082C50.234 61.4053 50.2272 61.4032 50.2229 61.4018C50.2208 61.4012 50.2193 61.4007 50.2185 61.4005C50.2181 61.4003 50.2178 61.4003 50.2177 61.4002C50.2177 61.4002 50.2177 61.4002 50.2178 61.4002C50.2178 61.4003 50.2179 61.4003 50.2179 61.4003C50.2179 61.4003 50.218 61.4003 50.0004 62.0884ZM45.9006 50.1671C46.1126 52.4778 46.9815 55.5419 47.7765 57.9854C48.1771 59.2165 48.5646 60.3068 48.852 61.0894C48.9957 61.4809 49.1146 61.7958 49.1976 62.0132C49.2392 62.122 49.2718 62.2064 49.2941 62.2639C49.3053 62.2927 49.3139 62.3147 49.3198 62.3297C49.3227 62.3372 49.3249 62.3429 49.3265 62.3468C49.3272 62.3488 49.3278 62.3503 49.3283 62.3513C49.3285 62.3518 49.3286 62.3523 49.3287 62.3526C49.3288 62.3527 49.3289 62.3528 49.3289 62.3529C49.3289 62.353 49.329 62.3531 50.0004 62.0884C50.6718 61.8237 50.6718 61.8237 50.6718 61.8237C50.6717 61.8237 50.6717 61.8237 50.6717 61.8236C50.6716 61.8234 50.6715 61.8231 50.6714 61.8227C50.6711 61.822 50.6706 61.8207 50.6699 61.819C50.6686 61.8157 50.6666 61.8105 50.6639 61.8036C50.6584 61.7898 50.6503 61.7689 50.6396 61.7413C50.6182 61.6862 50.5865 61.6043 50.546 61.4981C50.4649 61.2859 50.3483 60.9769 50.2069 60.5919C49.9241 59.8216 49.5428 58.7488 49.1491 57.5388C48.3556 55.1003 47.5339 52.1707 47.3379 50.0352L45.9006 50.1671ZM45.8775 49.8996C45.8849 49.9908 45.8926 50.08 45.9006 50.1671L47.3379 50.0352C47.3304 49.9537 47.3232 49.8697 47.3162 49.7835L45.8775 49.8996ZM56.1413 28.6079C58.1569 31.5419 57.1726 35.3633 54.7506 39.2989C52.3604 43.183 48.7429 46.8798 46.1075 49.3111L47.0863 50.372C49.7514 47.9132 53.4849 44.1096 55.9798 40.0554C58.443 36.0529 59.878 31.4982 57.331 27.7906L56.1413 28.6079ZM55.5265 27.6991C55.7264 27.997 55.9311 28.302 56.1413 28.6079L57.331 27.7906C57.1259 27.4922 56.9256 27.1936 56.725 26.8948L55.5265 27.6991ZM49.3066 22.9877C52.282 22.9469 53.69 24.9628 55.5265 27.6991L56.725 26.8948C54.9692 24.2787 53.1535 21.4914 49.2868 21.5444L49.3066 22.9877ZM44.484 30.3169C44.812 28.7243 45.3436 26.8451 46.1707 25.3759C47.0063 23.8914 48.0332 23.0052 49.3066 22.9877L49.2868 21.5444C47.2398 21.5725 45.8403 23.0203 44.9129 24.6678C43.9769 26.3305 43.4089 28.3812 43.0703 30.0258L44.484 30.3169ZM38.8161 23.2031L43.156 30.5388L44.3983 29.8039L40.0584 22.4681L38.8161 23.2031ZM37.6937 24.4647L35.1581 20.1788L33.9158 20.9138L36.4514 25.1997L37.6937 24.4647ZM35.1551 20.1739L29.5355 10.8456L28.2991 11.5904L33.9188 20.9187L35.1551 20.1739ZM29.132 10.529L26.5437 9.7226L26.1143 11.1006L28.7026 11.9071L29.132 10.529ZM25.6076 10.4342L25.8875 19.3702L27.3301 19.325L27.0503 10.389L25.6076 10.4342ZM27.1937 18.9248L20.7346 9.98884L19.5648 10.8344L26.0239 19.7703L27.1937 18.9248ZM19.8475 9.75625L18.0986 10.5627L18.703 11.8734L20.4519 11.067L19.8475 9.75625ZM17.7407 10.9264L14.1497 19.056L15.47 19.6392L19.061 11.5096L17.7407 10.9264ZM14.1086 19.5179C14.4725 21.0162 14.7458 21.9458 14.9316 22.5079C15.0245 22.7893 15.0963 22.9808 15.1474 23.1072C15.173 23.1705 15.1937 23.218 15.2095 23.2526C15.2175 23.27 15.2242 23.2842 15.2298 23.2957C15.2327 23.3015 15.2352 23.3066 15.2374 23.311C15.2386 23.3133 15.2396 23.3153 15.2406 23.3173C15.2411 23.3182 15.2416 23.3191 15.242 23.32C15.2423 23.3205 15.2425 23.3209 15.2427 23.3213C15.2428 23.3215 15.243 23.3219 15.2431 23.322C15.2432 23.3223 15.2434 23.3226 15.8825 22.9873C16.5216 22.6521 16.5217 22.6524 16.5219 22.6527C16.5219 22.6528 16.5221 22.6531 16.5222 22.6533C16.5224 22.6537 16.5226 22.654 16.5228 22.6544C16.5232 22.6551 16.5235 22.6558 16.5238 22.6564C16.5245 22.6577 16.525 22.6588 16.5255 22.6596C16.5263 22.6614 16.5268 22.6623 16.5269 22.6625C16.527 22.6627 16.5255 22.6597 16.5225 22.653C16.5163 22.6394 16.5039 22.6115 16.4853 22.5656C16.4481 22.4737 16.3871 22.3123 16.3021 22.0551C16.1319 21.54 15.8689 20.6497 15.5111 19.1772L14.1086 19.5179ZM15.608 22.3199L9.77846 24.7173L10.3275 26.0522L16.157 23.6548L15.608 22.3199ZM9.49802 24.9234C6.68955 28.3012 5.02228 29.9621 1.34738 32.0593L2.06278 33.3129C5.93849 31.1012 7.73342 29.3034 10.6079 25.8462L9.49802 24.9234ZM0.983386 32.6861V37.0233H2.42677V32.6861H0.983386ZM1.13566 37.4667C3.33121 40.2862 4.42902 42.0096 6.22289 45.3423L7.49386 44.6582C5.66671 41.2637 4.52578 39.471 2.27449 36.5799L1.13566 37.4667ZM6.66803 45.6964C9.01169 46.3373 10.6655 47.1079 12.1299 48.2668C13.6068 49.4357 14.9312 51.0305 16.5726 53.3895L17.7574 52.5651C16.093 50.1731 14.6718 48.4378 13.0257 47.135C11.3671 45.8224 9.52052 44.98 7.04873 44.3042L6.66803 45.6964ZM16.5743 53.3919L23.3365 63.0253L24.5179 62.196L17.7557 52.5626L16.5743 53.3919ZM23.6762 63.2873C26.2454 64.2406 28.3023 64.8614 30.3917 65.1221C32.4886 65.3837 34.5807 65.2783 37.2237 64.8259L36.9802 63.4032C34.4308 63.8395 32.4871 63.9289 30.5704 63.6898C28.6463 63.4497 26.7121 62.8742 24.1783 61.934L23.6762 63.2873ZM37.2691 64.8166C39.1646 64.3652 40.5921 63.8769 41.8837 63.1711C43.1754 62.4652 44.2958 61.5609 45.5976 60.3218L44.6025 59.2763C43.345 60.4733 42.3281 61.2834 41.1915 61.9045C40.0546 62.5258 38.7627 62.9772 36.9348 63.4124L37.2691 64.8166ZM45.1 59.7991C45.7714 59.5344 45.7715 59.5344 45.7715 59.5344C45.7715 59.5344 45.7715 59.5344 45.7714 59.5344C45.7714 59.5343 45.7714 59.5342 45.7713 59.534C45.7712 59.5337 45.7709 59.5331 45.7706 59.5323C45.77 59.5307 45.769 59.5282 45.7677 59.5249C45.7651 59.5182 45.7611 59.508 45.7558 59.4944C45.7452 59.4673 45.7294 59.4267 45.7089 59.3734C45.6678 59.267 45.6077 59.1102 45.5324 58.91C45.3817 58.5097 45.1699 57.9365 44.9267 57.2472C44.4396 55.8668 43.8289 54.0282 43.3283 52.1825L41.9353 52.5603C42.4486 54.4534 43.072 56.3287 43.5656 57.7275C43.8127 58.4277 44.0279 59.0104 44.1815 59.4186C44.2584 59.6227 44.3199 59.7832 44.3623 59.8931C44.3835 59.9481 44.3999 59.9904 44.4112 60.0191C44.4168 60.0335 44.4211 60.0445 44.424 60.0519C44.4255 60.0557 44.4266 60.0586 44.4274 60.0605C44.4278 60.0615 44.4281 60.0623 44.4283 60.0628C44.4284 60.0631 44.4285 60.0633 44.4285 60.0635C44.4286 60.0636 44.4286 60.0636 44.4286 60.0637C44.4286 60.0637 44.4286 60.0638 45.1 59.7991ZM42.9432 51.7203C41.153 50.8641 36.131 48.3282 31.8647 44.9255C29.7298 43.2228 27.8223 41.3327 26.5963 39.3604C25.3739 37.394 24.8649 35.4093 25.3928 33.4529L23.9993 33.0769C23.3331 35.5458 24.0177 37.9463 25.3704 40.1224C26.7194 42.2925 28.7682 44.3021 30.9647 46.0539C35.3608 49.5602 40.5008 52.1522 42.3204 53.0224L42.9432 51.7203ZM25.3928 33.4529C26.0271 31.1025 26.737 28.9098 27.8757 27.2267C28.9902 25.5795 30.5087 24.4288 32.821 24.1292L32.6356 22.6978C29.8537 23.0582 27.9909 24.4807 26.6802 26.4179C25.3938 28.3193 24.6347 30.7224 23.9993 33.0769L25.3928 33.4529ZM32.821 24.1292C34.1005 23.9635 35.3862 24.4642 36.6379 25.4084L37.5071 24.256C36.0942 23.1903 34.4337 22.4649 32.6356 22.6978L32.821 24.1292Z" fill="#474350"/>
</g>
<g id="purple">
<path id="purple_2" d="M43.3993 48.9147C43.2642 49.0339 43.1489 49.1343 43.0561 49.2146C42.9477 49.1636 42.8137 49.0999 42.657 49.024C42.1957 48.8008 41.5378 48.4723 40.7545 48.053C39.186 47.2136 37.1229 46.0143 35.1312 44.571C33.134 43.1236 31.2385 41.4519 29.9784 39.6748C28.7187 37.8981 28.1413 36.0877 28.6217 34.3081C29.1375 32.398 29.6592 30.7355 30.5257 29.4821C31.3668 28.2654 32.5427 27.4217 34.4412 27.1759C35.3982 27.052 36.418 27.4441 37.4583 28.2149C38.4927 28.9814 39.4791 30.0729 40.3419 31.2098C41.2016 32.3425 41.9214 33.4974 42.4273 34.3714C42.6798 34.8077 42.878 35.1724 43.0127 35.4271C43.08 35.5545 43.1314 35.6542 43.1657 35.7216C43.1829 35.7553 43.1958 35.781 43.2042 35.7979L43.2136 35.8166L43.2157 35.821L43.2161 35.8218L43.2162 35.8219L43.2162 35.822L43.9462 37.3072L44.2747 35.6852L44.2748 35.6851L44.2748 35.685L44.275 35.6841L44.2759 35.6795L44.28 35.6597C44.2838 35.6418 44.2895 35.6147 44.2972 35.5791C44.3126 35.5078 44.3359 35.4023 44.3672 35.2674C44.4298 34.9974 44.524 34.6103 44.6499 34.1451C44.9023 33.213 45.28 31.9751 45.7824 30.7401C46.2873 29.4991 46.9057 28.2926 47.6286 27.4023C48.3577 26.5044 49.1203 26.0142 49.9113 26.0034C51.3119 25.9842 52.4073 26.44 53.2435 27.1848C54.0886 27.9375 54.6954 29.0104 55.0553 30.2537C55.5444 31.9432 55.1073 33.967 54.0657 36.1276C53.0302 38.2753 51.4393 40.4706 49.7613 42.4541C48.0862 44.434 46.341 46.1834 45.0128 47.439C44.3492 48.0663 43.791 48.5692 43.3993 48.9147Z" fill="#9590A8" stroke="#474350" stroke-width="1.12764"/>
</g>
</g>
</svg>
