<svg width="63" height="63" viewBox="0 0 63 63" fill="none" xmlns="http://www.w3.org/2000/svg">
    <mask id="path-2-inside-1_816_3853" fill="white">
        <path fill-rule="evenodd" clip-rule="evenodd" d="M11.4236 20.0755C9.80237 21.7335 7.64062 23.5466 7.64062 25.8655V52.5114C7.64062 54.8225 9.7923 56.6203 11.4236 58.2573C13.0568 59.8961 14.8538 62.0473 17.1675 62.0473H41.7976C44.1936 62.0473 46.0392 59.789 47.7143 58.0759C49.7719 55.9718 53.4072 53.6571 53.4072 50.7142V27.2262C53.4072 24.2818 49.7927 21.9888 47.7143 19.9031C46.0837 18.2668 44.289 16.1216 41.9789 16.1216H17.3233C14.9346 16.1216 13.0937 18.3676 11.4236 20.0755Z"/>
    </mask>
    <path fill-rule="evenodd" clip-rule="evenodd" d="M11.4236 20.0755C9.80237 21.7335 7.64062 23.5466 7.64062 25.8655V52.5114C7.64062 54.8225 9.7923 56.6203 11.4236 58.2573C13.0568 59.8961 14.8538 62.0473 17.1675 62.0473H41.7976C44.1936 62.0473 46.0392 59.789 47.7143 58.0759C49.7719 55.9718 53.4072 53.6571 53.4072 50.7142V27.2262C53.4072 24.2818 49.7927 21.9888 47.7143 19.9031C46.0837 18.2668 44.289 16.1216 41.9789 16.1216H17.3233C14.9346 16.1216 13.0937 18.3676 11.4236 20.0755Z" fill="white"/>
    <path d="M11.9313 52.5114V25.8655H3.35V52.5114H11.9313ZM41.7976 57.7567H17.1675V66.338H41.7976V57.7567ZM49.1165 27.2262V50.7142H57.6978V27.2262H49.1165ZM17.3233 20.4122H41.9789V11.831H17.3233V20.4122ZM17.3233 11.831C14.7244 11.831 12.7289 13.0622 11.4217 14.1093C10.1838 15.1008 8.98364 16.4338 8.35591 17.0758L14.4913 23.0753C14.7217 22.8397 14.9536 22.5963 15.161 22.3792C15.3759 22.1543 15.5727 21.9489 15.7682 21.7508C16.1636 21.3501 16.4912 21.0433 16.7863 20.8069C17.4142 20.304 17.5335 20.4122 17.3233 20.4122V11.831ZM50.7535 16.8745C50.1454 16.2642 48.9664 14.9805 47.7551 14.0272C46.4739 13.0187 44.5184 11.831 41.9789 11.831V20.4122C41.7495 20.4122 41.8464 20.297 42.4477 20.7703C42.73 20.9925 43.0456 21.2825 43.4297 21.6644C43.6196 21.8532 43.811 22.0491 44.0207 22.2644C44.2229 22.472 44.4497 22.7056 44.6751 22.9318L50.7535 16.8745ZM57.6978 27.2262C57.6978 23.9818 55.7327 21.6115 54.4232 20.2586C53.7053 19.5169 52.9364 18.8377 52.3119 18.2893C51.634 17.6939 51.148 17.2704 50.7535 16.8745L44.6751 22.9318C45.3198 23.5787 46.0651 24.2239 46.6494 24.7371C47.2872 25.2972 47.8115 25.7663 48.2571 26.2267C49.2745 27.2777 49.1165 27.5261 49.1165 27.2262H57.6978ZM41.7976 66.338C44.4035 66.338 46.4032 65.1006 47.7119 64.0503C48.9503 63.0564 50.155 61.717 50.782 61.0757L44.6466 55.0762C44.415 55.313 44.1823 55.5573 43.9739 55.7757C43.758 56.0019 43.5604 56.2083 43.3639 56.4076C42.9667 56.8107 42.6375 57.1196 42.3407 57.3578C41.7089 57.8649 41.5878 57.7567 41.7976 57.7567V66.338ZM8.38443 61.2859C8.9922 61.8958 10.1735 63.1826 11.385 64.1371C12.6669 65.1472 14.6245 66.338 17.1675 66.338V57.7567C17.3967 57.7567 17.299 57.8719 16.6957 57.3966C16.4125 57.1735 16.0962 56.8826 15.7112 56.4994C15.5208 56.31 15.329 56.1136 15.1188 55.8977C14.9161 55.6895 14.6888 55.4554 14.4628 55.2286L8.38443 61.2859ZM50.782 61.0757C51.1656 60.6835 51.6459 60.2587 52.3188 59.6619C52.9382 59.1125 53.7058 58.4297 54.4213 57.6875C55.7226 56.3376 57.6978 53.9605 57.6978 50.7142H49.1165C49.1165 50.4108 49.2741 50.6625 48.2433 51.7318C47.7929 52.199 47.2658 52.6734 46.6249 53.2418C46.0375 53.7627 45.2918 54.4163 44.6466 55.0762L50.782 61.0757ZM11.9313 25.8655C11.9313 26.0914 11.8186 25.9866 12.3042 25.3655C12.5316 25.0747 12.8261 24.7514 13.2127 24.357C13.4044 24.1615 13.6011 23.966 13.8189 23.7497C14.0292 23.5409 14.2629 23.3089 14.4913 23.0753L8.35591 17.0758C7.77623 17.6686 6.48219 18.88 5.54408 20.0798C4.54348 21.3596 3.35 23.3207 3.35 25.8655H11.9313ZM3.35 52.5114C3.35 55.0537 4.54178 57.0107 5.54821 58.29C6.49715 59.4962 7.78486 60.6843 8.38443 61.2859L14.4628 55.2286C14.2357 55.0007 14.0021 54.7726 13.7935 54.5685C13.5773 54.3569 13.3811 54.1645 13.1913 53.973C12.8077 53.5861 12.5163 53.2687 12.2926 52.9842C11.8153 52.3776 11.9313 52.2802 11.9313 52.5114H3.35Z" fill="black" mask="url(#path-2-inside-1_816_3853)"/>
    <path d="M20.4043 39.6406L42.7333 58.0461H20.4043L20.4043 39.6406Z" fill="black"/>
    <path d="M14.8184 49.6435V33.7721L18.0082 29.9043L41.5334 49.6435L44.0587 46.8427V29.9043" stroke="black" stroke-width="2.86042" stroke-linecap="round" stroke-linejoin="round"/>
    <path d="M36.8848 45.9087L36.8848 34.7053" stroke="black" stroke-width="2.28833"/>
    <path d="M37.5963 1.7203C37.8056 1.20265 38.5566 1.26084 38.6837 1.80456L41.3933 13.3945L28.5215 24.1584L37.5963 1.7203Z" fill="black"/>
    <path d="M37.1841 5.18695C37.324 4.94622 37.6906 5.0274 37.7162 5.30478L38.3859 12.5422L29.8494 17.8083L37.1841 5.18695Z" fill="#990000"/>
    <ellipse cx="42.2919" cy="23.1567" rx="15.0029" ry="15.0727" fill="black"/>
    <path d="M48.3127 2.56087C48.5233 2.04575 49.2709 2.1042 49.399 2.6458L51.6927 12.3491L40.5371 21.5753L48.3127 2.56087Z" fill="black"/>
    <path d="M48.3443 5.18695C48.4842 4.94622 48.8507 5.0274 48.8764 5.30478L49.5461 12.5422L41.0095 17.8083L48.3443 5.18695Z" fill="#990000"/>
    <rect x="30.5879" y="11.5103" width="23.5406" height="23.4312" rx="11.7156" fill="#990000"/>
</svg>