<svg width="467" height="239" viewBox="0 0 467 239" fill="none" xmlns="http://www.w3.org/2000/svg">
<g id="Pet Toy">
<rect x="7.5" y="7.5" width="451.25" height="223.188" rx="111.594" fill="white"/>
<rect x="7.5" y="7.5" width="451.25" height="223.188" rx="111.594" stroke="#5E9260" stroke-width="15"/>
<g id="pet">
<path id="Vector" d="M189.295 148.87L188.976 104.807L182.545 104.87C181.73 104.87 181.022 104.682 180.419 104.307C179.817 103.89 179.303 103.349 178.878 102.682C178.488 101.974 178.187 101.182 177.975 100.307C177.762 99.4321 177.656 98.5155 177.656 97.5571C177.656 95.9321 177.815 94.703 178.134 93.8696C178.488 92.9946 178.984 92.3696 179.622 91.9946C180.26 91.578 181.039 91.3488 181.961 91.3071C182.882 91.2238 183.945 91.1821 185.15 91.1821H188.923V88.8696C188.923 87.328 188.905 86.078 188.87 85.1196C188.87 84.1613 188.87 83.5155 188.87 83.1821C188.87 81.9738 188.764 80.7655 188.551 79.5571C188.374 78.3488 188.285 77.1196 188.285 75.8696C188.285 74.828 188.392 73.9113 188.604 73.1196C188.817 72.328 189.171 71.6613 189.667 71.1196C190.199 70.5363 190.889 70.0988 191.74 69.8071C192.59 69.5155 193.635 69.3696 194.875 69.3696C195.726 69.3696 196.523 69.453 197.267 69.6196C198.047 69.7863 198.72 70.1196 199.287 70.6196C199.889 71.078 200.367 71.7238 200.722 72.5571C201.076 73.3905 201.253 74.4738 201.253 75.8071C201.253 77.5988 201.111 79.3696 200.828 81.1196C200.58 82.8696 200.474 84.6821 200.509 86.5571V91.1196C203.273 91.0363 205.416 90.9738 206.94 90.9321C208.499 90.8905 209.757 90.8488 210.713 90.8071C210.855 90.8071 210.979 90.8071 211.085 90.8071C211.227 90.7655 211.351 90.7446 211.457 90.7446C211.883 90.703 212.361 90.6821 212.892 90.6821C213.424 90.6821 213.849 90.6821 214.168 90.6821C214.841 90.6821 215.497 90.8071 216.134 91.0571C216.772 91.3071 217.321 91.7238 217.782 92.3071C218.278 92.8905 218.668 93.6405 218.951 94.5571C219.235 95.4738 219.376 96.578 219.376 97.8696C219.376 98.8696 219.306 99.8071 219.164 100.682C219.022 101.557 218.756 102.328 218.367 102.995C217.977 103.661 217.41 104.203 216.666 104.62C215.922 104.995 214.965 105.182 213.796 105.182C212.698 105.182 211.581 105.12 210.448 104.995C209.349 104.828 208.215 104.724 207.046 104.682L200.615 104.745C200.615 104.745 199.535 154.349 200.987 154.057C202.44 153.765 203.716 153.495 204.814 153.245C205.912 152.995 206.94 152.745 207.897 152.495C208.853 152.245 209.792 151.953 210.713 151.62C211.635 151.286 212.644 150.87 213.743 150.37C214.345 149.995 215.054 149.62 215.869 149.245C216.684 148.828 217.534 148.62 218.42 148.62C220.156 148.62 221.52 149.328 222.512 150.745C223.504 152.12 224 153.932 224 156.182C224 156.765 223.876 157.411 223.628 158.12C223.416 158.828 223.079 159.536 222.618 160.245C222.158 160.911 221.555 161.536 220.811 162.12C220.103 162.661 219.252 163.057 218.26 163.307C217.197 163.557 215.975 163.87 214.593 164.245C213.211 164.62 211.759 165.015 210.235 165.432C208.711 165.849 207.188 166.265 205.664 166.682C204.141 167.099 202.706 167.453 201.359 167.745C200.013 168.078 198.826 168.349 197.799 168.557C196.771 168.765 195.992 168.849 195.46 168.807C194.822 168.807 194.114 168.703 193.334 168.495C192.59 168.328 191.899 167.995 191.261 167.495C190.624 167.036 190.092 166.39 189.667 165.557C189.277 164.682 189.082 163.578 189.082 162.245L189.295 148.87Z" fill="black"/>
<path id="Vector_2" d="M128.494 138.745C129.168 141.87 130.16 144.495 131.471 146.62C132.817 148.703 134.323 150.39 135.988 151.682C137.653 152.974 139.407 153.911 141.25 154.495C143.128 155.036 144.952 155.307 146.724 155.307C149.488 155.307 151.95 155.036 154.111 154.495C156.273 153.911 158.115 153.224 159.639 152.432C161.198 151.599 162.455 150.745 163.412 149.87C164.369 148.995 165.042 148.224 165.432 147.557C165.786 146.932 166.176 146.349 166.601 145.807C167.062 145.224 167.54 144.724 168.036 144.307C168.567 143.849 169.081 143.495 169.577 143.245C170.109 142.995 170.605 142.87 171.065 142.87C172.837 142.87 174.201 143.495 175.158 144.745C176.15 145.953 176.646 147.599 176.646 149.682C176.646 150.474 176.398 151.474 175.902 152.682C175.406 153.89 174.484 155.224 173.138 156.682C171.65 158.307 169.985 159.849 168.142 161.307C166.335 162.765 164.333 164.057 162.137 165.182C159.94 166.265 157.548 167.12 154.962 167.745C152.411 168.411 149.647 168.745 146.671 168.745C143.163 168.745 139.956 168.182 137.051 167.057C134.146 165.974 131.541 164.495 129.238 162.62C126.935 160.703 124.934 158.495 123.233 155.995C121.532 153.495 120.115 150.828 118.981 147.995C117.847 145.161 116.997 142.245 116.43 139.245C115.863 136.245 115.58 133.328 115.58 130.495C115.58 124.328 116.43 118.765 118.131 113.807C119.831 108.807 122.17 104.536 125.146 100.995C128.122 97.453 131.648 94.7238 135.722 92.8071C139.797 90.8905 144.208 89.9321 148.956 89.9321C152.358 89.9321 155.546 90.5363 158.523 91.7446C161.499 92.9113 164.138 94.578 166.442 96.7446C168.78 98.8696 170.729 101.432 172.288 104.432C173.882 107.39 174.998 110.661 175.636 114.245C176.345 114.953 176.858 115.89 177.177 117.057C177.532 118.182 177.709 119.307 177.709 120.432C177.709 122.307 177.16 123.849 176.061 125.057C174.998 126.224 173.652 127.036 172.022 127.495C168.443 128.578 164.865 129.578 161.286 130.495C157.708 131.411 154.111 132.307 150.497 133.182C146.883 134.057 143.234 134.953 139.549 135.87C135.9 136.786 132.215 137.745 128.494 138.745ZM127.591 127.182C133.614 125.515 139.708 123.953 145.874 122.495C152.039 121.036 158.31 119.411 164.688 117.62C164.085 115.703 163.27 113.89 162.243 112.182C161.215 110.432 160.011 108.911 158.629 107.62C157.247 106.328 155.706 105.307 154.005 104.557C152.34 103.807 150.533 103.432 148.584 103.432C145.572 103.432 142.826 104.015 140.346 105.182C137.901 106.307 135.776 107.911 133.969 109.995C132.162 112.036 130.709 114.536 129.61 117.495C128.512 120.411 127.839 123.64 127.591 127.182Z" fill="black"/>
<path id="Vector_3" d="M45.4783 161.745C45.4783 160.411 45.5492 159.078 45.6909 157.745C45.8681 156.37 45.9744 154.953 46.0098 153.495L45.7972 81.6196C45.5846 81.0363 45.3897 80.2238 45.2126 79.1821C45.0709 78.1405 45 77.1613 45 76.2446C45 75.4113 45.124 74.578 45.372 73.7446C45.6201 72.9113 45.9744 72.1821 46.435 71.5571C46.931 70.8905 47.5334 70.3696 48.242 69.9946C48.9506 69.578 49.7655 69.3696 50.6868 69.3696C52.2457 69.3696 53.8047 69.4738 55.3637 69.6821C56.9227 69.8488 58.5526 69.9321 60.2533 69.9321C61.5997 69.9321 62.9461 69.8488 64.2925 69.6821C65.6743 69.4738 67.127 69.3696 68.6505 69.3696C73.6464 69.3696 78.3056 70.1821 82.6283 71.8071C86.9509 73.4321 90.6889 75.828 93.8423 78.9946C96.9957 82.1196 99.476 85.9738 101.283 90.5571C103.09 95.1405 103.993 100.37 103.993 106.245C103.993 111.828 103.391 116.703 102.186 120.87C100.982 124.995 99.3342 128.536 97.2438 131.495C95.1887 134.453 92.7617 136.89 89.9626 138.807C87.1989 140.682 84.205 142.161 80.9807 143.245C77.7919 144.328 74.479 145.078 71.0422 145.495C67.6053 145.911 64.2039 146.12 60.8379 146.12C60.4836 146.12 60.1824 146.14 59.9344 146.182C59.6864 146.182 59.4561 146.182 59.2435 146.182C59.0309 146.182 58.8006 146.182 58.5526 146.182C58.34 146.14 58.0742 146.12 57.7553 146.12C57.7553 147.578 57.7553 148.745 57.7553 149.62C57.7553 150.453 57.7553 151.14 57.7553 151.682C57.7908 152.224 57.8085 152.682 57.8085 153.057C57.8085 153.432 57.8085 153.87 57.8085 154.37C57.8085 155.703 57.9148 157.036 58.1274 158.37C58.3754 159.703 58.4994 161.12 58.4994 162.62C58.4994 163.745 58.2868 164.703 57.8616 165.495C57.4365 166.245 56.905 166.849 56.2672 167.307C55.6295 167.807 54.9385 168.161 54.1945 168.37C53.4504 168.62 52.7595 168.745 52.1217 168.745C51.2714 168.745 50.4387 168.578 49.6238 168.245C48.8089 167.953 48.1003 167.515 47.4979 166.932C46.8956 166.307 46.3995 165.578 46.0098 164.745C45.6555 163.87 45.4783 162.87 45.4783 161.745ZM57.8085 132.557C58.5171 132.599 59.2435 132.64 59.9875 132.682C60.767 132.724 61.4934 132.765 62.1666 132.807C62.8398 132.849 63.4421 132.89 63.9736 132.932C64.505 132.932 64.9125 132.932 65.196 132.932C69.1289 132.932 72.5126 132.557 75.3471 131.807C78.217 131.057 80.6264 130.036 82.5751 128.745C84.5239 127.453 86.1006 125.953 87.3052 124.245C88.5099 122.495 89.4311 120.62 90.0689 118.62C90.7067 116.578 91.1318 114.474 91.3444 112.307C91.557 110.099 91.6633 107.911 91.6633 105.745C91.6633 102.286 91.2381 99.3071 90.3878 96.8071C89.5728 94.2655 88.4922 92.1405 87.1458 90.4321C85.7994 88.7238 84.2581 87.3488 82.522 86.3071C80.8213 85.2655 79.0674 84.4738 77.2604 83.9321C75.4888 83.3488 73.7527 82.9738 72.052 82.8071C70.3512 82.5988 68.8631 82.4946 67.5876 82.4946C65.9577 82.4946 64.3102 82.5363 62.6449 82.6196C61.015 82.6613 59.2612 82.703 57.3833 82.7446C57.4542 88.203 57.5073 93.0155 57.5428 97.1821C57.5782 101.307 57.5959 104.974 57.5959 108.182C57.6313 111.349 57.6491 114.12 57.6491 116.495C57.6845 118.87 57.7022 120.995 57.7022 122.87C57.7376 124.745 57.7553 126.453 57.7553 127.995C57.7908 129.536 57.8085 131.057 57.8085 132.557Z" fill="black"/>
<path id="Vector 5" d="M56.9048 134.37V80.8696C56.9048 80.8696 68.4073 80.9063 74.7623 82.3696C79.969 83.5685 84.5414 84.7269 87.5176 87.8696C91.3058 91.8696 93.3055 98.6474 93.4701 106.37C93.6464 114.642 92.5933 120.638 87.5176 126.37C83.6018 130.791 80.0571 131.46 74.7623 132.87C68.4465 134.551 56.9048 134.37 56.9048 134.37Z" fill="#8595C1" stroke="black"/>
<path id="Vector 6" d="M167.345 120.864L127.421 126.741C127.421 126.741 127.768 119.998 128.76 115.87C129.69 111.996 129.928 109.42 132.161 106.37C135.42 101.919 138.724 100.398 143.641 99.3696C149.559 98.1323 154.671 99.5731 159.293 102.186C162.859 104.202 163.599 106.393 165.011 109.621C166.696 113.471 167.345 120.864 167.345 120.864Z" fill="#E57B92" stroke="black"/>
</g>
<g id="toy">
<path id="Vector_4" d="M353.5 155.875C353.5 155.208 353.625 154.458 353.875 153.625C354.167 152.792 354.604 152 355.188 151.25C355.812 150.542 356.604 149.938 357.562 149.438C358.521 148.938 359.688 148.688 361.062 148.688C361.688 148.688 362.292 148.812 362.875 149.062C363.458 149.354 364 149.708 364.5 150.125C365 150.583 365.458 151.062 365.875 151.562C366.333 152.062 366.75 152.521 367.125 152.938C368.375 154.479 369.667 155.708 371 156.625C372.333 157.542 373.708 158.229 375.125 158.688C376.583 159.188 378.104 159.5 379.688 159.625C381.271 159.792 382.938 159.875 384.688 159.875C387.896 159.875 390.854 159.5 393.562 158.75C396.312 158.042 398.688 156.792 400.688 155C402.688 153.25 404.271 150.875 405.438 147.875C406.646 144.917 407.312 141.208 407.438 136.75C407.438 136.667 407.417 136.583 407.375 136.5C407.375 136.417 407.375 136.333 407.375 136.25C406.25 137.333 404.958 138.333 403.5 139.25C402.083 140.167 400.479 140.958 398.688 141.625C396.938 142.292 395 142.812 392.875 143.188C390.75 143.604 388.417 143.812 385.875 143.812C380.917 143.812 376.188 143.146 371.688 141.812C367.188 140.479 363.229 138.292 359.812 135.25C356.396 132.208 353.667 128.271 351.625 123.438C349.625 118.562 348.625 112.583 348.625 105.5C348.625 104.083 348.75 102.479 349 100.688C349.25 98.8542 349.625 96.9375 350.125 94.9375C350.625 92.9375 351.25 90.9167 352 88.875C352.792 86.8333 353.729 84.875 354.812 83C354.604 83.0417 354.396 83.0625 354.188 83.0625C354.021 83.0625 353.833 83.0625 353.625 83.0625C352.667 83.0625 351.771 82.875 350.938 82.5C350.146 82.125 349.438 81.6458 348.812 81.0625C348.229 80.4792 347.771 79.8333 347.438 79.125C347.104 78.4167 346.938 77.7292 346.938 77.0625C346.938 75.9792 347.104 75.0208 347.438 74.1875C347.771 73.3125 348.333 72.5417 349.125 71.875C349.958 71.1667 351.042 70.5625 352.375 70.0625C353.708 69.5208 355.375 69.0417 357.375 68.625C358.958 68.2917 360.438 67.9375 361.812 67.5625C363.229 67.1458 364.458 66.7708 365.5 66.4375C366.875 66.0208 368.083 65.6875 369.125 65.4375C370.208 65.1458 371.292 65 372.375 65C374.125 65 375.604 65.5833 376.812 66.75C378.062 67.875 378.688 69.3958 378.688 71.3125C378.688 72.2708 378.5 73.2917 378.125 74.375C377.792 75.4167 377.042 76.3542 375.875 77.1875C374.708 77.6458 373.562 78.4167 372.438 79.5C371.312 80.5833 370.25 81.875 369.25 83.375C368.25 84.875 367.333 86.5208 366.5 88.3125C365.667 90.1042 364.938 91.9583 364.312 93.875C363.729 95.75 363.271 97.6458 362.938 99.5625C362.604 101.479 362.438 103.292 362.438 105C362.438 109.75 363.062 113.771 364.312 117.062C365.604 120.312 367.312 122.958 369.438 125C371.562 127 374.021 128.438 376.812 129.312C379.604 130.188 382.542 130.625 385.625 130.625C391.042 130.625 395.479 129.792 398.938 128.125C402.438 126.417 405.208 123.833 407.25 120.375V118.938V80.9375C406.625 81.1458 405.958 81.3542 405.25 81.5625C404.542 81.7708 403.833 81.9583 403.125 82.125C402.458 82.2917 401.833 82.4375 401.25 82.5625C400.667 82.6458 400.188 82.6875 399.812 82.6875C398.938 82.6875 398.062 82.5833 397.188 82.375C396.354 82.1667 395.583 81.8333 394.875 81.375C394.208 80.875 393.646 80.2292 393.188 79.4375C392.771 78.6458 392.562 77.6458 392.562 76.4375C392.562 74.4375 393.083 72.8333 394.125 71.625C395.167 70.375 396.854 69.5625 399.188 69.1875L408.875 66.4375L408.812 66.5C409.688 66.0417 410.688 65.6875 411.812 65.4375C412.938 65.1458 413.812 65 414.438 65C414.896 65 415.5 65.0417 416.25 65.125C417.042 65.2083 417.792 65.4792 418.5 65.9375C419.25 66.3542 419.896 67.0625 420.438 68.0625C420.979 69.0625 421.25 70.4583 421.25 72.25C421.25 72.75 421.229 73.25 421.188 73.75C421.146 74.25 421.083 74.6875 421 75.0625C421 75.0625 421 75.1458 421 75.3125C421 75.4792 420.979 76.0417 420.938 77C420.938 77.9583 420.938 79.4583 420.938 81.5C420.938 83.5417 420.917 86.4375 420.875 90.1875C420.875 93.9375 420.854 98.7083 420.812 104.5C420.771 110.25 420.729 117.333 420.688 125.75C420.688 127.583 420.75 129.438 420.875 131.312C421 133.146 421.062 135.208 421.062 137.5C421.062 144.458 420.146 150.229 418.312 154.812C416.521 159.438 413.979 163.104 410.688 165.812C407.438 168.521 403.542 170.417 399 171.5C394.458 172.625 389.479 173.188 384.062 173.188C380.146 173.188 376.354 172.75 372.688 171.875C369.021 171.042 365.75 169.854 362.875 168.312C360.042 166.771 357.771 164.938 356.062 162.812C354.354 160.688 353.5 158.375 353.5 155.875Z" fill="black"/>
<path id="Vector_5" d="M292.987 116.028C292.987 112.217 293.691 108.642 295.098 105.301C296.534 101.93 298.483 98.9992 300.945 96.508C303.436 93.9874 305.885 92.2342 309.649 90.573C315.292 88.0828 321.508 88.3748 325.288 88.3748C329.421 88.3748 333.158 89.1075 336.499 90.573C339.87 92.0091 342.742 93.9874 345.116 96.508C347.519 98.9992 349.366 101.93 350.655 105.301C351.945 108.642 352.59 112.217 352.59 116.028C352.59 118.812 352.252 121.435 351.578 123.897C350.934 126.359 350.01 128.616 348.809 130.667C347.607 132.719 346.156 134.565 344.456 136.207C342.786 137.819 342.939 139.196 340.917 140.339C338.895 141.453 335.726 153.303 333.41 153.889C331.124 154.505 326.75 143.812 324.288 143.812C320.596 143.812 318.093 143.153 314.781 141.834C311.469 140.486 308.568 138.61 306.077 136.207C303.585 133.774 302.404 130.912 300.141 127.458C297.256 123.053 292.987 120.219 292.987 116.028ZM303.143 116.028C303.863 119.774 307.2 120.424 309.33 123.589C310.794 125.766 311.25 127.78 312.715 129.392C314.21 130.975 316.012 132.206 318.122 133.085C320.233 133.935 322.607 134.36 325.244 134.36C327.589 134.36 329.802 140.965 331.883 140.173C333.964 139.382 335.781 131.224 337.334 129.7C338.917 128.147 340.163 126.227 341.071 123.941C342.009 121.655 342.478 119.017 342.478 116.028C342.478 113.566 342.082 111.236 341.291 109.037C340.529 106.81 339.415 104.876 337.95 103.234C336.484 101.593 334.682 100.289 332.542 99.3216C330.403 98.3544 327.97 97.8708 325.244 97.8708C322.519 97.8708 317.324 97.2144 312.991 99.3216C310.659 100.455 309.092 101.593 307.627 103.234C306.162 104.876 305.048 106.81 304.286 109.037C303.524 111.236 302.62 113.311 303.143 116.028Z" fill="black"/>
<path id="Vector 7" d="M343 115.938C343.389 122.568 337.5 129.938 337.5 129.938L335 133.938C335 133.938 332.881 140.247 331.5 140.938C330.5 141.438 325.5 134.438 325.5 134.438C325.5 134.438 321.683 134.81 319.5 133.938C317.433 133.111 314.471 132.022 312.5 129.438C310.628 126.983 310.847 124.285 308.5 121.938C306.5 119.938 303.381 119.132 302.5 115.938C301.362 111.809 303.4 107.415 307 103.938C309.512 101.511 311.356 99.3417 315 97.9377C319.5 96.2039 331.5 96.9379 335 100.438C339.903 105.341 342.594 109.016 343 115.938Z" fill="#B49866" stroke="black"/>
<path id="Vector_6" d="M267.312 79.5C264.396 79.5 261.375 79.5208 258.25 79.5625C255.125 79.6042 251.708 79.625 248 79.625C247 79.625 246.125 79.3958 245.375 78.9375C244.625 78.4792 244 77.8958 243.5 77.1875C243 76.4375 242.625 75.6042 242.375 74.6875C242.125 73.7708 242 72.8542 242 71.9375C242 69.4792 242.688 67.7917 244.062 66.875C245.438 65.9167 247.667 65.4375 250.75 65.4375H300.625C301.458 65.4375 302.312 65.5417 303.188 65.75C304.104 65.9583 304.917 66.3333 305.625 66.875C306.375 67.4167 306.979 68.125 307.438 69C307.938 69.875 308.188 71 308.188 72.375C308.188 73.375 308.021 74.3333 307.688 75.25C307.354 76.1667 306.896 76.9583 306.312 77.625C305.771 78.2917 305.104 78.8333 304.312 79.25C303.562 79.6667 302.75 79.875 301.875 79.875C301.208 79.875 300.562 79.8125 299.938 79.6875C299.312 79.5625 298.646 79.5 297.938 79.5H281.812L281.625 150C281.625 151 281.688 151.979 281.812 152.938C281.979 153.896 282.062 154.938 282.062 156.062C282.062 156.979 281.979 157.896 281.812 158.812C281.646 159.729 281.292 160.562 280.75 161.312C280.208 162.062 279.438 162.667 278.438 163.125C277.438 163.625 276.125 163.875 274.5 163.875C272.583 163.875 271.125 163.542 270.125 162.875C269.125 162.25 268.396 161.438 267.938 160.438C267.521 159.438 267.292 158.333 267.25 157.125C267.208 155.917 267.188 154.75 267.188 153.625L267.312 79.5Z" fill="black"/>
</g>
</g>
</svg>
