<svg width="506" height="273" viewBox="0 0 506 273" fill="none" xmlns="http://www.w3.org/2000/svg">
<g id="Union">
<mask id="path-1-outside-1_190_6" maskUnits="userSpaceOnUse" x="0" y="0" width="506" height="273" fill="black">
<rect fill="white" width="506" height="273"/>
<path fill-rule="evenodd" clip-rule="evenodd" d="M503 3H3V203H141.542C155.269 241.84 192.311 269.667 235.852 269.667C279.392 269.667 316.434 241.84 330.161 203H503V3Z"/>
</mask>
<path fill-rule="evenodd" clip-rule="evenodd" d="M503 3H3V203H141.542C155.269 241.84 192.311 269.667 235.852 269.667C279.392 269.667 316.434 241.84 330.161 203H503V3Z" fill="#D9D9D9"/>
<path d="M3 3V0.5H0.5V3H3ZM503 3H505.5V0.5H503V3ZM3 203H0.5V205.5H3V203ZM141.542 203L143.899 202.167L143.31 200.5H141.542V203ZM330.161 203V200.5H328.394L327.804 202.167L330.161 203ZM503 203V205.5H505.5V203H503ZM3 5.5H503V0.5H3V5.5ZM5.5 203V3H0.5V203H5.5ZM141.542 200.5H3V205.5H141.542V200.5ZM235.852 267.167C193.403 267.167 157.285 240.039 143.899 202.167L139.185 203.833C153.254 243.641 191.218 272.167 235.852 272.167V267.167ZM327.804 202.167C314.419 240.039 278.3 267.167 235.852 267.167V272.167C280.485 272.167 318.449 243.641 332.519 203.833L327.804 202.167ZM503 200.5H330.161V205.5H503V200.5ZM500.5 3V203H505.5V3H500.5Z" fill="#F11212" mask="url(#path-1-outside-1_190_6)"/>
</g>
</svg>
