<svg width="154" height="56" viewBox="0 0 154 56" fill="none" xmlns="http://www.w3.org/2000/svg">
<rect width="153.15" height="56" transform="translate(0.424805)" fill="white"/>
<path d="M142.213 19.9387C141.477 17.9234 140.356 16.1312 138.855 14.5652C137.376 12.9905 135.503 11.7457 133.25 10.8245C131.008 9.86471 128.416 9.39195 125.483 9.39195H122.646H122.162V9.87606V14.1079V14.592H122.646H123.995C126.623 14.592 128.722 14.9444 130.315 15.6229L130.315 15.6229L130.322 15.6258C131.939 16.2842 133.186 17.1568 134.087 18.2321L134.091 18.2375L134.096 18.2428C135.038 19.3023 135.666 20.4876 135.987 21.8029C136.319 23.1607 136.485 24.5327 136.485 25.9198C136.485 30.4608 135.655 33.8506 134.06 36.1541C132.502 38.4049 129.947 39.5728 126.273 39.5728H122.646H122.162V40.0569V44.1492V44.6334H122.646H128.133C128.594 44.6334 129.281 44.5846 130.183 44.4913L130.191 44.4904L130.199 44.4893C131.136 44.3601 132.159 44.1033 133.266 43.7236L133.266 43.7238L133.278 43.7195C134.405 43.301 135.554 42.693 136.726 41.9012C137.962 41.0878 139.058 39.9882 140.017 38.6133L140.02 38.609C140.984 37.1951 141.762 35.4735 142.362 33.4539C142.999 31.3806 143.313 28.9125 143.313 26.0593C143.313 23.9557 142.946 21.9146 142.213 19.9387ZM142.213 19.9387C142.213 19.9394 142.213 19.9401 142.214 19.9408L141.759 20.1069L142.213 19.9385C142.213 19.9386 142.213 19.9386 142.213 19.9387ZM82.2676 39.42C81.3178 39.3337 80.409 39.0466 79.538 38.5538C78.6812 38.0387 77.9114 37.2883 77.2331 36.2867C76.5871 35.2871 76.0634 34.0374 75.6705 32.5267C75.2801 30.9946 75.0658 29.146 75.0348 26.9742C75.0658 24.8333 75.2801 22.9996 75.6708 21.4668C76.0645 19.9224 76.5886 18.6748 77.2322 17.7094C77.8785 16.7399 78.6313 16.0214 79.4862 15.5369C80.3606 15.0414 81.2908 14.7364 82.2803 14.6199L82.7079 14.5696V14.1391V9.48877V8.97241L82.1926 9.00566C81.41 9.05614 80.6485 9.16159 79.9081 9.32235L73.805 9.32235H73.4819L73.3579 9.62073L63.8712 32.454L63.8341 32.5432V32.6398V44.0796V44.5638H64.3183H69.9917H70.4758V44.0796V37.1948C70.991 38.2505 71.5868 39.2072 72.2644 40.0631L72.2643 40.0632L72.2715 40.0718C73.5227 41.5796 75.0025 42.7548 76.7091 43.592L76.7091 43.5921L76.7158 43.5952C78.4162 44.3973 80.243 44.8613 82.1921 44.9891L82.7079 45.0229V44.506V39.9021V39.46L82.2676 39.42ZM93.9471 40.067C94.5257 39.3548 95.0443 38.5727 95.5037 37.7217V44.1492V44.6334H95.9878H101.661H102.145V44.1492V9.87606V9.39195H101.661H95.9878H95.5037V9.87606V16.2865C95.0444 15.4433 94.5257 14.672 93.9468 13.9738C92.7267 12.4338 91.2616 11.2417 89.5536 10.4035C87.8789 9.56645 86.0618 9.10134 84.1077 9.00524L83.5998 8.98026V9.48877V14.0926V14.5347L84.0401 14.5748C84.9865 14.6608 85.8934 14.9616 86.7646 15.4843L86.7645 15.4845L86.775 15.4904C87.6263 15.9728 88.3783 16.7039 89.0254 17.7039L89.0299 17.7109L89.0347 17.7177C89.706 18.6809 90.244 19.9255 90.6368 21.4668L90.6374 21.469C91.0274 22.969 91.2418 24.8014 91.2728 26.9741C91.2419 29.146 91.0276 30.9946 90.6372 32.5267C90.2441 34.038 89.7201 35.2882 89.0737 36.2881C88.4278 37.2562 87.6741 37.9915 86.8162 38.5073C85.9434 39.0011 85.0149 39.3052 84.0273 39.4213L83.5998 39.4716V39.9021V44.506V45.0224L84.1151 44.9891C86.0944 44.8614 87.9228 44.3977 89.5951 43.5937L89.5951 43.5938L89.6018 43.5904C91.2783 42.7522 92.7273 41.5758 93.9471 40.067ZM115.101 9.39195H114.617V9.87606V31.666L103.989 12.9389L103.084 11.3439V13.1778V23.8737V24.0017L103.147 24.113L114.68 44.3886L114.819 44.6334H115.101H120.774H121.258V44.1492V9.87606V9.39195H120.774H115.101ZM66.626 23.3375L66.6997 23.1587L66.6299 22.9784L61.468 9.63184L61.3483 9.32235H61.0165H54.6455H53.8871L54.2064 10.0103L63.2281 29.4488L63.6935 30.4516L64.1148 29.4295L66.626 23.3375Z" stroke="white" stroke-width="0.968234"/>
<path fill-rule="evenodd" clip-rule="evenodd" d="M69.9927 34.7397V44.0797H64.3192V32.6398L73.806 9.80648H79.9615C80.6932 9.64482 81.4476 9.53891 82.2248 9.48877V14.1391C81.1707 14.2631 80.1786 14.5887 79.2486 15.1157C78.3185 15.6427 77.5124 16.4178 76.8304 17.4409C76.1483 18.464 75.6058 19.7661 75.2028 21.3472C74.7997 22.9283 74.5827 24.804 74.5517 26.9741C74.5827 29.1753 74.7997 31.0665 75.2028 32.6476C75.6058 34.1977 76.1483 35.4998 76.8304 36.5539C77.5434 37.608 78.365 38.414 79.2951 38.9721C80.2251 39.4991 81.2017 39.8091 82.2248 39.9021V44.506C80.3337 44.382 78.5665 43.9325 76.9234 43.1574C75.2803 42.3513 73.8541 41.2197 72.6451 39.7626C71.5445 38.3724 70.6604 36.6981 69.9927 34.7397ZM89.3399 10.8374C87.7277 10.0313 85.9761 9.58178 84.0849 9.48877V14.0926C85.108 14.1856 86.0846 14.5112 87.0147 15.0692C87.9447 15.5962 88.7508 16.3868 89.4329 17.4409C90.1459 18.464 90.704 19.7661 91.107 21.3472C91.51 22.8973 91.727 24.773 91.758 26.9741C91.727 29.1753 91.51 31.0665 91.107 32.6476C90.704 34.1977 90.1614 35.4998 89.4794 36.5539C88.7973 37.577 87.9912 38.3675 87.0612 38.9256C86.1311 39.4526 85.139 39.7781 84.0849 39.9021V44.506C86.0071 44.382 87.7742 43.9325 89.3864 43.1574C90.9985 42.3513 92.3936 41.2197 93.5717 39.7626C94.5497 38.5589 95.3553 37.1422 95.9885 35.5125V44.1493H101.662V9.87614H95.9885V18.484C95.3553 16.8591 94.5497 15.4573 93.5717 14.2786C92.3936 12.7905 90.983 11.6434 89.3399 10.8374ZM115.101 9.87614H115.16H120.741H120.775V44.1493H120.741H115.16H115.101L103.569 23.8737V13.1779L115.101 33.5V9.87614ZM125.484 9.87614C128.367 9.87614 130.894 10.3412 133.064 11.2712C135.265 12.1703 137.079 13.3794 138.505 14.8985C139.962 16.4176 141.047 18.1538 141.76 20.1069C142.473 22.0291 142.83 24.0132 142.83 26.0594C142.83 28.8806 142.52 31.2988 141.9 33.314C141.311 35.2981 140.551 36.9723 139.621 38.3364C138.691 39.6695 137.637 40.7235 136.459 41.4986C135.312 42.2737 134.196 42.8627 133.111 43.2657C132.026 43.6378 131.034 43.8858 130.135 44.0098C129.235 44.1028 128.569 44.1493 128.135 44.1493H122.647V40.057H126.275C130.057 40.057 132.785 38.8479 134.459 36.4297C136.133 34.0115 136.971 30.5082 136.971 25.9199C136.971 24.4938 136.8 23.0832 136.459 21.6881C136.118 20.293 135.451 19.0374 134.459 17.9213C133.498 16.7742 132.181 15.8596 130.507 15.1776C128.832 14.4645 126.662 14.108 123.996 14.108H122.647V9.87614H125.484ZM66.1794 23.153L61.0175 9.80648H54.6465L63.6682 29.245L66.1794 23.153Z" fill="#F0C58D"/>
<rect x="47.8667" y="22.0762" width="10.4569" height="10.4569" fill="white"/>
<path d="M57.7423 23.4318L49.2219 31.9523H57.7423V23.4318Z" fill="black"/>
<path d="M48.4473 31.0837L56.8738 22.6572H48.4473V31.0837Z" fill="black"/>
<path d="M32.5085 45.8426L23.1826 45.8844V32.1973V31.7132H22.6985H14.8488H14.3647V32.1973V52.1272V52.6113H14.8488H22.2144V52.6134L22.6985 52.6113L22.7006 52.6113L23.1826 52.6113V52.6092L32.9685 52.5673C32.9689 52.5673 32.9693 52.5673 32.9698 52.5673C33.2468 52.5672 33.8046 52.5446 34.6293 52.5012L34.642 52.5005L34.6546 52.4992C35.5184 52.4083 36.4844 52.2051 37.5498 51.8945C38.6721 51.58 39.812 51.1324 40.9693 50.5537L40.9693 50.5538L40.9756 50.5505C42.2024 49.9144 43.3132 49.0749 44.3076 48.0354C45.3585 46.9388 46.2175 45.5775 46.8907 43.9618C47.5753 42.3188 47.9091 40.3771 47.9091 38.15C47.9091 36.3038 47.5714 34.6602 46.8808 33.2318C46.2051 31.7912 45.3449 30.5654 44.2966 29.5617C43.3013 28.5672 42.2096 27.7927 41.0211 27.2442C40.4502 26.9807 39.8917 26.7638 39.3461 26.5947C39.6603 26.4416 39.9755 26.2649 40.2918 26.0652L40.2918 26.0653L40.2971 26.0618C41.2141 25.4657 42.0164 24.732 42.7027 23.8626C43.3887 22.9937 43.9561 21.9929 44.4076 20.8642L44.4076 20.8643L44.4099 20.8582C44.8696 19.663 45.0963 18.3605 45.0963 16.9558C45.0963 14.585 44.6491 12.5204 43.7334 10.7798C42.8276 9.01436 41.6 7.5802 40.0508 6.48658C38.5149 5.40248 36.7583 4.61584 34.7867 4.12294C32.8281 3.63329 30.8044 3.38893 28.7166 3.38893H25.3805H24.8964V3.87305V9.82572V10.3098H25.3805H27.9317C29.9092 10.3098 31.4611 10.5257 32.6095 10.9358C33.7826 11.3548 34.6457 11.8865 35.2319 12.5117C35.8334 13.1533 36.2269 13.8659 36.4237 14.6529L36.4237 14.6529L36.4252 14.6587C36.6336 15.4507 36.7363 16.2161 36.7363 16.9558C36.7363 18.884 36.4557 20.2948 35.9444 21.2388L35.9406 21.2458L35.937 21.2529C35.4509 22.2251 34.8212 22.88 34.0603 23.2605C33.2508 23.6652 32.3801 23.8886 31.443 23.9294C30.4466 23.9727 29.4725 23.9943 28.5204 23.9943L28.5167 23.9943L11.1658 24.1252L10.2355 24.1322L10.7751 24.8901L14.4545 30.0578L14.5993 30.2611H14.8489H31.9219C34.4332 30.2611 36.2654 31.0305 37.5035 32.5082C38.7736 34.0242 39.4183 35.8944 39.4183 38.15C39.4183 40.5491 38.7887 42.4091 37.577 43.7823C36.3764 45.143 34.7089 45.8426 32.5106 45.8426L32.5085 45.8426ZM14.5563 9.43997L14.3647 9.58527L14.3647 9.82572L14.3647 22.56L14.3647 23.0441H14.8489H22.6985H23.1827V22.56L23.1827 3.87305V2.89835L22.406 3.4873L14.5563 9.43997Z" fill="black" stroke="white" stroke-width="0.968234"/>
<path d="M37.6129 26.7025C38.6159 26.8334 39.6844 27.1604 40.8182 27.6837C41.952 28.207 42.9987 28.9484 43.9581 29.9078C44.9611 30.8672 45.7897 32.0447 46.4438 33.4402C47.0979 34.7921 47.425 36.362 47.425 38.15C47.425 40.3304 47.0979 42.2056 46.4438 43.7756C45.7897 45.3455 44.9611 46.6538 43.9581 47.7004C42.9987 48.7034 41.9302 49.5102 40.7528 50.1207C39.6189 50.6877 38.5069 51.1237 37.4167 51.429C36.3701 51.7343 35.4325 51.9305 34.6039 52.0177C33.7753 52.0613 33.2302 52.0831 32.9685 52.0831L22.6985 52.1272V46.3707L32.5106 46.3267C34.8219 46.3267 36.6317 45.5854 37.94 44.1026C39.2483 42.6199 39.9024 40.6357 39.9024 38.15C39.9024 35.7951 39.2265 33.8108 37.8746 32.1973C36.5227 30.5838 34.5385 29.777 31.9219 29.777H14.8489L11.1694 24.6093L28.5204 24.4785C29.4798 24.4785 30.461 24.4566 31.464 24.413C32.467 24.3694 33.4046 24.1296 34.2768 23.6935C35.149 23.2574 35.8467 22.516 36.3701 21.4694C36.937 20.4228 37.2204 18.9183 37.2204 16.9558C37.2204 16.1709 37.1114 15.3641 36.8934 14.5355C36.6753 13.6633 36.2392 12.8784 35.5851 12.1806C34.931 11.4829 33.9934 10.916 32.7723 10.4799C31.5512 10.0438 29.9377 9.82572 27.9317 9.82572H25.3805V3.87305H28.7166C30.7663 3.87305 32.7505 4.1129 34.6693 4.5926C36.5881 5.0723 38.2889 5.83547 39.7716 6.88209C41.2543 7.92871 42.4317 9.30241 43.3039 11.0032C44.1761 12.6603 44.6122 14.6445 44.6122 16.9558C44.6122 18.3077 44.3942 19.5506 43.9581 20.6844C43.522 21.7747 42.9769 22.7341 42.3227 23.5627C41.6686 24.3912 40.9054 25.089 40.0332 25.6559C39.2047 26.1792 38.3979 26.5281 37.6129 26.7025ZM14.8489 9.82572L22.6985 3.87305L22.6985 22.56H14.8489L14.8489 9.82572Z" fill="black"/>
<path d="M14.8488 32.1973H22.6985V46.3707V52.1272H14.8488V32.1973Z" fill="black"/>
</svg>
