<svg width="61" height="60" viewBox="0 0 61 60" fill="none" xmlns="http://www.w3.org/2000/svg">
<rect x="0.769398" y="0.344593" width="59.3108" height="59.3108" rx="8.51638" fill="white"/>
<rect x="0.769398" y="0.344593" width="59.3108" height="59.3108" rx="8.51638" stroke="#9E8522" stroke-width="0.689187"/>
<path d="M26.3966 23.4804C30.1094 22.862 32.622 18.7324 32.622 18.7324C32.622 18.7324 29.0774 21.4543 26.3966 21.6794C23.2915 21.9402 21.2693 21.2136 19.1879 18.8961C18.2125 17.81 17.543 16.9144 17.2219 15.7854C16.9241 14.7381 16.8943 12.511 16.8943 12.511C16.8943 12.511 16.2315 13.7412 15.9113 14.4757C15.588 15.2171 15.2559 16.4403 15.2559 16.4403C15.2559 16.4403 15.2559 18.7324 16.5666 20.5334C18.8879 23.723 22.4646 24.1352 26.3966 23.4804Z" fill="#42C9EE"/>
<path d="M29.3456 25.9362C31.8668 24.3165 33.1135 19.7147 33.1135 19.7147C33.1135 19.7147 32.1504 22.8719 27.5434 24.7901C23.6114 26.4273 20.1709 25.445 18.5326 24.7901C16.2389 23.8733 14.7644 22.0069 14.7644 22.0069C14.7644 22.0069 16.4905 25.6013 18.5326 26.7548C21.6454 28.513 24.5676 29.0056 29.3456 25.9362Z" fill="#014339"/>
<path d="M41.4692 18.5687C38.8479 13.8208 33.2776 13.3296 33.2776 13.3296C33.2776 13.3296 36.9267 16.1127 38.0288 19.2236C39.1409 22.3629 39.3759 25.5197 37.8649 29.0469C36.8424 31.4339 32.2076 34.8995 32.2076 34.8995C32.2076 34.8995 36.3902 33.7948 39.3394 31.0116C41.2168 29.2399 42.2896 27.2612 42.6681 24.7086C42.9367 22.8975 42.5311 20.492 41.4692 18.5687Z" fill="#ACC777"/>
<path d="M36.071 13.8286C36.2686 14.0074 39.81 17.2434 40.4859 20.0423C40.9512 21.969 40.9563 23.1921 40.4859 25.1176C40.0448 26.9232 38.3556 29.3744 38.3556 29.3744L37.7012 25.7725C37.7012 25.7725 37.9367 22.651 38.1926 20.8608C38.8267 16.4255 36.2397 13.9826 36.071 13.8286Z" fill="#365D1C"/>
<path d="M43.85 27.901H42.4523C42.4523 27.901 40.8284 30.2579 39.5033 31.5027C36.5845 34.2445 28.831 36.1254 28.831 36.1254C28.831 36.1254 34.727 36.9443 40.1586 32.6488C42.4681 30.8223 43.85 27.901 43.85 27.901Z" fill="#154528"/>
<path d="M38.0283 12.3472C35.0798 11.5287 33.605 12.8384 33.605 12.8384C33.605 12.8384 38.8178 13.6915 40.9778 15.9491C42.8995 17.9576 43.7629 22.498 43.7629 22.498C43.7629 22.498 44.6608 18.9618 43.2714 16.7678C42.0532 14.8439 40.2235 12.9566 38.0283 12.3472Z" fill="#8DAA56"/>
<path d="M44.9976 15.6217C43.4986 11.3137 41.2288 9.72775 41.2288 9.72775C41.2288 9.72775 43.1949 13.4934 43.1949 15.1306C43.1949 18.1356 44.5055 18.7324 43.5524 22.8255C43.0556 24.9586 42.048 28.2283 42.048 28.2283L43.85 27.901C43.85 27.901 44.997 26.2637 45.4885 23.4804C45.9476 20.8804 45.8633 18.11 44.9976 15.6217Z" fill="#365D20"/>
<path d="M35.0798 24.6264C37.7011 19.2236 35.0795 15.9492 35.0795 15.9492C35.0795 15.9492 35.4074 19.8785 33.7691 23.1529C31.3557 27.9765 28.8541 28.5433 27.3796 29.3743C23.3127 31.6664 18.2049 30.5204 18.2049 30.5204C18.2049 30.5204 24.6808 32.0519 28.1988 30.6841C31.5363 29.3865 33.5174 27.8466 35.0798 24.6264Z" fill="#075450"/>
<path d="M31.8021 18.2413C32.7419 17.537 33.2773 15.2942 33.2773 15.2942C33.2773 15.2942 30.5818 20.0781 26.3966 18.405C24.7583 17.7501 22.4311 16.1371 21.4816 13.4933C20.6343 11.134 22.1367 7.27186 22.1367 7.27186C22.1367 7.27186 21.3112 7.67383 20.8263 8.0905C20.2773 8.56218 19.5152 9.40032 19.5152 9.40032C19.5152 9.40032 19.3518 11.8561 19.5154 13.1659C19.6998 14.6416 21.235 17.3121 23.6105 18.5687C26.5533 20.1254 30.4915 19.2236 31.8021 18.2413Z" fill="#2194A6"/>
<path d="M28.0354 10.8738C28.0354 10.8738 30.1642 11.365 30.8196 11.5287C30.8196 11.5287 31.8513 10.5876 32.4589 10.2189C33.6469 9.49805 35.7347 9.07281 35.7347 9.07281C35.7347 9.07281 33.6988 8.8045 32.4579 9.07286C31.0291 9.38185 28.0354 10.8738 28.0354 10.8738Z" fill="#0D6D77"/>
<path d="M25.0637 12.214C25.2183 13.5539 26.2323 16.604 26.2323 16.604C26.2323 16.604 25.5234 13.852 26.3961 12.511C27.132 11.3801 29.6483 9.93612 32.1308 9.23656C33.2542 8.91999 36.3643 8.77468 36.3643 8.77468C36.3643 8.77468 31.9988 6.12597 27.3565 8.44713C27.029 8.6109 24.8257 10.1528 25.0637 12.214Z" fill="#096268"/>
<path d="M30.9839 11.3649L30.8199 13.8207C30.8199 13.8207 33.709 11.8666 35.2436 11.3649C37.963 10.4759 41.9327 13.3604 41.9327 13.3604C41.9327 13.3604 40.0803 11.5591 39.0118 10.8738C37.7815 10.0847 35.8989 9.23653 35.571 9.23653C32.4199 9.23653 30.9839 11.3649 30.9839 11.3649Z" fill="#096268"/>
<path d="M22.4155 10.8494C22.4524 12.3097 24.2448 14.3431 24.2448 14.3431C24.2448 14.3431 24.5959 8.24374 30.4683 7.79202C32.2329 7.65628 34.8578 8.05067 35.8997 8.53054C36.9417 9.01041 42.8949 13.3052 42.8949 13.3052C42.8949 13.3052 42.4253 10.9272 41.4195 9.867C38.9847 7.30069 36.7178 6.28952 33.605 5.47092C30.6944 4.7055 27.8703 4.97982 25.9048 5.63468C23.6822 6.37526 22.3563 8.50876 22.4155 10.8494Z" fill="#1A7D8A"/>
<path d="M25.7413 21.0245C29.1821 21.352 32.4591 17.7501 32.4591 17.7501C32.4591 17.7501 28.4526 20.4055 24.2674 18.7324C22.6291 18.0775 21.0822 16.7584 20.1715 14.6394C19.3851 12.8097 19.5157 9.40027 19.5157 9.40027C19.5157 9.40027 17.0581 11.2012 18.0416 15.458C18.8227 18.8382 21.6512 20.6352 25.7413 21.0245Z" fill="#005453"/>
<path d="M23.6114 29.0469C27.2158 28.2283 29.8371 25.6087 29.8371 25.6087C29.8371 25.6087 26.7243 27.8481 23.6114 27.9008C21.7804 27.9319 19.8552 27.4997 18.696 26.7548C16.4028 25.2813 14.7644 22.0069 14.7644 22.0069C14.7644 22.0069 14.8019 24.1556 15.2558 25.445C15.6357 26.5239 16.5664 28.0646 16.5664 28.0646C16.5664 28.0646 19.352 30.0143 23.6114 29.0469Z" fill="#002F22"/>
<path d="M37.537 23.4803C37.6113 20.3696 35.8039 17.3605 35.8039 17.3605C35.8039 17.3605 36.7394 21.5159 36.2958 23.6441C35.5611 27.1681 34.5001 29.5477 31.4756 31.5027C29.1037 33.0358 24.2672 33.14 24.2672 33.14C24.2672 33.14 28.8541 33.7948 31.4756 32.485C33.7852 31.3311 35.2217 30.3657 36.3901 28.0646C37.2192 26.4318 37.4933 25.3107 37.537 23.4803Z" fill="#044239"/>
<path d="M36.2268 18.0775C36.2268 18.0775 35.7191 23.9436 34.0963 26.2636C32.6133 28.3839 31.2434 29.3607 28.8543 30.3567C26.5393 31.3217 22.628 31.1753 22.628 31.1753L18.2045 30.5204C18.2045 30.5204 19.8615 32.3887 21.1546 33.3037C23.284 34.8103 25.0855 35.2683 25.0855 35.2683C25.0855 35.2683 29.182 36.2507 33.4416 34.4497C36.452 33.177 37.9845 31.0514 38.8475 27.9008C39.5201 25.445 38.5205 21.1882 38.5205 21.1882C38.5205 21.1882 38.3296 27.5998 36.2268 29.7018C34.0976 31.8302 32.8151 33.3046 29.8373 33.7948C27.5428 34.1726 24.2672 33.14 24.2672 33.14C24.2672 33.14 28.9406 33.2686 31.475 31.6664C33.7044 30.2571 34.6109 28.8124 35.7346 26.4273C37.0459 23.6441 36.2268 18.0775 36.2268 18.0775Z" fill="#012A22"/>
<path d="M15.2559 16.4403C14.6006 18.405 14.7468 20.2391 14.7468 20.2391C14.7468 20.2391 16.3044 22.2486 17.7134 23.1529C20.0588 24.6581 22.8937 24.6912 24.7583 24.299C27.8711 23.6441 30.1648 21.5157 30.1648 21.5157C30.1648 21.5157 27.2158 23.8078 22.4646 23.6441C20.6205 23.5805 18.947 22.8255 17.5496 21.5157C15.2788 19.3873 15.2559 16.4403 15.2559 16.4403Z" fill="#0D484C"/>
<path d="M25.5772 14.1482C25.5772 14.1482 25.2495 11.201 28.6912 10.7098C30.3058 10.4794 31.662 11.2059 32.4588 12.5109C32.4588 12.5109 33.9332 10.8737 36.3907 10.8737C38.8482 10.8737 41.2776 12.8691 41.2776 12.8691C41.2776 12.8691 40.4093 11.9194 39.6398 11.3951C38.3038 10.485 37.4366 10.0035 35.8729 9.59357C34.3297 9.18902 31.8034 9.23649 31.8034 9.23649C31.8034 9.23649 34.0487 8.21176 35.8997 8.5816C37.7508 8.95144 40.1311 10.0849 42.1249 12.1835C44.1339 14.2981 44.2548 17.0951 44.0909 19.3872C44.0909 19.3872 43.4137 16.9057 42.4526 15.6217C40.9211 13.5756 38.8235 12.5069 36.8822 12.1835C34.917 11.8561 33.6056 12.8384 33.6056 12.8384C33.6056 12.8384 36.0933 13.0464 37.5383 13.6568C40.5397 14.9246 42.1982 16.6402 43.2718 19.7147C44.2423 22.4942 43.631 25.7724 43.1079 27.2459C41.7918 30.9531 39.5481 32.7186 36.0631 34.4496C34.1586 35.3957 31.779 35.9616 31.779 35.9616C31.779 35.9616 30.9611 36.4075 28.1759 36.1254C27.2026 36.0268 25.0855 35.2683 25.0855 35.2683C25.0855 35.2683 28.821 35.7067 30.6922 35.275C32.821 34.7838 33.6834 34.4052 35.4072 33.4674C38.7072 31.6718 40.8336 30.1731 41.9616 26.591C42.4526 25.0317 42.8903 22.3301 41.9616 19.8784C40.9204 17.1297 39.3956 15.6934 36.7189 14.4756C35.6871 14.0061 33.9338 13.6568 33.9338 13.6568C33.9338 13.6568 35.1887 14.6378 35.8997 15.4579C38.0291 17.9137 38.7693 20.4604 38.5211 23.8077C38.28 27.059 37.0455 29.5953 34.917 31.5027C33.2726 32.9762 31.8529 33.8209 29.5105 33.9585C26.724 34.1222 23.775 32.9762 23.775 32.9762C23.775 32.9762 27.5257 33.4825 29.5105 32.9762C31.4512 32.4812 32.5921 32.004 34.0978 30.6841C36.0631 28.9613 37.2388 26.4888 37.3737 23.3166C37.4967 20.4277 35.2447 16.2764 35.2447 16.2764C35.2447 16.2764 35.4647 19.0547 34.917 20.6971C33.2791 25.6087 30.8267 28.4147 26.07 30.0292C23.8756 30.774 23.1004 30.8632 21.1542 30.8478C19.9955 30.8386 18.2049 30.5204 18.2049 30.5204C18.2049 30.5204 17.8147 30.0793 17.5499 29.7017C17.1827 29.1781 16.5669 28.0645 16.5669 28.0645C16.5669 28.0645 18.6962 29.134 20.9904 29.2106C23.5201 29.2949 25.3477 28.4651 27.2161 27.4096C30.9837 25.2813 32.7858 20.5333 32.7858 20.5333C32.7858 20.5333 31.3457 23.6326 26.3963 25.2813C23.4473 26.2636 20.1712 25.7724 18.2052 24.9538C16.292 24.1572 14.7641 22.0668 14.7641 22.0668C14.7641 22.0668 14.7407 20.8457 14.7462 20.5666C14.7559 20.0804 14.7559 20.0753 14.7559 20.0753C14.7559 20.0753 16.7111 22.639 18.3694 23.4803C20.726 24.676 23.2841 24.5221 25.0874 24.1352C29.5105 23.1861 32.2949 19.0598 32.2949 19.0598C32.2949 19.0598 30.0915 21.1174 28.1985 21.5157C21.9728 22.8254 19.7557 20.0764 18.0408 17.7501C16.5228 15.6907 16.8943 12.511 16.8943 12.511C16.8943 12.511 17.2508 11.8552 17.7132 11.201C18.1577 10.5722 19.0238 9.89141 19.0238 9.89141C19.0238 9.89141 17.7132 11.3649 17.8771 13.8207C18.0192 15.9507 18.6962 17.0441 19.68 18.2412C21.8504 20.8823 25.9057 21.3173 27.8714 20.697C30.5941 19.8379 32.4308 18.2108 33.1141 15.5883C32.466 17.7439 30.3502 19.0427 27.7088 18.8961C24.5862 18.7228 21.5385 15.9713 21.1537 12.5109C20.8261 9.56396 22.1891 7.27186 22.1891 7.27186C22.1891 7.27186 22.9582 6.74518 23.6112 6.45325C24.6702 5.97976 26.5602 5.47091 26.5602 5.47091C26.5602 5.47091 22.7921 7.33485 22.7921 10.7098C22.7921 13.0021 23.6129 13.6568 23.6129 13.6568C23.6129 13.6568 23.3672 11.201 24.5959 9.23649C26.2342 6.61694 29.8386 5.79818 29.8386 5.79818C29.8386 5.79818 25.741 7.5993 25.0874 11.201C24.8376 12.5775 25.5772 14.1482 25.5772 14.1482Z" fill="white"/>
<path d="M30.9837 14.4756C30.9837 15.7415 29.9567 16.7677 28.69 16.7677C27.4232 16.7677 26.3963 15.7415 26.3963 14.4756C26.3963 13.2097 27.4232 12.1835 28.69 12.1835C29.9567 12.1835 30.9837 13.2097 30.9837 14.4756Z" fill="black"/>
<path d="M45.6994 20.7304C45.6994 29.3233 38.7334 36.2892 30.1406 36.2892C21.5477 36.2892 14.5817 29.3233 14.5817 20.7304C14.5817 12.1375 21.5477 5.17159 30.1406 5.17159C38.7334 5.17159 45.6994 12.1375 45.6994 20.7304Z" stroke="#2194A6" stroke-opacity="0.4" stroke-width="0.327554"/>
<path d="M53.0395 43.0569C53.0395 43.9985 52.8275 44.8122 52.4036 45.498C51.9797 46.1839 51.3981 46.7128 50.6589 47.0847C49.9198 47.4567 49.0755 47.6427 48.1262 47.6427C47.1769 47.6427 46.3326 47.4567 45.5935 47.0847C44.8543 46.7128 44.2727 46.1839 43.8488 45.498C43.4249 44.8122 43.2129 43.9985 43.2129 43.0569C43.2129 42.1154 43.4249 41.3017 43.8488 40.6159C44.2727 39.93 44.8543 39.4011 45.5935 39.0292C46.3326 38.6572 47.1769 38.4712 48.1262 38.4712C49.0755 38.4712 49.9198 38.6572 50.6589 39.0292C51.3981 39.4011 51.9797 39.93 52.4036 40.6159C52.8275 41.3017 53.0395 42.1154 53.0395 43.0569ZM51.7351 43.0569C51.7351 42.2839 51.5738 41.6315 51.2514 41.0997C50.9325 40.5679 50.4995 40.1654 49.9524 39.8923C49.4089 39.6191 48.8001 39.4825 48.1262 39.4825C47.4522 39.4825 46.8417 39.6191 46.2946 39.8923C45.7511 40.1654 45.3181 40.5679 44.9956 41.0997C44.6767 41.6315 44.5173 42.2839 44.5173 43.0569C44.5173 43.83 44.6767 44.4824 44.9956 45.0142C45.3181 45.546 45.7511 45.9485 46.2946 46.2216C46.8417 46.4948 47.4522 46.6314 48.1262 46.6314C48.8001 46.6314 49.4089 46.4948 49.9524 46.2216C50.4995 45.9485 50.9325 45.546 51.2514 45.0142C51.5738 44.4824 51.7351 43.83 51.7351 43.0569Z" fill="#00352C"/>
<path d="M49.8788 40.0386L49.8792 40.0388C50.398 40.2978 50.8079 40.6785 51.1109 41.1839L51.1113 41.1846C51.4149 41.6853 51.5713 42.3066 51.5713 43.0569C51.5713 43.8072 51.4149 44.4286 51.1113 44.9293L51.1109 44.93C50.8079 45.4354 50.398 45.8161 49.8792 46.0751L49.8788 46.0753C49.3605 46.3358 48.7774 46.4676 48.1262 46.4676C47.4751 46.4676 46.89 46.3358 46.3679 46.0752C45.8527 45.8162 45.4427 45.4355 45.1359 44.9296C44.8357 44.4289 44.6811 43.8074 44.6811 43.0569C44.6811 42.3065 44.8357 41.685 45.1359 41.1843C45.4427 40.6784 45.8528 40.2976 46.368 40.0387C46.8901 39.778 47.4751 39.6463 48.1262 39.6463C48.7774 39.6463 49.3605 39.7781 49.8788 40.0386ZM52.5429 45.5841C52.9854 44.8684 53.2033 44.0237 53.2033 43.0569C53.2033 42.0901 52.9854 41.2455 52.5429 40.5297C52.1026 39.8175 51.498 39.2681 50.7326 38.8829C49.9674 38.4978 49.0973 38.3074 48.1262 38.3074C47.1551 38.3074 46.285 38.4978 45.5198 38.8829C44.7544 39.2681 44.1498 39.8175 43.7095 40.5297C43.267 41.2455 43.0491 42.0901 43.0491 43.0569C43.0491 44.0237 43.267 44.8684 43.7095 45.5841C44.1498 46.2964 44.7544 46.8458 45.5198 47.231C46.285 47.6161 47.1551 47.8065 48.1262 47.8065C49.0973 47.8065 49.9674 47.6161 50.7326 47.231C51.498 46.8458 52.1026 46.2964 52.5429 45.5841Z" stroke="#2194A6" stroke-opacity="0.4" stroke-width="0.327554"/>
<mask id="path-7-outside-1_789_14842" maskUnits="userSpaceOnUse" x="30.4209" y="37.4712" width="12" height="11" fill="black">
<rect fill="white" x="30.4209" y="37.4712" width="12" height="11"/>
<path fill-rule="evenodd" clip-rule="evenodd" d="M31.4209 38.4712V47.2854H32.8949V43.7121H36.3339V47.2854H38.0563V47.2854H38.2553V43.7121H39.7732V47.2854H41.2472V38.4712H39.7732V42.3963H38.2553V38.4712H37.188V38.4712H36.3339V42.3963H32.8949V38.4712H31.4209Z"/>
</mask>
<path fill-rule="evenodd" clip-rule="evenodd" d="M31.4209 38.4712V47.2854H32.8949V43.7121H36.3339V47.2854H38.0563V47.2854H38.2553V43.7121H39.7732V47.2854H41.2472V38.4712H39.7732V42.3963H38.2553V38.4712H37.188V38.4712H36.3339V42.3963H32.8949V38.4712H31.4209Z" fill="#00352C"/>
<path d="M31.4209 47.2854H31.0933V47.6129H31.4209V47.2854ZM31.4209 38.4712V38.1436H31.0933V38.4712H31.4209ZM32.8949 47.2854V47.6129H33.2224V47.2854H32.8949ZM32.8949 43.7121V43.3845H32.5673V43.7121H32.8949ZM36.3339 43.7121H36.6614V43.3845H36.3339V43.7121ZM36.3339 47.2854H36.0063V47.6129H36.3339V47.2854ZM38.0563 47.2854V47.6129H38.3839V47.2854H38.0563ZM38.0563 47.2854V46.9578H37.7288V47.2854H38.0563ZM38.2553 47.2854V47.6129H38.5829V47.2854H38.2553ZM38.2553 43.7121V43.3845H37.9278V43.7121H38.2553ZM39.7732 43.7121H40.1007V43.3845H39.7732V43.7121ZM39.7732 47.2854H39.4456V47.6129H39.7732V47.2854ZM41.2472 47.2854V47.6129H41.5747V47.2854H41.2472ZM41.2472 38.4712H41.5747V38.1437H41.2472V38.4712ZM39.7732 38.4712V38.1437H39.4456V38.4712H39.7732ZM39.7732 42.3963V42.7238H40.1007V42.3963H39.7732ZM38.2553 42.3963H37.9278V42.7238H38.2553V42.3963ZM38.2553 38.4712H38.5829V38.1436H38.2553V38.4712ZM37.188 38.4712V38.1436H36.8604V38.4712H37.188ZM37.188 38.4712V38.7988H37.5155V38.4712H37.188ZM36.3339 38.4712V38.1437H36.0063V38.4712H36.3339ZM36.3339 42.3963V42.7238H36.6614V42.3963H36.3339ZM32.8949 42.3963H32.5673V42.7238H32.8949V42.3963ZM32.8949 38.4712H33.2224V38.1436H32.8949V38.4712ZM31.7485 47.2854V38.4712H31.0933V47.2854H31.7485ZM32.8949 46.9578H31.4209V47.6129H32.8949V46.9578ZM32.5673 43.7121V47.2854H33.2224V43.7121H32.5673ZM36.3339 43.3845H32.8949V44.0396H36.3339V43.3845ZM36.6614 47.2854V43.7121H36.0063V47.2854H36.6614ZM38.0563 46.9578H36.3339V47.6129H38.0563V46.9578ZM37.7288 47.2854V47.2854H38.3839V47.2854H37.7288ZM38.2553 46.9578H38.0563V47.6129H38.2553V46.9578ZM37.9278 43.7121V47.2854H38.5829V43.7121H37.9278ZM39.7732 43.3845H38.2553V44.0396H39.7732V43.3845ZM40.1007 47.2854V43.7121H39.4456V47.2854H40.1007ZM41.2472 46.9578H39.7732V47.6129H41.2472V46.9578ZM40.9196 38.4712V47.2854H41.5747V38.4712H40.9196ZM39.7732 38.7988H41.2472V38.1437H39.7732V38.7988ZM40.1007 42.3963V38.4712H39.4456V42.3963H40.1007ZM38.2553 42.7238H39.7732V42.0687H38.2553V42.7238ZM37.9278 38.4712V42.3963H38.5829V38.4712H37.9278ZM37.188 38.7987H38.2553V38.1436H37.188V38.7987ZM37.5155 38.4712V38.4712H36.8604V38.4712H37.5155ZM36.3339 38.7988H37.188V38.1437H36.3339V38.7988ZM36.6614 42.3963V38.4712H36.0063V42.3963H36.6614ZM32.8949 42.7238H36.3339V42.0687H32.8949V42.7238ZM32.5673 38.4712V42.3963H33.2224V38.4712H32.5673ZM31.4209 38.7987H32.8949V38.1436H31.4209V38.7987Z" fill="#2194A6" fill-opacity="0.4" mask="url(#path-7-outside-1_789_14842)"/>
<path d="M29.4555 41.3831H28.0452C27.9618 41.0721 27.8159 40.7989 27.6073 40.5636C27.4026 40.3282 27.1524 40.1305 26.8567 39.9707C26.5648 39.808 26.2406 39.6859 25.8843 39.6046C25.5279 39.5232 25.1564 39.4825 24.7697 39.4825C24.0645 39.4825 23.4257 39.6191 22.8533 39.8923C22.2846 40.1654 21.8316 40.5679 21.4941 41.0997C21.1605 41.6315 20.9937 42.2839 20.9937 43.0569C20.9937 43.83 21.1605 44.4824 21.4941 45.0142C21.8316 45.546 22.2846 45.9485 22.8533 46.2216C23.4257 46.4948 24.0645 46.6314 24.7697 46.6314C25.1564 46.6314 25.5279 46.5907 25.8843 46.5093C26.2406 46.428 26.5648 46.3074 26.8567 46.1475C27.1524 45.9848 27.4026 45.7857 27.6073 45.5503C27.8159 45.312 27.9618 45.0389 28.0452 44.7308H29.4555C29.3494 45.1871 29.156 45.5954 28.8755 45.9557C28.5949 46.3161 28.2461 46.6227 27.8291 46.8755C27.4121 47.1254 26.9439 47.3158 26.4245 47.4465C25.9089 47.5773 25.3573 47.6427 24.7697 47.6427C23.7764 47.6427 22.8931 47.4567 22.1197 47.0847C21.3463 46.7128 20.7378 46.1839 20.2942 45.498C19.8507 44.8122 19.6289 43.9985 19.6289 43.0569C19.6289 42.1154 19.8507 41.3017 20.2942 40.6159C20.7378 39.93 21.3463 39.4011 22.1197 39.0292C22.8931 38.6572 23.7764 38.4712 24.7697 38.4712C25.3573 38.4712 25.9089 38.5366 26.4245 38.6674C26.9439 38.7981 27.4121 38.9899 27.8291 39.2427C28.2461 39.4927 28.5949 39.7978 28.8755 40.1582C29.156 40.5156 29.3494 40.9239 29.4555 41.3831Z" fill="#00352C"/>
<path d="M29.6615 41.5468H29.4555H28.0452H27.9196L27.887 41.4255C27.81 41.1385 27.676 40.8881 27.4847 40.6721L27.4838 40.671L27.4838 40.671C27.2929 40.4516 27.0586 40.266 26.7788 40.1148L26.7769 40.1138L26.777 40.1138C26.4998 39.9593 26.1904 39.8425 25.8478 39.7642C25.5041 39.6857 25.1448 39.6463 24.7697 39.6463C24.0863 39.6463 23.472 39.7785 22.924 40.04C22.3831 40.2998 21.9536 40.6815 21.6327 41.1871C21.319 41.6873 21.1575 42.3078 21.1575 43.0569C21.1575 43.8061 21.319 44.4265 21.6326 44.9268C21.9535 45.4324 22.3831 45.814 22.924 46.0739C23.472 46.3354 24.0863 46.4676 24.7697 46.4676C25.1448 46.4676 25.5041 46.4282 25.8478 46.3497C26.1908 46.2713 26.5005 46.1558 26.7779 46.0039C27.0581 45.8498 27.2927 45.6625 27.4838 45.4429L27.4841 45.4425C27.6761 45.2231 27.8102 44.9722 27.8871 44.688L27.9199 44.5671H28.0452H29.4555H29.6618L29.615 44.7679C29.5036 45.2467 29.3002 45.6768 29.0047 46.0563C28.7111 46.4335 28.3469 46.7531 27.914 47.0155L27.9133 47.016C27.4813 47.2749 26.998 47.471 26.4648 47.6053C25.9347 47.7397 25.3695 47.8065 24.7697 47.8065C23.7557 47.8065 22.8475 47.6165 22.0487 47.2323C21.2496 46.848 20.6175 46.2994 20.1567 45.587C19.6935 44.8708 19.4651 44.0251 19.4651 43.0569C19.4651 42.0888 19.6935 41.2431 20.1567 40.5269C20.6175 39.8145 21.2496 39.2659 22.0487 38.8816C22.8475 38.4974 23.7557 38.3074 24.7697 38.3074C25.3694 38.3074 25.9346 38.3741 26.4646 38.5086C26.9981 38.6429 27.4815 38.8405 27.9137 39.1025M29.6615 41.5468L27.8291 39.2427M29.6615 41.5468L29.6151 41.3462C29.5038 40.8646 29.3003 40.4343 29.0045 40.0573M29.6615 41.5468L28.8755 40.1582M27.9137 39.1025C27.9138 39.1026 27.9139 39.1026 27.914 39.1027L27.8291 39.2427M27.9137 39.1025C27.9136 39.1024 27.9134 39.1023 27.9133 39.1023L27.8291 39.2427M27.9137 39.1025C28.3467 39.362 28.7109 39.6802 29.0045 40.0573M27.8291 39.2427C28.2461 39.4927 28.5949 39.7978 28.8755 40.1582M29.0045 40.0573C29.0044 40.0572 29.0044 40.0571 29.0043 40.057L28.8755 40.1582M29.0045 40.0573C29.0046 40.0574 29.0046 40.0575 29.0047 40.0575L28.8755 40.1582M29.4555 44.7308C29.4427 44.7861 29.4285 44.8407 29.4131 44.8946H29.4555V44.7308ZM29.4555 44.7308L29.296 44.6937C29.2931 44.7061 29.2902 44.7185 29.2871 44.7308H29.4555ZM29.4555 41.3831H29.2872C29.2902 41.3953 29.2931 41.4076 29.296 41.4199L29.4555 41.3831ZM29.4555 41.3831V41.2193H29.4133C29.4287 41.2731 29.4427 41.3277 29.4555 41.3831Z" stroke="#2194A6" stroke-opacity="0.4" stroke-width="0.327554"/>
<path d="M7.83691 47.6427V38.4712H17.5379V40.1696L9.7834 40.1696V42.5554L15.2069 42.5554V43.9062L9.7834 43.9062V46.284H17.6635V47.6427H7.83691Z" fill="#00352C"/>
<path d="M7.67314 47.6427V47.8065H7.83691H17.6635H17.8273V47.6427V46.284V46.1202H17.6635H9.94718V44.0699L15.2069 44.0699H15.3707V43.9062V42.5554V42.3916H15.2069L9.94718 42.3916V40.3334H17.5379L17.7017 40.3334V40.1696V38.4712V38.3074H17.5379H7.83691H7.67314V38.4712V47.6427Z" stroke="#2194A6" stroke-opacity="0.4" stroke-width="0.327554"/>
<path d="M39.3779 53.8839V50.5908H42.0412V50.9446H39.9123V52.0573H41.9033V52.411H39.9123V53.5301H42.0757V53.8839H39.3779Z" fill="#00352C"/>
<path d="M39.2142 53.8839V54.0477H39.3779H42.0757H42.2395V53.8839V53.5301V53.3664H42.0757H40.0761V52.5748H41.9033H42.0671V52.411V52.0573V51.8935H41.9033H40.0761V51.1083H42.0412H42.205V50.9446V50.5908V50.427H42.0412H39.3779H39.2142V50.5908V53.8839Z" stroke="#2194A6" stroke-opacity="0.4" stroke-width="0.327554"/>
<path d="M35.4961 53.8839V50.5908H36.9872C37.332 50.5908 37.615 50.6348 37.8362 50.7227C38.0574 50.8095 38.2212 50.929 38.3275 51.0812C38.4338 51.2335 38.4869 51.4066 38.4869 51.6006C38.4869 51.7946 38.4338 51.9667 38.3275 52.1168C38.2212 52.2668 38.0581 52.3847 37.8383 52.4705C37.6186 52.5552 37.3377 52.5975 36.9958 52.5975H35.7891V52.2373H36.9786C37.2142 52.2373 37.4038 52.2116 37.5474 52.1602C37.6925 52.1087 37.7974 52.0358 37.862 51.9415C37.9281 51.8461 37.9612 51.7325 37.9612 51.6006C37.9612 51.4688 37.9281 51.3535 37.862 51.2549C37.796 51.1563 37.6904 51.0802 37.5453 51.0266C37.4002 50.9719 37.2084 50.9446 36.97 50.9446H36.0305V53.8839H35.4961ZM37.5733 52.4046L38.6593 53.8839H38.0387L36.97 52.4046H37.5733Z" fill="#00352C"/>
<path d="M37.5474 52.1602C37.6925 52.1087 37.7974 52.0358 37.862 51.9415C37.9281 51.8461 37.9612 51.7325 37.9612 51.6006C37.9612 51.4688 37.9281 51.3535 37.862 51.2549C37.796 51.1563 37.6904 51.0802 37.5453 51.0266C37.4002 50.9719 37.2084 50.9446 36.97 50.9446L37.5474 52.1602ZM37.5474 52.1602C37.4038 52.2116 37.2142 52.2373 36.9786 52.2373H36.1943L37.5474 52.1602ZM35.3323 53.8839V54.0477H35.4961H36.0305H36.1943V53.8839V52.7613H36.9958C37.0058 52.7613 37.0157 52.7613 37.0256 52.7612L37.906 53.9798L37.955 54.0477H38.0387H38.6593H38.9827L38.7913 53.787L37.928 52.611C38.1552 52.5175 38.3372 52.3864 38.4611 52.2114C38.5881 52.0321 38.6507 51.8266 38.6507 51.6006C38.6507 51.3746 38.5882 51.1685 38.4618 50.9875C38.3325 50.8023 38.1391 50.6657 37.8963 50.5703C37.6494 50.4723 37.344 50.427 36.9872 50.427H35.4961H35.3323V50.5908V53.8839ZM36.9786 52.0736H36.1943V51.1083H36.97C37.1982 51.1083 37.3681 51.1348 37.4875 51.1798L37.4875 51.1798L37.4885 51.1802C37.611 51.2255 37.6842 51.2837 37.726 51.3461C37.772 51.4148 37.7974 51.4975 37.7974 51.6006C37.7974 51.7038 37.772 51.7839 37.7274 51.8482L37.7269 51.8489C37.6876 51.9063 37.6163 51.962 37.4927 52.0058L37.4922 52.006C37.3732 52.0486 37.2045 52.0736 36.9786 52.0736Z" stroke="#2194A6" stroke-opacity="0.4" stroke-width="0.327554"/>
<path d="M33.896 50.5908H34.4304V52.7712C34.4304 52.9963 34.3593 53.1973 34.2171 53.3742C34.0763 53.55 33.8774 53.6888 33.6202 53.7906C33.3631 53.8914 33.0614 53.9418 32.7152 53.9418C32.369 53.9418 32.0673 53.8914 31.8102 53.7906C31.5531 53.6888 31.3534 53.55 31.2112 53.3742C31.0704 53.1973 31 52.9963 31 52.7712V50.5908H31.5344V52.739C31.5344 52.8998 31.5818 53.0429 31.6766 53.1683C31.7714 53.2927 31.9064 53.3908 32.0817 53.4626C32.2584 53.5333 32.4696 53.5687 32.7152 53.5687C32.9609 53.5687 33.172 53.5333 33.3487 53.4626C33.5254 53.3908 33.6604 53.2927 33.7538 53.1683C33.8486 53.0429 33.896 52.8998 33.896 52.739V50.5908Z" fill="#00352C"/>
<path d="M33.896 50.427H33.7323V50.5908V52.739C33.7323 52.865 33.696 52.9733 33.6232 53.0696L33.6228 53.07C33.551 53.1657 33.4426 53.2476 33.2874 53.3107C33.1349 53.3717 32.9456 53.4049 32.7152 53.4049C32.4849 53.4049 32.2957 53.3717 32.1432 53.3108C31.9897 53.2478 31.8807 53.1658 31.8071 53.0693C31.7344 52.9731 31.6982 52.8649 31.6982 52.739V50.5908V50.427H31.5344H31H30.8362V50.5908V52.7712C30.8362 53.0335 30.9193 53.2704 31.083 53.4762L31.083 53.4762L31.0838 53.4772C31.2473 53.6793 31.4724 53.833 31.7499 53.9429L31.7504 53.9431C32.0308 54.053 32.3535 54.1055 32.7152 54.1055C33.0769 54.1055 33.3996 54.053 33.68 53.9431L33.6805 53.9429C33.9581 53.833 34.1826 53.6792 34.3448 53.4767C34.5101 53.271 34.5942 53.0339 34.5942 52.7712V50.5908V50.427H34.4304H33.896Z" stroke="#2194A6" stroke-opacity="0.4" stroke-width="0.327554"/>
<path d="M26.8643 50.9446V50.5908H30.174V50.9446H28.7863V53.8839H28.2519V50.9446H26.8643Z" fill="#00352C"/>
<path d="M26.7005 50.9446V51.1083H26.8643H28.0882V53.8839V54.0477H28.2519H28.7863H28.9501V53.8839V51.1083H30.174H30.3378V50.9446V50.5908V50.427H30.174H26.8643H26.7005V50.5908V50.9446Z" stroke="#2194A6" stroke-opacity="0.4" stroke-width="0.327554"/>
<path d="M23.7028 53.8839H23.1426L24.763 50.5908H25.3146L26.935 53.8839H26.3748L25.056 51.1118H25.0216L23.7028 53.8839ZM23.9097 52.5975H26.1679V52.9513H23.9097V52.5975Z" fill="#00352C"/>
<path d="M23.7028 54.0477H23.8063L23.8507 53.9542L24.2499 53.115H25.8276L26.2269 53.9542L26.2713 54.0477H26.3748H26.935H27.1981L27.0819 53.8116L25.4616 50.5185L25.4165 50.427H25.3146H24.763H24.661L24.616 50.5185L22.9956 53.8116L22.8795 54.0477H23.1426H23.7028ZM25.0388 51.4568L25.5035 52.4337H24.574L25.0388 51.4568Z" stroke="#2194A6" stroke-opacity="0.4" stroke-width="0.327554"/>
<path d="M22.4515 50.5908V53.8839H21.9344L19.5296 51.2983H19.4865V53.8839H18.9521V50.5908H19.4693L21.8827 53.1828H21.9258V50.5908H22.4515Z" fill="#00352C"/>
<path d="M22.6153 50.5908V50.427H22.4515H21.9258H21.762V50.5908V52.8129L19.5892 50.4792L19.5406 50.427H19.4693H18.9521H18.7884V50.5908V53.8839V54.0477H18.9521H19.4865H19.6503V53.8839V51.6686L21.8144 53.9954L21.863 54.0477H21.9344H22.4515H22.6153V53.8839V50.5908Z" stroke="#2194A6" stroke-opacity="0.4" stroke-width="0.327554"/>
</svg>
