<svg width="234" height="76" viewBox="0 0 234 76" fill="none" xmlns="http://www.w3.org/2000/svg">
<rect width="232.958" height="76" transform="translate(0.945312)" fill="#474350"/>
<path d="M28.7938 66.2217C27.3888 66.2217 25.9398 65.8046 24.447 64.9704C22.998 64.1361 21.571 62.7969 20.1659 60.9528C19.0683 59.4599 18.256 57.7256 17.7291 55.7497C17.2022 53.8178 16.9387 51.9078 16.9387 50.0198C16.9387 49.0538 17.0046 48.1098 17.1363 47.1877C17.268 46.1778 17.5315 45.0362 17.9267 43.7629C18.3657 42.4896 18.8048 41.4358 19.2439 40.6015C19.3756 40.3381 19.5732 40.0527 19.8366 39.7453C20.1001 39.438 20.2977 39.2843 20.4294 39.2843C20.4733 39.2843 20.4953 39.3063 20.4953 39.3502C20.4953 39.3941 20.2977 39.8551 19.9025 40.7333C18.8048 42.9286 18.256 45.3655 18.256 48.0439C18.256 50.4588 18.6292 52.8299 19.3756 55.157C20.1659 57.4402 21.1758 59.416 22.4052 61.0845C23.5908 62.6652 24.7543 63.8068 25.8959 64.5093C27.0375 65.2119 28.1572 65.5631 29.2549 65.5631C30.8355 65.5631 32.3065 64.9045 33.6676 63.5873C35.0287 62.3139 36.1703 60.6674 37.0924 58.6476C37.751 57.2865 38.2999 55.5082 38.7389 53.3128C39.178 51.0735 39.5293 48.5708 39.7927 45.8046C40.0562 43.0384 40.1659 40.2064 40.122 37.3085V36.7157C38.5853 37.3743 37.0924 38.1647 35.6434 39.0867C34.2384 39.9649 32.8773 40.9528 31.56 42.0505C31.4283 42.1822 31.2966 42.2481 31.1649 42.2481C30.9014 42.2481 30.6819 42.0944 30.5062 41.787C30.3306 41.4358 30.2428 41.1065 30.2428 40.7991C30.2428 40.2722 30.3965 39.921 30.7038 39.7453C32.1967 38.6037 33.7115 37.6597 35.2483 36.9133C36.829 36.1668 38.4535 35.5741 40.122 35.135C40.0781 32.281 39.8147 29.4929 39.3317 26.7706C38.8926 24.0483 38.2999 21.5236 37.5534 19.1965C36.8509 16.8694 36.0606 14.8935 35.1824 13.2689L35.1166 13.2031C32.1747 13.247 29.3207 13.5543 26.5545 14.1251C23.8322 14.652 21.3954 15.4643 19.2439 16.562C17.0924 17.6158 15.38 18.9769 14.1067 20.6454C12.8773 22.27 12.2625 24.2239 12.2625 26.5071C12.2625 27.4731 12.3504 28.3732 12.526 29.2075C12.7455 29.9978 13.0968 30.6784 13.5798 31.2492C13.8432 31.5126 13.975 31.7541 13.975 31.9737C13.975 32.2371 13.8432 32.3688 13.5798 32.3688C13.3163 32.3688 13.0529 32.2151 12.7894 31.9078C12.043 31.0296 11.56 30.0637 11.3405 29.0099C11.077 27.9561 10.9453 26.9023 10.9453 25.8485C10.9453 23.697 11.4283 21.809 12.3943 20.1844C13.4041 18.5598 14.7214 17.1767 16.346 16.0351C18.0145 14.8496 19.8366 13.9056 21.8125 13.2031C23.7883 12.4566 25.7861 11.8858 27.8059 11.4907C29.8696 11.0955 31.7576 10.876 33.47 10.8321C32.8553 10.1295 32.2845 9.7124 31.7576 9.58068C31.2746 9.40505 30.8355 9.33919 30.4404 9.38309C30.0891 9.38309 29.7818 9.29528 29.5183 9.11965C29.3427 8.98793 29.2549 8.83425 29.2549 8.65862C29.2549 8.21954 29.8257 8 30.9673 8C31.8015 8 32.7455 8.21954 33.7993 8.65862C34.897 9.05379 35.8849 9.77826 36.7631 10.8321C38.7829 10.876 41.0441 11.0735 43.5468 11.4248C46.0496 11.7761 48.5084 12.3469 50.9234 13.1372C53.3383 13.9276 55.4459 15.0033 57.2461 16.3644C59.0463 17.6817 60.2318 19.3721 60.8026 21.4358C60.8465 21.5675 60.8685 21.7651 60.8685 22.0285C60.8685 22.4237 60.7587 22.6213 60.5392 22.6213C60.3196 22.6213 60.1001 22.3578 59.8805 21.831C59.3976 20.0746 58.1023 18.5818 55.9947 17.3524C53.8871 16.1229 51.2746 15.157 48.1572 14.4544C45.0836 13.708 41.8125 13.2909 38.3438 13.2031C39.2658 14.9594 39.9903 17.0231 40.5172 19.3941C41.088 21.7651 41.5051 24.2678 41.7686 26.9023C42.0759 29.4929 42.2735 32.0615 42.3613 34.6081C43.6347 34.3447 44.9299 34.169 46.2472 34.0812C47.5644 33.9495 48.9036 33.8836 50.2647 33.8836C50.616 33.8836 50.9234 33.9495 51.1868 34.0812C51.4503 34.169 51.582 34.2569 51.582 34.3447C51.582 34.6081 51.0331 34.7398 49.9354 34.7398C47.3449 34.7398 44.8202 35.1131 42.3613 35.8595C42.3613 36.2986 42.3613 36.7596 42.3613 37.2426C42.4052 37.7256 42.4272 38.1866 42.4272 38.6257C42.4272 40.6454 42.3613 42.4896 42.2296 44.1581C42.1418 45.7827 42.054 47.0999 41.9662 48.1098C41.6149 51.3589 40.8026 54.3666 39.5293 57.1328C38.256 59.899 36.6753 62.0944 34.7872 63.719C32.9431 65.3875 30.9453 66.2217 28.7938 66.2217Z" fill="#48944F"/>
<path d="M60.3483 58.7135C58.9432 58.7135 57.8675 58.0549 57.121 56.7377C56.3746 55.4643 56.0014 54.0593 56.0014 52.5225C56.0014 51.0735 56.2429 49.5587 56.7259 47.978C57.2089 46.3974 57.8016 44.8386 58.5041 43.3019C59.2506 41.7651 60.019 40.36 60.8093 39.0867C60.019 39.3941 59.2725 39.5478 58.57 39.5478C58.2187 39.5478 57.9114 39.5038 57.6479 39.416C57.3845 39.3282 57.165 39.2623 56.9893 39.2184C56.7698 39.7453 56.3746 40.6235 55.8038 41.8529C55.2769 43.0823 54.7061 44.3776 54.0914 45.7387C53.5206 47.056 53.0157 48.1756 52.5766 49.0977C51.8741 50.5906 51.2594 51.337 50.7325 51.337C50.469 51.337 50.3373 51.1614 50.3373 50.8101C50.3373 50.5467 50.4471 50.1954 50.6666 49.7563C51.6765 47.8683 52.6205 46.0022 53.4987 44.1581C54.4207 42.3139 55.255 40.5357 56.0014 38.8233C55.9136 38.6037 55.8258 38.3183 55.738 37.9671C55.6501 37.5719 55.6062 37.1548 55.6062 36.7157C55.6062 36.2327 55.6501 35.7278 55.738 35.2009C55.8697 34.6301 56.0453 34.0812 56.2648 33.5543C56.3966 33.247 56.6381 32.8079 56.9893 32.2371C57.3406 31.6224 57.7358 31.0735 58.1748 30.5906C58.6139 30.0637 59.031 29.8002 59.4262 29.8002C60.1726 29.8002 60.5459 30.1954 60.5459 30.9857C60.5459 31.7322 60.3044 32.5884 59.8214 33.5543C59.3823 34.5203 58.9213 35.4204 58.4383 36.2547C57.9553 37.045 57.7138 37.6378 57.7138 38.0329C57.7138 38.3842 57.8894 38.5598 58.2407 38.5598C58.7237 38.5598 59.3164 38.3183 60.019 37.8353C60.7654 37.3085 61.3581 36.8255 61.7972 36.3864C62.0168 36.1669 62.368 35.8375 62.851 35.3985C63.334 34.9155 63.795 34.674 64.2341 34.674C64.6732 34.674 64.9586 34.8057 65.0903 35.0692C65.2659 35.3326 65.3538 35.64 65.3538 35.9912C65.3538 36.3864 65.1781 36.8913 64.8269 37.506C64.4756 38.0768 64.0585 38.6476 63.5755 39.2184C63.1364 39.7892 62.7632 40.2722 62.4558 40.6674C61.8411 41.5895 61.1386 42.753 60.3483 44.1581C59.5579 45.5631 58.8774 47.0779 58.3066 48.7025C57.7358 50.2832 57.4504 51.798 57.4504 53.247C57.4504 54.213 57.6918 55.2228 58.1748 56.2766C58.6578 57.3304 59.3164 57.8573 60.1507 57.8573C60.8971 57.8573 61.6875 57.4621 62.5217 56.6718C63.3999 55.8815 64.2122 54.9374 64.9586 53.8397C65.7489 52.742 66.4295 51.6883 67.0003 50.6784C67.615 49.6685 68.0321 48.966 68.2517 48.5708C68.3395 48.3513 68.4932 48.0878 68.7127 47.7805C68.9322 47.4292 69.1957 47.2536 69.503 47.2536C69.7665 47.2536 69.8982 47.3853 69.8982 47.6487C69.8982 47.8683 69.8324 48.1317 69.7006 48.4391C69.6128 48.7025 69.525 48.944 69.4372 49.1636C69.042 50.0856 68.559 51.0516 67.9882 52.0615C67.4174 53.0714 67.0223 53.7519 66.8027 54.1032C66.188 55.1131 65.2659 56.1229 64.0365 57.1328C62.851 58.1866 61.6216 58.7135 60.3483 58.7135Z" fill="#48944F"/>
<path d="M74.366 56.2766C72.7853 56.2766 71.4022 55.3546 70.2167 53.5104C69.0751 51.6224 68.5043 48.6586 68.5043 44.6191C68.5043 41.9846 68.8336 39.8771 69.4922 38.2964C70.1509 36.6718 70.9632 35.4863 71.9291 34.7398C72.8951 33.9934 73.8172 33.6202 74.6953 33.6202C75.5735 33.6202 76.3199 33.9276 76.9346 34.5423C77.5493 35.1131 77.8567 35.9473 77.8567 37.045C77.8567 38.0988 77.5493 39.2184 76.9346 40.404C76.3199 41.5456 75.5735 42.5993 74.6953 43.5653C73.8611 44.4874 73.0268 45.1021 72.1926 45.4094C72.0169 45.4973 71.7974 45.5412 71.534 45.5412C71.3583 45.5412 71.2705 45.4753 71.2705 45.3436C71.2705 44.9923 71.6218 44.5971 72.3243 44.1581C73.2024 43.5434 74.0367 42.6213 74.827 41.3919C75.6174 40.1185 76.0126 38.9989 76.0126 38.0329C76.0126 37.4621 75.8808 37.0231 75.6174 36.7157C75.3539 36.3644 75.0466 36.1888 74.6953 36.1888C74.0367 36.1888 73.3122 36.7157 72.5219 37.7695C71.7754 38.7794 71.2266 40.5357 70.8753 43.0384C70.7875 43.7409 70.6997 44.4215 70.6119 45.0801C70.568 45.6948 70.546 46.3096 70.546 46.9243C70.546 49.3831 70.9192 51.315 71.6657 52.7201C72.4121 54.0812 73.4 54.7618 74.6295 54.7618C75.6832 54.7618 76.8688 54.1471 78.186 52.9177C79.5032 51.6443 80.7985 49.6685 82.0718 46.9901C82.3792 46.2876 82.7304 45.9363 83.1256 45.9363C83.3891 45.9363 83.5208 46.112 83.5208 46.4632C83.5208 46.7706 83.433 47.0999 83.2573 47.4512C82.1157 50.2612 80.7326 52.4347 79.108 53.9715C77.4835 55.5082 75.9028 56.2766 74.366 56.2766Z" fill="#48944F"/>
<path d="M83.0098 57.6597C82.1756 57.6597 81.6048 57.4182 81.2974 56.9352C81.1218 56.6718 81.034 56.3864 81.034 56.079C81.034 55.7278 81.1877 55.3106 81.495 54.8277C81.8024 54.3447 82.3512 53.9056 83.1416 53.5104C83.2294 53.4665 83.5587 53.2689 84.1295 52.9177C84.7442 52.5664 85.1174 52.3688 85.2491 52.3249C84.9857 51.3589 84.5247 50.393 83.866 49.427C83.2074 48.4171 82.6147 47.2755 82.0878 46.0022C81.5609 44.7289 81.3413 43.1482 81.4292 41.2602C81.517 39.4599 82 37.9012 82.8781 36.584C83.7563 35.2667 84.8759 34.191 86.2371 33.3568C87.6421 32.5225 89.0911 31.9517 90.5839 31.6443C90.9352 31.5565 91.3084 31.4907 91.7036 31.4468C92.0987 31.4029 92.4939 31.3809 92.8891 31.3809C93.9868 31.3809 94.9528 31.5126 95.787 31.7761C96.6652 32.0395 97.4116 32.4786 98.0263 33.0933C98.6849 33.708 99.0142 34.3886 99.0142 35.135C99.0142 35.618 98.8605 36.101 98.5532 36.584C98.4654 36.7596 98.3337 36.9352 98.158 37.1109C97.9824 37.2865 97.7628 37.3743 97.4994 37.3743C97.3238 37.3743 97.236 37.2426 97.236 36.9791C97.236 36.7596 97.2799 36.4742 97.3677 36.1229C97.4994 35.7717 97.5872 35.5521 97.6311 35.4643C97.675 35.3765 97.697 35.2228 97.697 35.0033C97.697 34.5203 97.5653 34.1251 97.3018 33.8178C96.9945 33.4226 96.5115 33.1811 95.8529 33.0933C95.2382 33.0055 94.6674 32.9616 94.1405 32.9616C92.6037 32.9616 91.0889 33.3787 89.596 34.213C88.1031 35.0472 86.7859 36.1229 85.6443 37.4402C84.5466 38.7135 83.7782 40.0746 83.3391 41.5236C83.2074 41.9188 83.1196 42.3139 83.0757 42.7091C83.0318 43.0604 83.0098 43.4116 83.0098 43.7629C83.0098 45.2997 83.3611 46.7706 84.0636 48.1756C84.7661 49.5807 85.3809 50.876 85.9077 52.0615C87.1372 51.4029 88.2349 50.9418 89.2008 50.6784C89.3326 50.6345 89.4423 50.6125 89.5301 50.6125C89.6619 50.6125 89.7497 50.6125 89.7936 50.6125C90.0131 50.6125 90.1229 50.6784 90.1229 50.8101C90.1229 51.0296 89.8375 51.2492 89.2667 51.4687C89.135 51.5126 88.8057 51.6443 88.2788 51.8639C87.7519 52.0834 87.1152 52.3908 86.3688 52.7859C86.5883 53.3568 86.6981 53.9056 86.6981 54.4325C86.6981 54.9594 86.5664 55.4643 86.3029 55.9473C86.0395 56.4303 85.5784 56.8255 84.9198 57.1328C84.2612 57.4841 83.6245 57.6597 83.0098 57.6597ZM83.2074 55.8815C83.2513 56.1888 83.4489 56.2547 83.8002 56.079C84.1953 55.9034 84.5905 55.596 84.9857 55.157C85.3809 54.7179 85.5784 54.2788 85.5784 53.8397C85.5784 53.7519 85.5784 53.6641 85.5784 53.5763C85.6224 53.4446 85.6224 53.3128 85.5784 53.1811C84.9198 53.5763 84.349 54.0154 83.866 54.4984C83.383 54.9374 83.1635 55.3985 83.2074 55.8815Z" fill="#48944F"/>
<path d="M105.018 66.9462C104.009 66.9462 103.24 66.5291 102.713 65.6948C102.23 64.8606 101.989 63.8946 101.989 62.7969C101.989 61.4797 102.23 59.9649 102.713 58.2525C103.24 56.584 103.877 54.8716 104.623 53.1153C105.37 51.315 106.138 49.5807 106.928 47.9122C107.763 46.2437 108.487 44.7508 109.102 43.4336C109.76 42.1164 110.2 41.1065 110.419 40.404C110.683 39.6136 110.814 39.0209 110.814 38.6257C110.814 38.1866 110.661 37.9671 110.353 37.9671C110.002 37.9671 109.475 38.2525 108.773 38.8233C108.114 39.3502 107.455 39.9429 106.797 40.6015C106.182 41.2602 105.743 41.7431 105.479 42.0505C104.074 43.6312 102.801 45.3875 101.66 47.3194C100.562 49.2514 99.8812 50.8979 99.6178 52.2591C99.5739 52.4786 99.4861 52.8738 99.3543 53.4446C99.2665 54.0154 99.0689 54.2788 98.7616 54.2349C98.3225 54.1471 98.0152 53.8836 97.8395 53.4446C97.7078 52.9616 97.62 52.5225 97.5761 52.1273C97.5761 51.9078 97.5541 51.6883 97.5102 51.4687C97.5102 51.2053 97.5102 50.9418 97.5102 50.6784C97.5102 48.5269 97.7517 46.09 98.2347 43.3677C98.7177 40.6454 99.3324 37.8573 100.079 35.0033C100.869 32.1493 101.703 29.4929 102.582 27.034C103.46 24.5752 104.294 22.5335 105.084 20.9089C105.479 20.1185 105.919 19.3721 106.402 18.6696C106.885 17.9232 107.368 17.5499 107.851 17.5499C108.158 17.5499 108.421 17.7036 108.641 18.011C108.904 18.3183 109.036 18.5818 109.036 18.8013C109.036 18.9769 108.729 19.6795 108.114 20.9089C107.543 22.0944 106.797 23.6751 105.875 25.6509C104.953 27.5829 104.009 29.8002 103.043 32.303C102.121 34.8057 101.286 37.4841 100.54 40.3381C99.7934 43.1921 99.2885 46.09 99.025 49.0318C99.025 49.0757 99.0031 49.2953 98.9592 49.6904C98.9153 50.0856 98.8714 50.4808 98.8274 50.876C98.8274 51.2711 98.8274 51.4687 98.8274 51.4687V51.4029H98.8933C98.9811 50.876 99.1348 50.371 99.3543 49.888C99.6178 49.405 99.8812 48.944 100.145 48.5049C101.462 45.8705 103.152 43.3458 105.216 40.9308C106.226 39.7892 107.28 38.8013 108.377 37.9671C109.475 37.0889 110.617 36.6498 111.802 36.6498C112.285 36.6498 112.702 36.7816 113.054 37.045C113.405 37.3085 113.58 37.8134 113.58 38.5598C113.58 39.5258 113.251 40.6674 112.593 41.9846C111.978 43.258 111.209 44.5971 110.287 46.0022C109.409 47.3633 108.597 48.6586 107.851 49.888C106.841 51.6004 105.919 53.4226 105.084 55.3546C104.294 57.2426 103.899 59.2184 103.899 61.2821C103.899 61.8968 103.943 62.5554 104.031 63.258C104.162 63.9605 104.36 64.5532 104.623 65.0362C104.931 65.5631 105.348 65.8266 105.875 65.8266C106.226 65.8266 106.555 65.7168 106.863 65.4973C107.214 65.3216 107.499 65.146 107.719 64.9704C108.114 64.5752 108.377 64.3776 108.509 64.3776C108.641 64.3776 108.707 64.4435 108.707 64.5752C108.707 64.8386 108.597 65.0801 108.377 65.2997C108.158 65.5631 107.938 65.7607 107.719 65.8924C107.411 66.1559 106.994 66.3974 106.467 66.6169C105.984 66.8364 105.501 66.9462 105.018 66.9462Z" fill="#48944F"/>
<path d="M173.046 68C171.817 68 170.785 67.4731 169.951 66.4193C169.117 65.4094 168.502 64.1581 168.107 62.6652C167.712 61.1723 167.514 59.7453 167.514 58.3842C167.514 55.7497 167.887 52.8299 168.634 49.6246C169.38 46.4193 170.302 43.1482 171.4 39.8112C172.541 36.4742 173.705 33.2689 174.891 30.1954C176.12 27.0779 177.218 24.2678 178.184 21.7651C179.15 19.2623 179.83 17.2645 180.225 15.7717C180.313 15.3765 180.379 15.0252 180.423 14.7179C180.467 14.3666 180.489 14.0812 180.489 13.8617C180.489 13.0713 180.247 12.6762 179.764 12.6762C179.062 12.6762 178.008 13.4007 176.603 14.8496C175.198 16.2547 173.617 18.1866 171.861 20.6454C170.148 23.0604 168.436 25.8046 166.724 28.8782C165.011 31.9517 163.474 35.135 162.113 38.4281C160.796 41.6773 159.874 44.8606 159.347 47.978C159.172 49.1196 158.864 49.9758 158.425 50.5466C158.03 51.1175 157.635 51.4029 157.24 51.4029C156.888 51.4029 156.581 51.1833 156.317 50.7442C156.054 50.3052 155.922 49.6685 155.922 48.8342C155.878 45.3216 155.769 41.809 155.593 38.2964C155.417 34.7398 155.022 31.337 154.408 28.0878C153.485 23.0823 152.432 19.5258 151.246 17.4182C150.105 15.3106 148.919 14.2569 147.69 14.2569C146.548 14.2569 145.428 14.9594 144.331 16.3644C143.277 17.7256 142.267 19.5477 141.301 21.831C140.335 24.0703 139.479 26.5291 138.732 29.2075C137.986 31.8858 137.393 34.5423 136.954 37.1767C136.559 39.8112 136.361 42.1603 136.361 44.2239C136.361 44.7069 136.361 45.1899 136.361 45.6729C136.405 46.112 136.449 46.5291 136.493 46.9243C136.537 47.1438 136.559 47.3853 136.559 47.6487C136.559 47.8683 136.559 48.0878 136.559 48.3074C136.559 49.3172 136.427 50.2173 136.164 51.0077C135.9 51.798 135.593 52.1932 135.242 52.1932C134.89 52.1932 134.561 51.798 134.254 51.0077C133.903 50.2173 133.617 49.2294 133.398 48.0439C133.178 46.8145 133.002 45.7827 132.871 44.9484C132.783 44.3337 132.585 43.4116 132.278 42.1822C132.015 40.9528 131.685 39.6136 131.29 38.1647C130.895 36.6718 130.434 35.2228 129.907 33.8178C129.424 32.3688 128.897 31.1394 128.326 30.1295C127.755 29.0757 127.163 28.3952 126.548 28.0878C126.46 28 126.416 27.9122 126.416 27.8244C126.416 27.6048 126.636 27.4731 127.075 27.4292C127.558 27.3853 127.887 27.4072 128.063 27.4951C128.985 27.7585 129.797 28.4171 130.5 29.4709C131.246 30.4808 131.883 31.6883 132.41 33.0933C132.981 34.4544 133.463 35.8156 133.859 37.1767C134.254 38.494 134.583 39.5917 134.847 40.4698C135.33 37.4402 135.9 34.4544 136.559 31.5126C137.262 28.5269 138.184 25.607 139.325 22.753C140.95 18.8013 142.552 15.9912 144.133 14.3227C145.714 12.6103 147.207 11.7541 148.612 11.7541C150.105 11.7541 151.444 12.5225 152.629 14.0593C153.859 15.5521 154.89 17.5499 155.725 20.0527C156.603 22.5115 157.196 25.1899 157.503 28.0878C157.679 29.5807 157.788 31.2053 157.832 32.9616C157.876 34.674 157.898 36.3644 157.898 38.0329V43.1701C157.898 43.9166 157.898 44.5971 157.898 45.2119C157.898 45.8266 157.92 46.3315 157.964 46.7267C158.271 45.6729 158.776 44.202 159.479 42.3139C160.181 40.382 161.038 38.2305 162.047 35.8595C163.057 33.4446 164.199 30.9638 165.472 28.4171C166.746 25.8705 168.107 23.4336 169.556 21.1065C171.049 18.7355 172.585 16.6718 174.166 14.9155C175.791 13.1153 177.415 11.798 179.04 10.9638C180.006 10.4808 180.906 10.2393 181.74 10.2393C182.706 10.2393 183.518 10.5247 184.177 11.0955C184.836 11.6224 185.165 12.4127 185.165 13.4665C185.165 15.0472 184.836 16.6279 184.177 18.2086C183.518 19.7453 182.728 21.2602 181.806 22.753C180.884 24.2459 180.028 25.6948 179.237 27.0999C177.832 29.6465 176.427 32.5884 175.022 35.9254C173.617 39.2623 172.432 42.7091 171.466 46.2656C170.544 49.8222 170.083 53.247 170.083 56.5401C170.083 57.5939 170.126 58.6257 170.214 59.6356C170.346 60.6454 170.544 61.6114 170.807 62.5335C171.202 63.9385 171.685 64.9045 172.256 65.4314C172.871 66.0022 173.485 66.2876 174.1 66.2876C174.759 66.2876 175.373 66.09 175.944 65.6948C176.515 65.3436 176.976 64.9484 177.327 64.5093C177.679 64.1142 177.832 63.8727 177.788 63.7849C178.184 63.6531 178.337 63.7629 178.249 64.1142C178.162 64.5093 177.986 64.9045 177.723 65.2997C177.459 65.7388 177.283 66.0022 177.196 66.09C175.659 67.3633 174.276 68 173.046 68Z" fill="#48944F"/>
<path d="M186.923 56.2766C185.342 56.2766 183.959 55.3546 182.773 53.5104C181.632 51.6224 181.061 48.6586 181.061 44.6191C181.061 41.9846 181.39 39.8771 182.049 38.2964C182.707 36.6718 183.52 35.4863 184.486 34.7398C185.452 33.9934 186.374 33.6202 187.252 33.6202C188.13 33.6202 188.876 33.9276 189.491 34.5423C190.106 35.1131 190.413 35.9473 190.413 37.045C190.413 38.0988 190.106 39.2184 189.491 40.404C188.876 41.5456 188.13 42.5993 187.252 43.5653C186.418 44.4874 185.583 45.1021 184.749 45.4094C184.574 45.4973 184.354 45.5412 184.091 45.5412C183.915 45.5412 183.827 45.4753 183.827 45.3436C183.827 44.9923 184.178 44.5971 184.881 44.1581C185.759 43.5434 186.593 42.6213 187.384 41.3919C188.174 40.1185 188.569 38.9989 188.569 38.0329C188.569 37.4621 188.437 37.0231 188.174 36.7157C187.911 36.3644 187.603 36.1888 187.252 36.1888C186.593 36.1888 185.869 36.7157 185.078 37.7695C184.332 38.7794 183.783 40.5357 183.432 43.0384C183.344 43.7409 183.256 44.4215 183.168 45.0801C183.125 45.6948 183.103 46.3096 183.103 46.9243C183.103 49.3831 183.476 51.315 184.222 52.7201C184.969 54.0812 185.957 54.7618 187.186 54.7618C188.24 54.7618 189.425 54.1471 190.743 52.9177C192.06 51.6443 193.355 49.6685 194.628 46.9901C194.936 46.2876 195.287 45.9363 195.682 45.9363C195.946 45.9363 196.077 46.112 196.077 46.4632C196.077 46.7706 195.99 47.0999 195.814 47.4512C194.672 50.2612 193.289 52.4347 191.665 53.9715C190.04 55.5082 188.459 56.2766 186.923 56.2766Z" fill="#48944F"/>
<path d="M199.979 56.2766C198.398 56.2766 197.015 55.3546 195.83 53.5104C194.688 51.6224 194.117 48.6586 194.117 44.6191C194.117 41.9846 194.447 39.8771 195.105 38.2964C195.764 36.6718 196.576 35.4863 197.542 34.7398C198.508 33.9934 199.43 33.6202 200.308 33.6202C201.187 33.6202 201.933 33.9276 202.548 34.5423C203.162 35.1131 203.47 35.9473 203.47 37.045C203.47 38.0988 203.162 39.2184 202.548 40.404C201.933 41.5456 201.187 42.5993 200.308 43.5653C199.474 44.4874 198.64 45.1021 197.806 45.4094C197.63 45.4973 197.411 45.5412 197.147 45.5412C196.971 45.5412 196.884 45.4753 196.884 45.3436C196.884 44.9923 197.235 44.5971 197.937 44.1581C198.816 43.5434 199.65 42.6213 200.44 41.3919C201.231 40.1185 201.626 38.9989 201.626 38.0329C201.626 37.4621 201.494 37.0231 201.231 36.7157C200.967 36.3644 200.66 36.1888 200.308 36.1888C199.65 36.1888 198.925 36.7157 198.135 37.7695C197.389 38.7794 196.84 40.5357 196.489 43.0384C196.401 43.7409 196.313 44.4215 196.225 45.0801C196.181 45.6948 196.159 46.3096 196.159 46.9243C196.159 49.3831 196.532 51.315 197.279 52.7201C198.025 54.0812 199.013 54.7618 200.243 54.7618C201.296 54.7618 202.482 54.1471 203.799 52.9177C205.116 51.6443 206.412 49.6685 207.685 46.9901C207.992 46.2876 208.344 45.9363 208.739 45.9363C209.002 45.9363 209.134 46.112 209.134 46.4632C209.134 46.7706 209.046 47.0999 208.87 47.4512C207.729 50.2612 206.346 52.4347 204.721 53.9715C203.097 55.5082 201.516 56.2766 199.979 56.2766Z" fill="#48944F"/>
<path d="M212.904 65.9583C212.465 65.9583 212.004 65.6729 211.521 65.1021C211.082 64.5752 210.665 63.8288 210.27 62.8628C209.611 61.2821 209.15 59.6136 208.886 57.8573C208.623 56.1449 208.491 54.4105 208.491 52.6542C208.491 50.7223 208.623 48.8342 208.886 46.9901C209.15 45.146 209.435 43.4775 209.743 41.9846C209.962 40.9308 210.226 39.8112 210.533 38.6257C210.84 37.4402 211.126 36.4962 211.389 35.7936C211.126 35.8375 210.709 35.9912 210.138 36.2547C209.567 36.5181 208.974 36.7816 208.36 37.045C207.789 37.3085 207.284 37.4402 206.845 37.4402C206.186 37.4402 205.857 37.067 205.857 36.3205C205.857 35.9254 205.989 35.5741 206.252 35.2667C206.559 34.9594 206.933 34.7179 207.372 34.5423C208.25 34.1471 209.216 33.8617 210.27 33.6861C211.323 33.4665 212.026 33.247 212.377 33.0274L214.09 28.6806C214.265 28.2415 214.572 27.539 215.012 26.573C215.495 25.5631 216.043 24.4874 216.658 23.3458C217.317 22.2042 217.953 21.1723 218.568 20.2503C219.051 19.5477 219.512 18.9989 219.951 18.6037C220.39 18.1647 220.873 17.9451 221.4 17.9451C222.19 17.9451 222.586 18.2525 222.586 18.8672C222.586 19.2184 222.432 19.7453 222.125 20.4479C221.861 21.1504 221.356 22.0724 220.61 23.2141C219.776 24.5313 218.919 25.8485 218.041 27.1658C217.207 28.4391 216.482 29.7783 215.868 31.1833C215.824 31.3589 215.714 31.6443 215.538 32.0395C215.407 32.3908 215.297 32.6103 215.209 32.6981L216.526 32.5005C216.878 32.4566 217.273 32.4347 217.712 32.4347C218.151 32.3908 218.634 32.3688 219.161 32.3688C219.907 32.3688 220.61 32.4127 221.268 32.5005C221.971 32.5445 222.542 32.6542 222.981 32.8299C223.2 32.9177 223.398 33.0274 223.574 33.1592C223.793 33.247 223.903 33.3348 223.903 33.4226C223.903 33.5982 223.332 33.6861 222.191 33.6861C221.532 33.6861 220.588 33.7958 219.358 34.0154C218.173 34.2349 216.812 34.5862 215.275 35.0692C214.529 35.2887 214.024 35.596 213.76 35.9912C213.497 36.3864 213.145 37.3304 212.706 38.8233C212.048 41.1943 211.521 43.4775 211.126 45.6729C210.731 47.8244 210.423 50.0198 210.204 52.2591C210.16 52.6981 210.116 53.1592 210.072 53.6422C210.072 54.1251 210.072 54.652 210.072 55.2228C210.072 56.7157 210.204 58.2744 210.467 59.899C210.774 61.5236 211.214 62.9286 211.784 64.1142C211.916 64.3776 212.048 64.6191 212.18 64.8386C212.355 65.0582 212.553 65.2119 212.772 65.2997C213.08 65.4314 213.233 65.5851 213.233 65.7607C213.233 65.8924 213.124 65.9583 212.904 65.9583Z" fill="#48944F"/>
</svg>
