<svg width="110" height="110" viewBox="0 0 110 110" fill="none" xmlns="http://www.w3.org/2000/svg">
<rect x="4.05418" y="4.3076" width="101.681" height="101.596" rx="50.798" fill="#F8FFF4"/>
<rect x="4.05418" y="4.3076" width="101.681" height="101.596" rx="50.798" stroke="#00B295" stroke-width="2.97164"/>
<rect x="1.57781" y="1.83123" width="106.633" height="106.549" rx="53.2743" stroke="black" stroke-width="1.98109"/>
<mask id="path-3-inside-1_789_14881" fill="white">
<path d="M39.4017 57.2362C41.567 49.085 47.3842 37.1694 47.3842 37.1694L52.1395 20.3096H54.7333L57.111 33.7046H60.1371L68.567 19.6611L71.377 20.3096L72.6485 38.3682L80.2392 41.7086C80.2392 49.2739 93.6406 48.8416 97.3152 50.787L96.9998 65.6797C94.337 69.3382 92.9965 71.5907 90.8282 75.9006C85.0612 77.5877 75.0716 74.393 71.1125 80.4804L68.6341 87.7489C62.5227 90.1751 53.6026 91.23 47.3842 90.0912C42.9249 88.9553 32.2793 83.8945 32.2793 80.4804C32.2793 77.0664 34.79 74.8826 37.024 69.5568C38.9195 65.038 38.1436 61.9722 39.4017 57.2362Z"/>
</mask>
<path d="M39.4017 57.2362C41.567 49.085 47.3842 37.1694 47.3842 37.1694L52.1395 20.3096H54.7333L57.111 33.7046H60.1371L68.567 19.6611L71.377 20.3096L72.6485 38.3682L80.2392 41.7086C80.2392 49.2739 93.6406 48.8416 97.3152 50.787L96.9998 65.6797C94.337 69.3382 92.9965 71.5907 90.8282 75.9006C85.0612 77.5877 75.0716 74.393 71.1125 80.4804L68.6341 87.7489C62.5227 90.1751 53.6026 91.23 47.3842 90.0912C42.9249 88.9553 32.2793 83.8945 32.2793 80.4804C32.2793 77.0664 34.79 74.8826 37.024 69.5568C38.9195 65.038 38.1436 61.9722 39.4017 57.2362Z" fill="#CC7F3B"/>
<path d="M39.4017 57.2362L37.487 56.7275L39.4017 57.2362ZM47.3842 37.1694L49.1644 38.0385L49.2425 37.8785L49.2909 37.7072L47.3842 37.1694ZM52.1395 20.3096V18.3285H50.6399L50.2328 19.7718L52.1395 20.3096ZM54.7333 20.3096L56.6839 19.9633L56.3937 18.3285H54.7333V20.3096ZM60.1371 33.7046V35.6856H61.2585L61.8357 34.7242L60.1371 33.7046ZM68.567 19.6611L69.0125 17.7308L67.6095 17.407L66.8685 18.6415L68.567 19.6611ZM71.377 20.3096L73.3532 20.1704L73.2503 18.7087L71.8224 18.3792L71.377 20.3096ZM72.6485 38.3682L70.6723 38.5073L70.7562 39.6999L71.8505 40.1815L72.6485 38.3682ZM80.2392 41.7086H82.2203V40.416L81.0372 39.8953L80.2392 41.7086ZM97.3152 50.787L99.2958 50.8289L99.3217 49.6076L98.2421 49.0361L97.3152 50.787ZM96.9998 65.6797L98.6016 66.8455L98.9673 66.343L98.9805 65.7216L96.9998 65.6797ZM90.8282 75.9006L91.3844 77.802L92.2109 77.5602L92.5979 76.7909L90.8282 75.9006ZM71.1125 80.4804L69.4518 79.4003L69.3172 79.6073L69.2375 79.841L71.1125 80.4804ZM68.6341 87.7489L69.3651 89.5902L70.2143 89.2531L70.5092 88.3883L68.6341 87.7489ZM47.3842 90.0912L46.8951 92.011L46.9607 92.0277L47.0273 92.0399L47.3842 90.0912ZM37.024 69.5568L38.8509 70.3231L37.024 69.5568ZM57.111 33.7046L55.1604 34.0508L55.4506 35.6856H57.111V33.7046ZM41.3164 57.7448C42.3595 53.8179 44.306 48.9125 46.0239 44.931C46.8774 42.9529 47.6642 41.2262 48.2375 39.9945C48.524 39.379 48.7568 38.8877 48.9175 38.5514C48.9978 38.3833 49.0601 38.2539 49.102 38.1672C49.123 38.1238 49.1389 38.0911 49.1494 38.0695C49.1546 38.0587 49.1585 38.0506 49.161 38.0455C49.1623 38.0429 49.1632 38.041 49.1638 38.0398C49.1641 38.0393 49.1643 38.0389 49.1644 38.0386C49.1644 38.0385 49.1644 38.0385 49.1645 38.0384C49.1645 38.0385 49.1644 38.0385 47.3842 37.1694C45.6039 36.3003 45.6038 36.3004 45.6037 36.3006C45.6037 36.3008 45.6035 36.301 45.6034 36.3013C45.6032 36.3018 45.6028 36.3024 45.6024 36.3033C45.6016 36.305 45.6004 36.3075 45.5988 36.3107C45.5957 36.317 45.5913 36.3262 45.5854 36.3382C45.5738 36.3622 45.5567 36.3974 45.5346 36.4432C45.4902 36.535 45.4254 36.6696 45.3425 36.8432C45.1766 37.1904 44.938 37.6938 44.6453 38.3226C44.0602 39.5799 43.2574 41.3415 42.3859 43.3613C40.654 47.3753 38.6091 52.5033 37.487 56.7275L41.3164 57.7448ZM49.2909 37.7072L54.0462 20.8474L50.2328 19.7718L45.4775 36.6316L49.2909 37.7072ZM52.1395 22.2907H54.7333V18.3285H52.1395V22.2907ZM61.8357 34.7242L70.2656 20.6807L66.8685 18.6415L58.4385 32.6849L61.8357 34.7242ZM68.1216 21.5915L70.9315 22.2399L71.8224 18.3792L69.0125 17.7308L68.1216 21.5915ZM69.4008 20.4487L70.6723 38.5073L74.6247 38.229L73.3532 20.1704L69.4008 20.4487ZM71.8505 40.1815L79.4412 43.5219L81.0372 39.8953L73.4464 36.5549L71.8505 40.1815ZM78.2581 41.7086C78.2581 44.2957 79.4478 46.2244 81.1511 47.5905C82.7749 48.893 84.8689 49.6967 86.8585 50.2611C88.862 50.8295 90.9882 51.2135 92.7119 51.555C94.5774 51.9245 95.7809 52.2163 96.3882 52.5378L98.2421 49.0361C97.0121 48.3849 95.1625 48.0012 93.4818 47.6683C91.6592 47.3072 89.7461 46.9618 87.9399 46.4494C86.1198 45.933 84.6338 45.3047 83.6301 44.4997C82.7058 43.7583 82.2203 42.9041 82.2203 41.7086H78.2581ZM95.3345 50.745L95.0192 65.6378L98.9805 65.7216L99.2958 50.8289L95.3345 50.745ZM95.3981 64.5139C92.6635 68.271 91.2683 70.6178 89.0584 75.0102L92.5979 76.7909C94.7247 72.5637 96.0106 70.4054 98.6016 66.8455L95.3981 64.5139ZM90.2719 73.9992C89.1009 74.3418 87.6211 74.4587 85.8354 74.4911C84.1704 74.5214 82.071 74.4742 80.2001 74.5614C76.4258 74.7374 72.0048 75.4748 69.4518 79.4003L72.7733 81.5605C74.1794 79.3986 76.7327 78.6896 80.3847 78.5193C82.2269 78.4334 83.9537 78.4881 85.9074 78.4527C87.7404 78.4194 89.672 78.3029 91.3844 77.802L90.2719 73.9992ZM69.2375 79.841L66.759 87.1095L70.5092 88.3883L72.9876 81.1198L69.2375 79.841ZM67.9031 85.9076C62.1011 88.2109 53.5577 89.2078 47.741 88.1425L47.0273 92.0399C53.6475 93.2523 62.9442 92.1392 69.3651 89.5902L67.9031 85.9076ZM47.8732 88.1714C45.8558 87.6575 42.2455 86.1881 39.1402 84.4188C37.5919 83.5366 36.2616 82.6315 35.3462 81.7979C34.8886 81.3812 34.5878 81.0299 34.4129 80.7573C34.2322 80.4757 34.2604 80.3956 34.2604 80.4804L30.2982 80.4804C30.2982 81.4187 30.659 82.2436 31.078 82.8967C31.5026 83.5587 32.0683 84.1718 32.6785 84.7274C33.8985 85.8384 35.5083 86.9097 37.1788 87.8614C40.5111 89.7601 44.4533 91.389 46.8951 92.011L47.8732 88.1714ZM34.2604 80.4804C34.2604 79.3036 34.6711 78.2776 35.5472 76.6949C36.3997 75.1549 37.6788 73.1173 38.8509 70.3231L35.1971 68.7905C34.1352 71.3221 33.042 73.0393 32.0806 74.7761C31.1429 76.4703 30.2982 78.2432 30.2982 80.4804L34.2604 80.4804ZM38.8509 70.3231C39.9091 67.8005 40.2144 65.6806 40.4223 63.6831C40.6308 61.6807 40.7373 59.9247 41.3164 57.7448L37.487 56.7275C36.808 59.2837 36.6734 61.4286 36.4814 63.2728C36.289 65.1219 36.0345 66.7943 35.1971 68.7905L38.8509 70.3231ZM52.7827 20.6558L55.1604 34.0508L59.0616 33.3583L56.6839 19.9633L52.7827 20.6558ZM57.111 35.6856H60.1371V31.7235H57.111V35.6856Z" fill="#474350" mask="url(#path-3-inside-1_789_14881)"/>
<mask id="path-5-inside-2_789_14881" fill="white">
<path fill-rule="evenodd" clip-rule="evenodd" d="M49.9435 29.8208V43.6902C49.9435 45.9882 51.8064 47.8511 54.1044 47.8511H67.952V67.2904H54.1044C51.8064 67.2904 49.9435 69.1533 49.9435 71.4513V85.2992H30.5043V71.4513C30.5043 69.1533 28.6414 67.2904 26.3434 67.2904H12.4738V85.2992H12.4736V47.8513H26.3432C28.6412 47.8513 30.5041 45.9884 30.5041 43.6904V29.8208H49.9435Z"/>
</mask>
<path fill-rule="evenodd" clip-rule="evenodd" d="M49.9435 29.8208V43.6902C49.9435 45.9882 51.8064 47.8511 54.1044 47.8511H67.952V67.2904H54.1044C51.8064 67.2904 49.9435 69.1533 49.9435 71.4513V85.2992H30.5043V71.4513C30.5043 69.1533 28.6414 67.2904 26.3434 67.2904H12.4738V85.2992H12.4736V47.8513H26.3432C28.6412 47.8513 30.5041 45.9884 30.5041 43.6904V29.8208H49.9435Z" fill="#00B295"/>
<path d="M49.9435 29.8208H51.9246V27.8397H49.9435V29.8208ZM67.952 47.8511H69.9331V45.87H67.952V47.8511ZM67.952 67.2904V69.2715H69.9331V67.2904H67.952ZM49.9435 85.2992V87.2802H51.9246V85.2992H49.9435ZM30.5043 85.2992H28.5232V87.2802H30.5043V85.2992ZM12.4738 67.2904V65.3093H10.4927V67.2904H12.4738ZM12.4738 85.2992V87.2802H14.4549V85.2992H12.4738ZM12.4736 85.2992H10.4925V87.2802H12.4736V85.2992ZM12.4736 47.8513V45.8702H10.4925V47.8513H12.4736ZM30.5041 29.8208V27.8397H28.523V29.8208H30.5041ZM51.9246 43.6902V29.8208H47.9624V43.6902H51.9246ZM54.1044 45.87C52.9006 45.87 51.9246 44.8941 51.9246 43.6902H47.9624C47.9624 47.0824 50.7123 49.8322 54.1044 49.8322V45.87ZM67.952 45.87H54.1044V49.8322H67.952V45.87ZM69.9331 67.2904V47.8511H65.9709V67.2904H69.9331ZM54.1044 69.2715H67.952V65.3093H54.1044V69.2715ZM51.9246 71.4513C51.9246 70.2474 52.9006 69.2715 54.1044 69.2715V65.3093C50.7123 65.3093 47.9624 68.0592 47.9624 71.4513H51.9246ZM51.9246 85.2992V71.4513H47.9624V85.2992H51.9246ZM30.5043 87.2802H49.9435V83.3181H30.5043V87.2802ZM32.4854 85.2992V71.4513H28.5232V85.2992H32.4854ZM32.4854 71.4513C32.4854 68.0592 29.7355 65.3093 26.3434 65.3093V69.2715C27.5473 69.2715 28.5232 70.2474 28.5232 71.4513H32.4854ZM26.3434 65.3093H12.4738V69.2715H26.3434V65.3093ZM10.4927 67.2904V85.2992H14.4549V67.2904H10.4927ZM12.4736 87.2802H12.4738V83.3181H12.4736V87.2802ZM10.4925 47.8513V85.2992H14.4547V47.8513H10.4925ZM26.3432 45.8702H12.4736V49.8324H26.3432V45.8702ZM28.523 43.6904C28.523 44.8942 27.5471 45.8702 26.3432 45.8702V49.8324C29.7353 49.8324 32.4852 47.0825 32.4852 43.6904H28.523ZM28.523 29.8208V43.6904H32.4852V29.8208H28.523ZM49.9435 27.8397H30.5041V31.8019H49.9435V27.8397Z" fill="#474350" mask="url(#path-5-inside-2_789_14881)"/>
<path d="M44.8882 40.4944C51.6574 39.5741 57.3467 52.6676 57.3467 52.6676C57.3467 52.6676 58.3746 39.1632 64.396 39.0765C68.8731 39.0121 70.7185 42.6855 73.1553 46.4081C80.4631 57.572 57.3467 76.6681 57.3467 76.6681C57.3467 76.6681 32.2814 64.9167 35.431 52.6676C36.9259 46.8538 38.8902 41.3099 44.8882 40.4944Z" fill="#F8FFF4" stroke="#474350" stroke-width="1.98109"/>
</svg>
