<svg width="25" height="25" viewBox="0 0 25 25" fill="none" xmlns="http://www.w3.org/2000/svg">
<g clip-path="url(#clip0_816_4787)">
<path d="M12.9897 2.76847C16.1937 2.76847 16.5737 2.78047 17.8397 2.83847C21.0917 2.98647 22.6107 4.52947 22.7587 7.75747C22.8167 9.02247 22.8277 9.40247 22.8277 12.6065C22.8277 15.8115 22.8157 16.1905 22.7587 17.4555C22.6097 20.6805 21.0947 22.2265 17.8397 22.3745C16.5737 22.4325 16.1957 22.4445 12.9897 22.4445C9.78575 22.4445 9.40575 22.4325 8.14075 22.3745C4.88075 22.2255 3.36975 20.6755 3.22175 17.4545C3.16375 16.1895 3.15175 15.8105 3.15175 12.6055C3.15175 9.40147 3.16475 9.02247 3.22175 7.75647C3.37075 4.52947 4.88575 2.98547 8.14075 2.83747C9.40675 2.78047 9.78575 2.76847 12.9897 2.76847ZM12.9897 0.605469C9.73075 0.605469 9.32275 0.619469 8.04275 0.677469C3.68475 0.877469 1.26275 3.29547 1.06275 7.65747C1.00375 8.93847 0.989746 9.34647 0.989746 12.6055C0.989746 15.8645 1.00375 16.2735 1.06175 17.5535C1.26175 21.9115 3.67975 24.3335 8.04175 24.5335C9.32275 24.5915 9.73075 24.6055 12.9897 24.6055C16.2487 24.6055 16.6577 24.5915 17.9377 24.5335C22.2917 24.3335 24.7197 21.9155 24.9167 17.5535C24.9757 16.2735 24.9897 15.8645 24.9897 12.6055C24.9897 9.34647 24.9757 8.93847 24.9177 7.65847C24.7217 3.30447 22.3007 0.878469 17.9387 0.678469C16.6577 0.619469 16.2487 0.605469 12.9897 0.605469ZM12.9897 6.44347C9.58675 6.44347 6.82775 9.20247 6.82775 12.6055C6.82775 16.0085 9.58675 18.7685 12.9897 18.7685C16.3927 18.7685 19.1517 16.0095 19.1517 12.6055C19.1517 9.20247 16.3927 6.44347 12.9897 6.44347ZM12.9897 16.6055C10.7807 16.6055 8.98975 14.8155 8.98975 12.6055C8.98975 10.3965 10.7807 8.60547 12.9897 8.60547C15.1987 8.60547 16.9897 10.3965 16.9897 12.6055C16.9897 14.8155 15.1987 16.6055 12.9897 16.6055ZM19.3957 4.76047C18.5997 4.76047 17.9547 5.40547 17.9547 6.20047C17.9547 6.99547 18.5997 7.64047 19.3957 7.64047C20.1907 7.64047 20.8347 6.99547 20.8347 6.20047C20.8347 5.40547 20.1907 4.76047 19.3957 4.76047Z" fill="#474350"/>
</g>
<defs>
<clipPath id="clip0_816_4787">
<rect width="24" height="24" fill="white" transform="translate(0.989746 0.605469)"/>
</clipPath>
</defs>
</svg>