<svg width="25" height="25" viewBox="0 0 25 25" fill="none" xmlns="http://www.w3.org/2000/svg">
<g clip-path="url(#clip0_816_4791)">
<path d="M19.9897 0.605469H5.98975C3.22875 0.605469 0.989746 2.84447 0.989746 5.60547V19.6055C0.989746 22.3665 3.22875 24.6055 5.98975 24.6055H19.9897C22.7517 24.6055 24.9897 22.3665 24.9897 19.6055V5.60547C24.9897 2.84447 22.7517 0.605469 19.9897 0.605469ZM8.98975 19.6055H5.98975V8.60547H8.98975V19.6055ZM7.48975 7.33747C6.52375 7.33747 5.73975 6.54747 5.73975 5.57347C5.73975 4.59947 6.52375 3.80947 7.48975 3.80947C8.45575 3.80947 9.23975 4.59947 9.23975 5.57347C9.23975 6.54747 8.45675 7.33747 7.48975 7.33747ZM20.9897 19.6055H17.9897V14.0015C17.9897 10.6335 13.9897 10.8885 13.9897 14.0015V19.6055H10.9897V8.60547H13.9897V10.3705C15.3857 7.78447 20.9897 7.59347 20.9897 12.8465V19.6055Z" fill="#474350"/>
</g>
<defs>
<clipPath id="clip0_816_4791">
<rect width="24" height="24" fill="white" transform="translate(0.989746 0.605469)"/>
</clipPath>
</defs>
</svg>
