<svg width="77" height="96" viewBox="0 0 77 96" fill="none" xmlns="http://www.w3.org/2000/svg">
<rect x="0.902832" width="75.1521" height="96" rx="25" fill="#F8FFF4"/>
<path fill-rule="evenodd" clip-rule="evenodd" d="M62.4165 50.7328C68.0191 43.7783 63.0768 29.3486 61.506 25.2653C63.0287 24.0823 65.7143 21.469 65.7143 17.7553C65.7143 12.9232 61.6261 8 57.6138 8C57.5602 8 57.5078 8.00085 57.4543 8.00285C54.8032 8.09424 52.592 10.8646 51.4306 12.6647C50.4674 12.0457 49.1047 11.3957 47.6312 11.3957H29.3266C27.8532 11.3957 26.4905 12.0457 25.5272 12.6647C24.3658 10.8646 22.1549 8.09424 19.5038 8.00285C19.4506 8.00085 19.3976 8 19.3444 8C15.3317 8 11.2436 12.9232 11.2436 17.7553C11.2436 21.469 13.9291 24.0823 15.451 25.2653C13.8804 29.3486 8.93785 43.778 14.5404 50.7328C17.2078 54.0441 20.7125 56.2896 24.0366 57.8349H19.4435V64.7886H26.8171C27.3894 66.708 28.4321 68.4746 29.8741 69.9165C32.1562 72.1986 35.2514 73.4807 38.4788 73.4807C41.7062 73.4807 44.8015 72.1986 47.0836 69.9165C48.5256 68.4746 49.5683 66.708 50.1406 64.7886H57.6015V57.8349H52.9204C56.2445 56.2896 59.7492 54.0441 62.4165 50.7328ZM43.6818 60.9531C43.8786 60.9003 44.0947 60.8437 44.323 60.784C46.2492 60.2792 49.4885 59.4303 52.9204 57.8349H50.1406C49.7606 56.5607 49.1734 55.3539 48.3997 54.2647C50.7619 53.9052 51.1731 52.4696 52.0795 49.3057C52.3485 48.3664 52.6613 47.2746 53.0816 46.0136H53.0799V43.9275C47.8059 47.8818 45.0319 43.5043 42.6512 39.7473C41.2651 37.56 40.0123 35.583 38.4771 35.583C36.9419 35.583 35.6894 37.56 34.3036 39.7474C31.9232 43.5049 29.1495 47.883 23.8743 43.9275V46.0136C24.2624 47.1769 24.5633 48.196 24.8255 49.0844C25.7901 52.3515 26.2325 53.8501 28.5707 54.2467C27.7907 55.3406 27.1991 56.5537 26.8171 57.8349H24.0366C27.4685 59.4303 30.7078 60.2792 32.634 60.784L32.6554 60.7896C32.876 60.8474 33.085 60.9022 33.2759 60.9534C33.2677 61.0723 33.2636 61.1918 33.2636 61.3117C33.2636 61.9966 33.3985 62.6748 33.6605 63.3075C33.9226 63.9403 34.3068 64.5152 34.7911 64.9995C35.2754 65.4838 35.8503 65.8679 36.483 66.13C37.1158 66.3921 37.794 66.527 38.4788 66.527C39.1637 66.527 39.8419 66.3921 40.4746 66.13C41.1074 65.8679 41.6823 65.4838 42.1666 64.9995C42.6509 64.5152 43.035 63.9403 43.2971 63.3075C43.5592 62.6748 43.6941 61.9966 43.6941 61.3117C43.6941 61.1917 43.69 61.0721 43.6818 60.9531ZM43.6818 60.9531C43.3758 61.0351 43.1162 61.1078 42.9292 61.1686C40.322 62.0168 38.6597 62.041 38.4786 62.041C38.2976 62.041 36.635 62.0166 34.0275 61.1686C33.841 61.1079 33.5816 61.0353 33.2759 60.9534C33.3621 59.7011 33.8978 58.5172 34.7911 57.624C35.7691 56.6459 37.0957 56.0964 38.4788 56.0964C39.862 56.0964 41.1885 56.6459 42.1666 57.624C43.0598 58.5171 43.5955 59.7009 43.6818 60.9531ZM19.3561 19.5895C19.3561 19.5895 25.684 12.6358 38.8265 12.6358C51.969 12.6358 57.6015 19.5895 57.6015 19.5895H19.3561ZM59.9196 32.3844C59.9196 36.0698 50.5115 40.4507 47.0553 40.4507C45.3286 40.4507 44.0479 38.3645 42.7671 36.2784C41.4864 34.1923 40.2057 32.1062 38.479 32.1062C36.7523 32.1062 35.4716 34.1923 34.1909 36.2784C32.9102 38.3645 31.6295 40.4507 29.9028 40.4507C26.4466 40.4507 17.0384 36.0712 17.0384 32.3844V25.7088C17.0384 22.0219 21.2065 19.5895 26.388 19.5895C29.6726 19.5895 32.9571 20.1484 35.3621 20.5576C36.7509 20.7939 37.8464 20.9803 38.479 20.9803C39.1117 20.9803 40.2071 20.7939 41.596 20.5576C44.0009 20.1484 47.2855 19.5895 50.5701 19.5895C55.7516 19.5895 59.9196 22.0219 59.9196 25.7088V32.3844Z" fill="black"/>
<path d="M64.7894 79.8549C65.6331 79.8549 66.055 80.2713 66.055 81.1042V82.5483H64.7407V80.9744L62.2096 82.5807V86.8642H63.0046V87.9676H59.8731V86.8642H60.8953V80.942H59.8731V79.8387H62.2096V81.2665L64.2053 80.0172C64.3784 79.909 64.5731 79.8549 64.7894 79.8549Z" fill="black"/>
<path d="M58.571 86.8643V87.9676H52.9246C52.3729 87.9676 51.9998 87.8594 51.8051 87.6431C51.632 87.4484 51.5454 87.0806 51.5454 86.5397V85.9394C51.5454 85.55 51.5941 85.285 51.6915 85.1444C51.8321 84.9389 52.1512 84.6847 52.6488 84.3818L56.2183 82.1589V80.9582H53.0382V81.8993H51.9998V79.8549H56.0561C56.6077 79.8549 56.9917 79.9739 57.2081 80.2119C57.4352 80.4499 57.5488 80.796 57.5488 81.2503V86.8643H58.571ZM56.2183 83.4569L52.8435 85.5662V86.8643H56.2183V83.4569Z" fill="black"/>
<path d="M44.6959 81.445C44.6959 80.3741 45.253 79.8387 46.3671 79.8387H49.1092C49.6392 79.8387 50.0232 79.9414 50.2612 80.1469C50.4992 80.3525 50.6181 80.7311 50.6181 81.2827V82.7917L45.9939 85.7122V86.8642H49.3363V85.9232H50.6181V86.7831C50.6181 87.1076 50.5154 87.3888 50.3099 87.6268C50.1152 87.854 49.7852 87.9676 49.3201 87.9676H45.9939C45.5288 87.9676 45.1935 87.854 44.988 87.6268C44.7933 87.3888 44.6959 87.1076 44.6959 86.7831V81.445ZM45.9939 84.398L49.3201 82.3049V80.9582H45.9939V84.398Z" fill="black"/>
<path d="M40.8896 80.2444C41.1167 80.0713 41.3926 79.9847 41.7171 79.9847C42.0524 79.9847 42.3336 80.0983 42.5608 80.3255C42.7988 80.5526 42.9178 80.9042 42.9178 81.3801V86.5398C42.9178 86.9941 42.8474 87.3078 42.7068 87.4808C42.4256 87.8054 42.0145 87.9676 41.4737 87.9676H35.8273V86.8643H36.8495V76.8857H35.8435V75.7986H39.2346C40.3379 75.7986 40.8896 76.28 40.8896 77.2427V80.2444ZM39.5753 81.0719V76.8857H38.18V81.948L39.5753 81.0719ZM41.6197 81.0881L38.18 83.246V86.8481H41.6197V81.0881Z" fill="#B62A2A"/>
<path d="M28.5858 88C27.7421 88 27.3202 87.5835 27.3202 86.7506V80.942H26.2818V79.8387H28.6345V86.8642L31.8633 84.8361V80.942H31.0683V79.8387H33.1776V86.8642H34.1997V87.9676H31.8633V86.1503L29.1699 87.8377C28.9968 87.9459 28.8021 88 28.5858 88Z" fill="black"/>
<path d="M24.9856 87.9676H20.9455C20.1666 87.9676 19.7177 87.6755 19.5988 87.0914C19.5555 86.9183 19.5339 86.7344 19.5339 86.5397V81.2827C19.5339 80.8284 19.6583 80.4769 19.907 80.2281C20.1666 79.9685 20.5561 79.8387 21.0753 79.8387H24.9856V81.8993H23.8822V80.9582H20.8319V86.8642H23.8822V85.9232H24.9856V87.9676Z" fill="black"/>
<path d="M16.2247 82.0129C16.4411 82.1644 16.6412 82.2996 16.8251 82.4185C17.0198 82.5267 17.1874 82.6457 17.3281 82.7755C17.6093 83.0351 17.7499 83.3542 17.7499 83.7328V86.4911C17.7499 86.9779 17.5768 87.351 17.2307 87.6106C16.9386 87.8486 16.5546 87.9676 16.0787 87.9676H10.9028V84.9659H12.0711V86.8643H16.4519V83.7003L12.2009 81.0881C11.8223 80.8717 11.5086 80.65 11.2598 80.4228C11.0218 80.1849 10.9028 79.8658 10.9028 79.4655V77.4212C10.9028 76.783 11.0543 76.3449 11.3571 76.1069C11.6167 75.9014 12.0656 75.7986 12.7038 75.7986H17.6039V78.8003H16.4357V76.9019H12.2009V79.498L16.2247 82.0129Z" fill="#B62A2A"/>
</svg>
